G04 #@! TF.GenerationSoftware,KiCad,Pcbnew,(5.0.2)-1*
G04 #@! TF.CreationDate,2019-02-15T15:39:03+02:00*
G04 #@! TF.ProjectId,STM32_Shield,53544d33-325f-4536-9869-656c642e6b69,rev?*
G04 #@! TF.SameCoordinates,Original*
G04 #@! TF.FileFunction,Legend,Bot*
G04 #@! TF.FilePolarity,Positive*
%FSLAX46Y46*%
G04 Gerber Fmt 4.6, Leading zero omitted, Abs format (unit mm)*
G04 Created by KiCad (PCBNEW (5.0.2)-1) date 15-Feb-19 3:39:03 PM*
%MOMM*%
%LPD*%
G01*
G04 APERTURE LIST*
%ADD10C,0.050000*%
%ADD11C,0.120000*%
%ADD12C,0.150000*%
%ADD13C,0.127000*%
G04 APERTURE END LIST*
D10*
G04 #@! TO.C,J3*
X101750000Y-43250000D02*
X140250000Y-43250000D01*
X101750000Y-59250000D02*
X101750000Y-43250000D01*
X140250000Y-59250000D02*
X140250000Y-43250000D01*
X143750000Y-66250000D02*
X137250000Y-66250000D01*
X143750000Y-66250000D02*
X143750000Y-59250000D01*
X140250000Y-59250000D02*
X143750000Y-59250000D01*
X98250000Y-59250000D02*
X101750000Y-59250000D01*
X98250000Y-66250000D02*
X98250000Y-59250000D01*
X98250000Y-66250000D02*
X104750000Y-66250000D01*
X137250000Y-79750000D02*
X104750000Y-79750000D01*
X104750000Y-66250000D02*
X104750000Y-79750000D01*
X137250000Y-66250000D02*
X137250000Y-79750000D01*
D11*
G04 #@! TO.C,C5*
X115765140Y-82912592D02*
X114765140Y-82912592D01*
X114765140Y-81212592D02*
X115765140Y-81212592D01*
G04 #@! TO.C,C6*
X132765140Y-80212592D02*
X133765140Y-80212592D01*
X133765140Y-81912592D02*
X132765140Y-81912592D01*
G04 #@! TO.C,C7*
X124575871Y-98802085D02*
X123575871Y-98802085D01*
X123575871Y-97102085D02*
X124575871Y-97102085D01*
G04 #@! TO.C,C8*
X110765140Y-87912592D02*
X109765140Y-87912592D01*
X109765140Y-86212592D02*
X110765140Y-86212592D01*
G04 #@! TO.C,C9*
X137765140Y-83212592D02*
X138765140Y-83212592D01*
X138765140Y-84912592D02*
X137765140Y-84912592D01*
G04 #@! TO.C,C10*
X115575871Y-93802085D02*
X114575871Y-93802085D01*
X114575871Y-92102085D02*
X115575871Y-92102085D01*
G04 #@! TO.C,C11*
X132575871Y-91102085D02*
X133575871Y-91102085D01*
X133575871Y-92802085D02*
X132575871Y-92802085D01*
G04 #@! TO.C,C12*
X124765140Y-87912592D02*
X123765140Y-87912592D01*
X123765140Y-86212592D02*
X124765140Y-86212592D01*
G04 #@! TO.C,C13*
X110575871Y-98802085D02*
X109575871Y-98802085D01*
X109575871Y-97102085D02*
X110575871Y-97102085D01*
G04 #@! TO.C,C14*
X137575871Y-94102085D02*
X138575871Y-94102085D01*
X138575871Y-95802085D02*
X137575871Y-95802085D01*
D10*
G04 #@! TO.C,Q5*
X161206597Y-108169511D02*
X160246597Y-108169511D01*
X161206597Y-108169511D02*
X161206597Y-106919511D01*
X158086597Y-106919511D02*
X158086597Y-108169511D01*
X158086597Y-108169511D02*
X159046597Y-108169511D01*
X159246597Y-106669511D02*
X160046597Y-106669511D01*
G04 #@! TO.C,Q6*
X160370665Y-133140537D02*
X159410665Y-133140537D01*
X160370665Y-133140537D02*
X160370665Y-131890537D01*
X157250665Y-131890537D02*
X157250665Y-133140537D01*
X157250665Y-133140537D02*
X158210665Y-133140537D01*
X158410665Y-131640537D02*
X159210665Y-131640537D01*
G04 #@! TO.C,Q7*
X153896597Y-113979511D02*
X153896597Y-113019511D01*
X153896597Y-113979511D02*
X155146597Y-113979511D01*
X155146597Y-110859511D02*
X153896597Y-110859511D01*
X153896597Y-110859511D02*
X153896597Y-111819511D01*
X155396597Y-112019511D02*
X155396597Y-112819511D01*
G04 #@! TO.C,Q8*
X153060665Y-138950537D02*
X153060665Y-137990537D01*
X153060665Y-138950537D02*
X154310665Y-138950537D01*
X154310665Y-135830537D02*
X153060665Y-135830537D01*
X153060665Y-135830537D02*
X153060665Y-136790537D01*
X154560665Y-136990537D02*
X154560665Y-137790537D01*
G04 #@! TO.C,Q13*
X160162937Y-146202123D02*
X159202937Y-146202123D01*
X160162937Y-146202123D02*
X160162937Y-144952123D01*
X157042937Y-144952123D02*
X157042937Y-146202123D01*
X157042937Y-146202123D02*
X158002937Y-146202123D01*
X158202937Y-144702123D02*
X159002937Y-144702123D01*
G04 #@! TO.C,Q14*
X160770523Y-120525609D02*
X159810523Y-120525609D01*
X160770523Y-120525609D02*
X160770523Y-119275609D01*
X157650523Y-119275609D02*
X157650523Y-120525609D01*
X157650523Y-120525609D02*
X158610523Y-120525609D01*
X158810523Y-119025609D02*
X159610523Y-119025609D01*
G04 #@! TO.C,Q15*
X152852937Y-152012123D02*
X152852937Y-151052123D01*
X152852937Y-152012123D02*
X154102937Y-152012123D01*
X154102937Y-148892123D02*
X152852937Y-148892123D01*
X152852937Y-148892123D02*
X152852937Y-149852123D01*
X154352937Y-150052123D02*
X154352937Y-150852123D01*
G04 #@! TO.C,Q16*
X153460523Y-126335609D02*
X153460523Y-125375609D01*
X153460523Y-126335609D02*
X154710523Y-126335609D01*
X154710523Y-123215609D02*
X153460523Y-123215609D01*
X153460523Y-123215609D02*
X153460523Y-124175609D01*
X154960523Y-124375609D02*
X154960523Y-125175609D01*
D11*
G04 #@! TO.C,R7*
X115865140Y-84182592D02*
X114665140Y-84182592D01*
X114665140Y-85942592D02*
X115865140Y-85942592D01*
G04 #@! TO.C,R8*
X110865140Y-84182592D02*
X109665140Y-84182592D01*
X109665140Y-85942592D02*
X110865140Y-85942592D01*
G04 #@! TO.C,R9*
X132665140Y-86942592D02*
X133865140Y-86942592D01*
X133865140Y-85182592D02*
X132665140Y-85182592D01*
G04 #@! TO.C,R10*
X137665140Y-86942592D02*
X138865140Y-86942592D01*
X138865140Y-85182592D02*
X137665140Y-85182592D01*
G04 #@! TO.C,R11*
X115675871Y-95072085D02*
X114475871Y-95072085D01*
X114475871Y-96832085D02*
X115675871Y-96832085D01*
G04 #@! TO.C,R12*
X110675871Y-95072085D02*
X109475871Y-95072085D01*
X109475871Y-96832085D02*
X110675871Y-96832085D01*
G04 #@! TO.C,R13*
X132475871Y-97832085D02*
X133675871Y-97832085D01*
X133675871Y-96072085D02*
X132475871Y-96072085D01*
G04 #@! TO.C,R14*
X137475871Y-97832085D02*
X138675871Y-97832085D01*
X138675871Y-96072085D02*
X137475871Y-96072085D01*
G04 #@! TO.C,R23*
X155246597Y-103539511D02*
X154046597Y-103539511D01*
X154046597Y-105299511D02*
X155246597Y-105299511D01*
G04 #@! TO.C,R24*
X154410665Y-128510537D02*
X153210665Y-128510537D01*
X153210665Y-130270537D02*
X154410665Y-130270537D01*
G04 #@! TO.C,R25*
X160526597Y-114019511D02*
X160526597Y-112819511D01*
X158766597Y-112819511D02*
X158766597Y-114019511D01*
G04 #@! TO.C,R26*
X159690665Y-138990537D02*
X159690665Y-137790537D01*
X157930665Y-137790537D02*
X157930665Y-138990537D01*
G04 #@! TO.C,R31*
X154202937Y-141572123D02*
X153002937Y-141572123D01*
X153002937Y-143332123D02*
X154202937Y-143332123D01*
G04 #@! TO.C,R32*
X154810523Y-115895609D02*
X153610523Y-115895609D01*
X153610523Y-117655609D02*
X154810523Y-117655609D01*
G04 #@! TO.C,R33*
X159482937Y-152052123D02*
X159482937Y-150852123D01*
X157722937Y-150852123D02*
X157722937Y-152052123D01*
G04 #@! TO.C,R34*
X160090523Y-126375609D02*
X160090523Y-125175609D01*
X158330523Y-125175609D02*
X158330523Y-126375609D01*
D10*
G04 #@! TO.C,U3*
X122265140Y-85562592D02*
X126265140Y-85562592D01*
X122265140Y-80562592D02*
X126265140Y-80562592D01*
X123465140Y-84862592D02*
G75*
G03X123465140Y-84862592I-400000J0D01*
G01*
G04 #@! TO.C,U4*
X122075871Y-96452085D02*
X126075871Y-96452085D01*
X122075871Y-91452085D02*
X126075871Y-91452085D01*
X123275871Y-95752085D02*
G75*
G03X123275871Y-95752085I-400000J0D01*
G01*
G04 #@! TO.C,Q19*
X153896597Y-109979511D02*
X153896597Y-109019511D01*
X153896597Y-109979511D02*
X155146597Y-109979511D01*
X155146597Y-106859511D02*
X153896597Y-106859511D01*
X153896597Y-106859511D02*
X153896597Y-107819511D01*
X155396597Y-108019511D02*
X155396597Y-108819511D01*
G04 #@! TO.C,Q20*
X153060665Y-134950537D02*
X153060665Y-133990537D01*
X153060665Y-134950537D02*
X154310665Y-134950537D01*
X154310665Y-131830537D02*
X153060665Y-131830537D01*
X153060665Y-131830537D02*
X153060665Y-132790537D01*
X154560665Y-132990537D02*
X154560665Y-133790537D01*
G04 #@! TO.C,Q23*
X152852937Y-148012123D02*
X152852937Y-147052123D01*
X152852937Y-148012123D02*
X154102937Y-148012123D01*
X154102937Y-144892123D02*
X152852937Y-144892123D01*
X152852937Y-144892123D02*
X152852937Y-145852123D01*
X154352937Y-146052123D02*
X154352937Y-146852123D01*
G04 #@! TO.C,Q24*
X153460523Y-122335609D02*
X153460523Y-121375609D01*
X153460523Y-122335609D02*
X154710523Y-122335609D01*
X154710523Y-119215609D02*
X153460523Y-119215609D01*
X153460523Y-119215609D02*
X153460523Y-120175609D01*
X154960523Y-120375609D02*
X154960523Y-121175609D01*
G04 #@! TO.C,J3*
D12*
X121333333Y-78167380D02*
X121333333Y-78881666D01*
X121380952Y-79024523D01*
X121476190Y-79119761D01*
X121619047Y-79167380D01*
X121714285Y-79167380D01*
X120952380Y-78167380D02*
X120333333Y-78167380D01*
X120666666Y-78548333D01*
X120523809Y-78548333D01*
X120428571Y-78595952D01*
X120380952Y-78643571D01*
X120333333Y-78738809D01*
X120333333Y-78976904D01*
X120380952Y-79072142D01*
X120428571Y-79119761D01*
X120523809Y-79167380D01*
X120809523Y-79167380D01*
X120904761Y-79119761D01*
X120952380Y-79072142D01*
G04 #@! TO.C,C5*
X115431806Y-80669734D02*
X115479425Y-80717353D01*
X115622282Y-80764972D01*
X115717520Y-80764972D01*
X115860378Y-80717353D01*
X115955616Y-80622115D01*
X116003235Y-80526877D01*
X116050854Y-80336401D01*
X116050854Y-80193544D01*
X116003235Y-80003068D01*
X115955616Y-79907830D01*
X115860378Y-79812592D01*
X115717520Y-79764972D01*
X115622282Y-79764972D01*
X115479425Y-79812592D01*
X115431806Y-79860211D01*
X114527044Y-79764972D02*
X115003235Y-79764972D01*
X115050854Y-80241163D01*
X115003235Y-80193544D01*
X114907997Y-80145925D01*
X114669901Y-80145925D01*
X114574663Y-80193544D01*
X114527044Y-80241163D01*
X114479425Y-80336401D01*
X114479425Y-80574496D01*
X114527044Y-80669734D01*
X114574663Y-80717353D01*
X114669901Y-80764972D01*
X114907997Y-80764972D01*
X115003235Y-80717353D01*
X115050854Y-80669734D01*
G04 #@! TO.C,C6*
X133431806Y-83169734D02*
X133479425Y-83217353D01*
X133622282Y-83264972D01*
X133717520Y-83264972D01*
X133860378Y-83217353D01*
X133955616Y-83122115D01*
X134003235Y-83026877D01*
X134050854Y-82836401D01*
X134050854Y-82693544D01*
X134003235Y-82503068D01*
X133955616Y-82407830D01*
X133860378Y-82312592D01*
X133717520Y-82264972D01*
X133622282Y-82264972D01*
X133479425Y-82312592D01*
X133431806Y-82360211D01*
X132574663Y-82264972D02*
X132765140Y-82264972D01*
X132860378Y-82312592D01*
X132907997Y-82360211D01*
X133003235Y-82503068D01*
X133050854Y-82693544D01*
X133050854Y-83074496D01*
X133003235Y-83169734D01*
X132955616Y-83217353D01*
X132860378Y-83264972D01*
X132669901Y-83264972D01*
X132574663Y-83217353D01*
X132527044Y-83169734D01*
X132479425Y-83074496D01*
X132479425Y-82836401D01*
X132527044Y-82741163D01*
X132574663Y-82693544D01*
X132669901Y-82645925D01*
X132860378Y-82645925D01*
X132955616Y-82693544D01*
X133003235Y-82741163D01*
X133050854Y-82836401D01*
G04 #@! TO.C,C7*
X124242537Y-96559227D02*
X124290156Y-96606846D01*
X124433013Y-96654465D01*
X124528251Y-96654465D01*
X124671109Y-96606846D01*
X124766347Y-96511608D01*
X124813966Y-96416370D01*
X124861585Y-96225894D01*
X124861585Y-96083037D01*
X124813966Y-95892561D01*
X124766347Y-95797323D01*
X124671109Y-95702085D01*
X124528251Y-95654465D01*
X124433013Y-95654465D01*
X124290156Y-95702085D01*
X124242537Y-95749704D01*
X123909204Y-95654465D02*
X123242537Y-95654465D01*
X123671109Y-96654465D01*
G04 #@! TO.C,C8*
X110431806Y-89419734D02*
X110479425Y-89467353D01*
X110622282Y-89514972D01*
X110717520Y-89514972D01*
X110860378Y-89467353D01*
X110955616Y-89372115D01*
X111003235Y-89276877D01*
X111050854Y-89086401D01*
X111050854Y-88943544D01*
X111003235Y-88753068D01*
X110955616Y-88657830D01*
X110860378Y-88562592D01*
X110717520Y-88514972D01*
X110622282Y-88514972D01*
X110479425Y-88562592D01*
X110431806Y-88610211D01*
X109860378Y-88943544D02*
X109955616Y-88895925D01*
X110003235Y-88848306D01*
X110050854Y-88753068D01*
X110050854Y-88705449D01*
X110003235Y-88610211D01*
X109955616Y-88562592D01*
X109860378Y-88514972D01*
X109669901Y-88514972D01*
X109574663Y-88562592D01*
X109527044Y-88610211D01*
X109479425Y-88705449D01*
X109479425Y-88753068D01*
X109527044Y-88848306D01*
X109574663Y-88895925D01*
X109669901Y-88943544D01*
X109860378Y-88943544D01*
X109955616Y-88991163D01*
X110003235Y-89038782D01*
X110050854Y-89134020D01*
X110050854Y-89324496D01*
X110003235Y-89419734D01*
X109955616Y-89467353D01*
X109860378Y-89514972D01*
X109669901Y-89514972D01*
X109574663Y-89467353D01*
X109527044Y-89419734D01*
X109479425Y-89324496D01*
X109479425Y-89134020D01*
X109527044Y-89038782D01*
X109574663Y-88991163D01*
X109669901Y-88943544D01*
G04 #@! TO.C,C9*
X138431806Y-82419734D02*
X138479425Y-82467353D01*
X138622282Y-82514972D01*
X138717520Y-82514972D01*
X138860378Y-82467353D01*
X138955616Y-82372115D01*
X139003235Y-82276877D01*
X139050854Y-82086401D01*
X139050854Y-81943544D01*
X139003235Y-81753068D01*
X138955616Y-81657830D01*
X138860378Y-81562592D01*
X138717520Y-81514972D01*
X138622282Y-81514972D01*
X138479425Y-81562592D01*
X138431806Y-81610211D01*
X137955616Y-82514972D02*
X137765140Y-82514972D01*
X137669901Y-82467353D01*
X137622282Y-82419734D01*
X137527044Y-82276877D01*
X137479425Y-82086401D01*
X137479425Y-81705449D01*
X137527044Y-81610211D01*
X137574663Y-81562592D01*
X137669901Y-81514972D01*
X137860378Y-81514972D01*
X137955616Y-81562592D01*
X138003235Y-81610211D01*
X138050854Y-81705449D01*
X138050854Y-81943544D01*
X138003235Y-82038782D01*
X137955616Y-82086401D01*
X137860378Y-82134020D01*
X137669901Y-82134020D01*
X137574663Y-82086401D01*
X137527044Y-82038782D01*
X137479425Y-81943544D01*
G04 #@! TO.C,C10*
X115718728Y-91559227D02*
X115766347Y-91606846D01*
X115909204Y-91654465D01*
X116004442Y-91654465D01*
X116147299Y-91606846D01*
X116242537Y-91511608D01*
X116290156Y-91416370D01*
X116337775Y-91225894D01*
X116337775Y-91083037D01*
X116290156Y-90892561D01*
X116242537Y-90797323D01*
X116147299Y-90702085D01*
X116004442Y-90654465D01*
X115909204Y-90654465D01*
X115766347Y-90702085D01*
X115718728Y-90749704D01*
X114766347Y-91654465D02*
X115337775Y-91654465D01*
X115052061Y-91654465D02*
X115052061Y-90654465D01*
X115147299Y-90797323D01*
X115242537Y-90892561D01*
X115337775Y-90940180D01*
X114147299Y-90654465D02*
X114052061Y-90654465D01*
X113956823Y-90702085D01*
X113909204Y-90749704D01*
X113861585Y-90844942D01*
X113813966Y-91035418D01*
X113813966Y-91273513D01*
X113861585Y-91463989D01*
X113909204Y-91559227D01*
X113956823Y-91606846D01*
X114052061Y-91654465D01*
X114147299Y-91654465D01*
X114242537Y-91606846D01*
X114290156Y-91559227D01*
X114337775Y-91463989D01*
X114385394Y-91273513D01*
X114385394Y-91035418D01*
X114337775Y-90844942D01*
X114290156Y-90749704D01*
X114242537Y-90702085D01*
X114147299Y-90654465D01*
G04 #@! TO.C,C11*
X133718728Y-94059227D02*
X133766347Y-94106846D01*
X133909204Y-94154465D01*
X134004442Y-94154465D01*
X134147299Y-94106846D01*
X134242537Y-94011608D01*
X134290156Y-93916370D01*
X134337775Y-93725894D01*
X134337775Y-93583037D01*
X134290156Y-93392561D01*
X134242537Y-93297323D01*
X134147299Y-93202085D01*
X134004442Y-93154465D01*
X133909204Y-93154465D01*
X133766347Y-93202085D01*
X133718728Y-93249704D01*
X132766347Y-94154465D02*
X133337775Y-94154465D01*
X133052061Y-94154465D02*
X133052061Y-93154465D01*
X133147299Y-93297323D01*
X133242537Y-93392561D01*
X133337775Y-93440180D01*
X131813966Y-94154465D02*
X132385394Y-94154465D01*
X132099680Y-94154465D02*
X132099680Y-93154465D01*
X132194918Y-93297323D01*
X132290156Y-93392561D01*
X132385394Y-93440180D01*
G04 #@! TO.C,C12*
X124907997Y-85669734D02*
X124955616Y-85717353D01*
X125098473Y-85764972D01*
X125193711Y-85764972D01*
X125336568Y-85717353D01*
X125431806Y-85622115D01*
X125479425Y-85526877D01*
X125527044Y-85336401D01*
X125527044Y-85193544D01*
X125479425Y-85003068D01*
X125431806Y-84907830D01*
X125336568Y-84812592D01*
X125193711Y-84764972D01*
X125098473Y-84764972D01*
X124955616Y-84812592D01*
X124907997Y-84860211D01*
X123955616Y-85764972D02*
X124527044Y-85764972D01*
X124241330Y-85764972D02*
X124241330Y-84764972D01*
X124336568Y-84907830D01*
X124431806Y-85003068D01*
X124527044Y-85050687D01*
X123574663Y-84860211D02*
X123527044Y-84812592D01*
X123431806Y-84764972D01*
X123193711Y-84764972D01*
X123098473Y-84812592D01*
X123050854Y-84860211D01*
X123003235Y-84955449D01*
X123003235Y-85050687D01*
X123050854Y-85193544D01*
X123622282Y-85764972D01*
X123003235Y-85764972D01*
G04 #@! TO.C,C13*
X110718728Y-100309227D02*
X110766347Y-100356846D01*
X110909204Y-100404465D01*
X111004442Y-100404465D01*
X111147299Y-100356846D01*
X111242537Y-100261608D01*
X111290156Y-100166370D01*
X111337775Y-99975894D01*
X111337775Y-99833037D01*
X111290156Y-99642561D01*
X111242537Y-99547323D01*
X111147299Y-99452085D01*
X111004442Y-99404465D01*
X110909204Y-99404465D01*
X110766347Y-99452085D01*
X110718728Y-99499704D01*
X109766347Y-100404465D02*
X110337775Y-100404465D01*
X110052061Y-100404465D02*
X110052061Y-99404465D01*
X110147299Y-99547323D01*
X110242537Y-99642561D01*
X110337775Y-99690180D01*
X109433013Y-99404465D02*
X108813966Y-99404465D01*
X109147299Y-99785418D01*
X109004442Y-99785418D01*
X108909204Y-99833037D01*
X108861585Y-99880656D01*
X108813966Y-99975894D01*
X108813966Y-100213989D01*
X108861585Y-100309227D01*
X108909204Y-100356846D01*
X109004442Y-100404465D01*
X109290156Y-100404465D01*
X109385394Y-100356846D01*
X109433013Y-100309227D01*
G04 #@! TO.C,C14*
X138718728Y-93309227D02*
X138766347Y-93356846D01*
X138909204Y-93404465D01*
X139004442Y-93404465D01*
X139147299Y-93356846D01*
X139242537Y-93261608D01*
X139290156Y-93166370D01*
X139337775Y-92975894D01*
X139337775Y-92833037D01*
X139290156Y-92642561D01*
X139242537Y-92547323D01*
X139147299Y-92452085D01*
X139004442Y-92404465D01*
X138909204Y-92404465D01*
X138766347Y-92452085D01*
X138718728Y-92499704D01*
X137766347Y-93404465D02*
X138337775Y-93404465D01*
X138052061Y-93404465D02*
X138052061Y-92404465D01*
X138147299Y-92547323D01*
X138242537Y-92642561D01*
X138337775Y-92690180D01*
X136909204Y-92737799D02*
X136909204Y-93404465D01*
X137147299Y-92356846D02*
X137385394Y-93071132D01*
X136766347Y-93071132D01*
G04 #@! TO.C,Q5*
D13*
X159694977Y-107697701D02*
X159743358Y-107673511D01*
X159791739Y-107625130D01*
X159864311Y-107552558D01*
X159912692Y-107528368D01*
X159961073Y-107528368D01*
X159936882Y-107649320D02*
X159985263Y-107625130D01*
X160033644Y-107576749D01*
X160057835Y-107479987D01*
X160057835Y-107310653D01*
X160033644Y-107213891D01*
X159985263Y-107165511D01*
X159936882Y-107141320D01*
X159840120Y-107141320D01*
X159791739Y-107165511D01*
X159743358Y-107213891D01*
X159719168Y-107310653D01*
X159719168Y-107479987D01*
X159743358Y-107576749D01*
X159791739Y-107625130D01*
X159840120Y-107649320D01*
X159936882Y-107649320D01*
X159259549Y-107141320D02*
X159501454Y-107141320D01*
X159525644Y-107383225D01*
X159501454Y-107359034D01*
X159453073Y-107334844D01*
X159332120Y-107334844D01*
X159283739Y-107359034D01*
X159259549Y-107383225D01*
X159235358Y-107431606D01*
X159235358Y-107552558D01*
X159259549Y-107600939D01*
X159283739Y-107625130D01*
X159332120Y-107649320D01*
X159453073Y-107649320D01*
X159501454Y-107625130D01*
X159525644Y-107600939D01*
G04 #@! TO.C,Q6*
X158859045Y-132668727D02*
X158907426Y-132644537D01*
X158955807Y-132596156D01*
X159028379Y-132523584D01*
X159076760Y-132499394D01*
X159125141Y-132499394D01*
X159100950Y-132620346D02*
X159149331Y-132596156D01*
X159197712Y-132547775D01*
X159221903Y-132451013D01*
X159221903Y-132281679D01*
X159197712Y-132184917D01*
X159149331Y-132136537D01*
X159100950Y-132112346D01*
X159004188Y-132112346D01*
X158955807Y-132136537D01*
X158907426Y-132184917D01*
X158883236Y-132281679D01*
X158883236Y-132451013D01*
X158907426Y-132547775D01*
X158955807Y-132596156D01*
X159004188Y-132620346D01*
X159100950Y-132620346D01*
X158447807Y-132112346D02*
X158544569Y-132112346D01*
X158592950Y-132136537D01*
X158617141Y-132160727D01*
X158665522Y-132233298D01*
X158689712Y-132330060D01*
X158689712Y-132523584D01*
X158665522Y-132571965D01*
X158641331Y-132596156D01*
X158592950Y-132620346D01*
X158496188Y-132620346D01*
X158447807Y-132596156D01*
X158423617Y-132571965D01*
X158399426Y-132523584D01*
X158399426Y-132402632D01*
X158423617Y-132354251D01*
X158447807Y-132330060D01*
X158496188Y-132305870D01*
X158592950Y-132305870D01*
X158641331Y-132330060D01*
X158665522Y-132354251D01*
X158689712Y-132402632D01*
G04 #@! TO.C,Q7*
X154924787Y-112371130D02*
X154900597Y-112322749D01*
X154852216Y-112274368D01*
X154779644Y-112201796D01*
X154755454Y-112153415D01*
X154755454Y-112105034D01*
X154876406Y-112129225D02*
X154852216Y-112080844D01*
X154803835Y-112032463D01*
X154707073Y-112008272D01*
X154537739Y-112008272D01*
X154440977Y-112032463D01*
X154392597Y-112080844D01*
X154368406Y-112129225D01*
X154368406Y-112225987D01*
X154392597Y-112274368D01*
X154440977Y-112322749D01*
X154537739Y-112346939D01*
X154707073Y-112346939D01*
X154803835Y-112322749D01*
X154852216Y-112274368D01*
X154876406Y-112225987D01*
X154876406Y-112129225D01*
X154368406Y-112516272D02*
X154368406Y-112854939D01*
X154876406Y-112637225D01*
G04 #@! TO.C,Q8*
X154088855Y-137342156D02*
X154064665Y-137293775D01*
X154016284Y-137245394D01*
X153943712Y-137172822D01*
X153919522Y-137124441D01*
X153919522Y-137076060D01*
X154040474Y-137100251D02*
X154016284Y-137051870D01*
X153967903Y-137003489D01*
X153871141Y-136979298D01*
X153701807Y-136979298D01*
X153605045Y-137003489D01*
X153556665Y-137051870D01*
X153532474Y-137100251D01*
X153532474Y-137197013D01*
X153556665Y-137245394D01*
X153605045Y-137293775D01*
X153701807Y-137317965D01*
X153871141Y-137317965D01*
X153967903Y-137293775D01*
X154016284Y-137245394D01*
X154040474Y-137197013D01*
X154040474Y-137100251D01*
X153750188Y-137608251D02*
X153725998Y-137559870D01*
X153701807Y-137535679D01*
X153653426Y-137511489D01*
X153629236Y-137511489D01*
X153580855Y-137535679D01*
X153556665Y-137559870D01*
X153532474Y-137608251D01*
X153532474Y-137705013D01*
X153556665Y-137753394D01*
X153580855Y-137777584D01*
X153629236Y-137801775D01*
X153653426Y-137801775D01*
X153701807Y-137777584D01*
X153725998Y-137753394D01*
X153750188Y-137705013D01*
X153750188Y-137608251D01*
X153774379Y-137559870D01*
X153798569Y-137535679D01*
X153846950Y-137511489D01*
X153943712Y-137511489D01*
X153992093Y-137535679D01*
X154016284Y-137559870D01*
X154040474Y-137608251D01*
X154040474Y-137705013D01*
X154016284Y-137753394D01*
X153992093Y-137777584D01*
X153943712Y-137801775D01*
X153846950Y-137801775D01*
X153798569Y-137777584D01*
X153774379Y-137753394D01*
X153750188Y-137705013D01*
G04 #@! TO.C,Q13*
X158893222Y-145730313D02*
X158941603Y-145706123D01*
X158989984Y-145657742D01*
X159062556Y-145585170D01*
X159110937Y-145560980D01*
X159159317Y-145560980D01*
X159135127Y-145681932D02*
X159183508Y-145657742D01*
X159231889Y-145609361D01*
X159256079Y-145512599D01*
X159256079Y-145343265D01*
X159231889Y-145246503D01*
X159183508Y-145198123D01*
X159135127Y-145173932D01*
X159038365Y-145173932D01*
X158989984Y-145198123D01*
X158941603Y-145246503D01*
X158917413Y-145343265D01*
X158917413Y-145512599D01*
X158941603Y-145609361D01*
X158989984Y-145657742D01*
X159038365Y-145681932D01*
X159135127Y-145681932D01*
X158433603Y-145681932D02*
X158723889Y-145681932D01*
X158578746Y-145681932D02*
X158578746Y-145173932D01*
X158627127Y-145246503D01*
X158675508Y-145294884D01*
X158723889Y-145319075D01*
X158264270Y-145173932D02*
X157949794Y-145173932D01*
X158119127Y-145367456D01*
X158046556Y-145367456D01*
X157998175Y-145391646D01*
X157973984Y-145415837D01*
X157949794Y-145464218D01*
X157949794Y-145585170D01*
X157973984Y-145633551D01*
X157998175Y-145657742D01*
X158046556Y-145681932D01*
X158191698Y-145681932D01*
X158240079Y-145657742D01*
X158264270Y-145633551D01*
G04 #@! TO.C,Q14*
X159500808Y-120053799D02*
X159549189Y-120029609D01*
X159597570Y-119981228D01*
X159670142Y-119908656D01*
X159718523Y-119884466D01*
X159766903Y-119884466D01*
X159742713Y-120005418D02*
X159791094Y-119981228D01*
X159839475Y-119932847D01*
X159863665Y-119836085D01*
X159863665Y-119666751D01*
X159839475Y-119569989D01*
X159791094Y-119521609D01*
X159742713Y-119497418D01*
X159645951Y-119497418D01*
X159597570Y-119521609D01*
X159549189Y-119569989D01*
X159524999Y-119666751D01*
X159524999Y-119836085D01*
X159549189Y-119932847D01*
X159597570Y-119981228D01*
X159645951Y-120005418D01*
X159742713Y-120005418D01*
X159041189Y-120005418D02*
X159331475Y-120005418D01*
X159186332Y-120005418D02*
X159186332Y-119497418D01*
X159234713Y-119569989D01*
X159283094Y-119618370D01*
X159331475Y-119642561D01*
X158605761Y-119666751D02*
X158605761Y-120005418D01*
X158726713Y-119473228D02*
X158847665Y-119836085D01*
X158533189Y-119836085D01*
G04 #@! TO.C,Q15*
X153881127Y-150161837D02*
X153856937Y-150113456D01*
X153808556Y-150065075D01*
X153735984Y-149992503D01*
X153711794Y-149944123D01*
X153711794Y-149895742D01*
X153832746Y-149919932D02*
X153808556Y-149871551D01*
X153760175Y-149823170D01*
X153663413Y-149798980D01*
X153494079Y-149798980D01*
X153397317Y-149823170D01*
X153348937Y-149871551D01*
X153324746Y-149919932D01*
X153324746Y-150016694D01*
X153348937Y-150065075D01*
X153397317Y-150113456D01*
X153494079Y-150137646D01*
X153663413Y-150137646D01*
X153760175Y-150113456D01*
X153808556Y-150065075D01*
X153832746Y-150016694D01*
X153832746Y-149919932D01*
X153832746Y-150621456D02*
X153832746Y-150331170D01*
X153832746Y-150476313D02*
X153324746Y-150476313D01*
X153397317Y-150427932D01*
X153445698Y-150379551D01*
X153469889Y-150331170D01*
X153324746Y-151081075D02*
X153324746Y-150839170D01*
X153566651Y-150814980D01*
X153542460Y-150839170D01*
X153518270Y-150887551D01*
X153518270Y-151008503D01*
X153542460Y-151056884D01*
X153566651Y-151081075D01*
X153615032Y-151105265D01*
X153735984Y-151105265D01*
X153784365Y-151081075D01*
X153808556Y-151056884D01*
X153832746Y-151008503D01*
X153832746Y-150887551D01*
X153808556Y-150839170D01*
X153784365Y-150814980D01*
G04 #@! TO.C,Q16*
X154488713Y-124485323D02*
X154464523Y-124436942D01*
X154416142Y-124388561D01*
X154343570Y-124315989D01*
X154319380Y-124267609D01*
X154319380Y-124219228D01*
X154440332Y-124243418D02*
X154416142Y-124195037D01*
X154367761Y-124146656D01*
X154270999Y-124122466D01*
X154101665Y-124122466D01*
X154004903Y-124146656D01*
X153956523Y-124195037D01*
X153932332Y-124243418D01*
X153932332Y-124340180D01*
X153956523Y-124388561D01*
X154004903Y-124436942D01*
X154101665Y-124461132D01*
X154270999Y-124461132D01*
X154367761Y-124436942D01*
X154416142Y-124388561D01*
X154440332Y-124340180D01*
X154440332Y-124243418D01*
X154440332Y-124944942D02*
X154440332Y-124654656D01*
X154440332Y-124799799D02*
X153932332Y-124799799D01*
X154004903Y-124751418D01*
X154053284Y-124703037D01*
X154077475Y-124654656D01*
X153932332Y-125380370D02*
X153932332Y-125283609D01*
X153956523Y-125235228D01*
X153980713Y-125211037D01*
X154053284Y-125162656D01*
X154150046Y-125138466D01*
X154343570Y-125138466D01*
X154391951Y-125162656D01*
X154416142Y-125186847D01*
X154440332Y-125235228D01*
X154440332Y-125331989D01*
X154416142Y-125380370D01*
X154391951Y-125404561D01*
X154343570Y-125428751D01*
X154222618Y-125428751D01*
X154174237Y-125404561D01*
X154150046Y-125380370D01*
X154125856Y-125331989D01*
X154125856Y-125235228D01*
X154150046Y-125186847D01*
X154174237Y-125162656D01*
X154222618Y-125138466D01*
G04 #@! TO.C,R7*
D12*
X115431806Y-83814972D02*
X115765140Y-83338782D01*
X116003235Y-83814972D02*
X116003235Y-82814972D01*
X115622282Y-82814972D01*
X115527044Y-82862592D01*
X115479425Y-82910211D01*
X115431806Y-83005449D01*
X115431806Y-83148306D01*
X115479425Y-83243544D01*
X115527044Y-83291163D01*
X115622282Y-83338782D01*
X116003235Y-83338782D01*
X115098473Y-82814972D02*
X114431806Y-82814972D01*
X114860378Y-83814972D01*
G04 #@! TO.C,R8*
X110431806Y-83814972D02*
X110765140Y-83338782D01*
X111003235Y-83814972D02*
X111003235Y-82814972D01*
X110622282Y-82814972D01*
X110527044Y-82862592D01*
X110479425Y-82910211D01*
X110431806Y-83005449D01*
X110431806Y-83148306D01*
X110479425Y-83243544D01*
X110527044Y-83291163D01*
X110622282Y-83338782D01*
X111003235Y-83338782D01*
X109860378Y-83243544D02*
X109955616Y-83195925D01*
X110003235Y-83148306D01*
X110050854Y-83053068D01*
X110050854Y-83005449D01*
X110003235Y-82910211D01*
X109955616Y-82862592D01*
X109860378Y-82814972D01*
X109669901Y-82814972D01*
X109574663Y-82862592D01*
X109527044Y-82910211D01*
X109479425Y-83005449D01*
X109479425Y-83053068D01*
X109527044Y-83148306D01*
X109574663Y-83195925D01*
X109669901Y-83243544D01*
X109860378Y-83243544D01*
X109955616Y-83291163D01*
X110003235Y-83338782D01*
X110050854Y-83434020D01*
X110050854Y-83624496D01*
X110003235Y-83719734D01*
X109955616Y-83767353D01*
X109860378Y-83814972D01*
X109669901Y-83814972D01*
X109574663Y-83767353D01*
X109527044Y-83719734D01*
X109479425Y-83624496D01*
X109479425Y-83434020D01*
X109527044Y-83338782D01*
X109574663Y-83291163D01*
X109669901Y-83243544D01*
G04 #@! TO.C,R9*
X133431806Y-88214972D02*
X133765140Y-87738782D01*
X134003235Y-88214972D02*
X134003235Y-87214972D01*
X133622282Y-87214972D01*
X133527044Y-87262592D01*
X133479425Y-87310211D01*
X133431806Y-87405449D01*
X133431806Y-87548306D01*
X133479425Y-87643544D01*
X133527044Y-87691163D01*
X133622282Y-87738782D01*
X134003235Y-87738782D01*
X132955616Y-88214972D02*
X132765140Y-88214972D01*
X132669901Y-88167353D01*
X132622282Y-88119734D01*
X132527044Y-87976877D01*
X132479425Y-87786401D01*
X132479425Y-87405449D01*
X132527044Y-87310211D01*
X132574663Y-87262592D01*
X132669901Y-87214972D01*
X132860378Y-87214972D01*
X132955616Y-87262592D01*
X133003235Y-87310211D01*
X133050854Y-87405449D01*
X133050854Y-87643544D01*
X133003235Y-87738782D01*
X132955616Y-87786401D01*
X132860378Y-87834020D01*
X132669901Y-87834020D01*
X132574663Y-87786401D01*
X132527044Y-87738782D01*
X132479425Y-87643544D01*
G04 #@! TO.C,R10*
X138907997Y-88214972D02*
X139241330Y-87738782D01*
X139479425Y-88214972D02*
X139479425Y-87214972D01*
X139098473Y-87214972D01*
X139003235Y-87262592D01*
X138955616Y-87310211D01*
X138907997Y-87405449D01*
X138907997Y-87548306D01*
X138955616Y-87643544D01*
X139003235Y-87691163D01*
X139098473Y-87738782D01*
X139479425Y-87738782D01*
X137955616Y-88214972D02*
X138527044Y-88214972D01*
X138241330Y-88214972D02*
X138241330Y-87214972D01*
X138336568Y-87357830D01*
X138431806Y-87453068D01*
X138527044Y-87500687D01*
X137336568Y-87214972D02*
X137241330Y-87214972D01*
X137146092Y-87262592D01*
X137098473Y-87310211D01*
X137050854Y-87405449D01*
X137003235Y-87595925D01*
X137003235Y-87834020D01*
X137050854Y-88024496D01*
X137098473Y-88119734D01*
X137146092Y-88167353D01*
X137241330Y-88214972D01*
X137336568Y-88214972D01*
X137431806Y-88167353D01*
X137479425Y-88119734D01*
X137527044Y-88024496D01*
X137574663Y-87834020D01*
X137574663Y-87595925D01*
X137527044Y-87405449D01*
X137479425Y-87310211D01*
X137431806Y-87262592D01*
X137336568Y-87214972D01*
G04 #@! TO.C,R11*
X115718728Y-94704465D02*
X116052061Y-94228275D01*
X116290156Y-94704465D02*
X116290156Y-93704465D01*
X115909204Y-93704465D01*
X115813966Y-93752085D01*
X115766347Y-93799704D01*
X115718728Y-93894942D01*
X115718728Y-94037799D01*
X115766347Y-94133037D01*
X115813966Y-94180656D01*
X115909204Y-94228275D01*
X116290156Y-94228275D01*
X114766347Y-94704465D02*
X115337775Y-94704465D01*
X115052061Y-94704465D02*
X115052061Y-93704465D01*
X115147299Y-93847323D01*
X115242537Y-93942561D01*
X115337775Y-93990180D01*
X113813966Y-94704465D02*
X114385394Y-94704465D01*
X114099680Y-94704465D02*
X114099680Y-93704465D01*
X114194918Y-93847323D01*
X114290156Y-93942561D01*
X114385394Y-93990180D01*
G04 #@! TO.C,R12*
X110718728Y-94704465D02*
X111052061Y-94228275D01*
X111290156Y-94704465D02*
X111290156Y-93704465D01*
X110909204Y-93704465D01*
X110813966Y-93752085D01*
X110766347Y-93799704D01*
X110718728Y-93894942D01*
X110718728Y-94037799D01*
X110766347Y-94133037D01*
X110813966Y-94180656D01*
X110909204Y-94228275D01*
X111290156Y-94228275D01*
X109766347Y-94704465D02*
X110337775Y-94704465D01*
X110052061Y-94704465D02*
X110052061Y-93704465D01*
X110147299Y-93847323D01*
X110242537Y-93942561D01*
X110337775Y-93990180D01*
X109385394Y-93799704D02*
X109337775Y-93752085D01*
X109242537Y-93704465D01*
X109004442Y-93704465D01*
X108909204Y-93752085D01*
X108861585Y-93799704D01*
X108813966Y-93894942D01*
X108813966Y-93990180D01*
X108861585Y-94133037D01*
X109433013Y-94704465D01*
X108813966Y-94704465D01*
G04 #@! TO.C,R13*
X133718728Y-99104465D02*
X134052061Y-98628275D01*
X134290156Y-99104465D02*
X134290156Y-98104465D01*
X133909204Y-98104465D01*
X133813966Y-98152085D01*
X133766347Y-98199704D01*
X133718728Y-98294942D01*
X133718728Y-98437799D01*
X133766347Y-98533037D01*
X133813966Y-98580656D01*
X133909204Y-98628275D01*
X134290156Y-98628275D01*
X132766347Y-99104465D02*
X133337775Y-99104465D01*
X133052061Y-99104465D02*
X133052061Y-98104465D01*
X133147299Y-98247323D01*
X133242537Y-98342561D01*
X133337775Y-98390180D01*
X132433013Y-98104465D02*
X131813966Y-98104465D01*
X132147299Y-98485418D01*
X132004442Y-98485418D01*
X131909204Y-98533037D01*
X131861585Y-98580656D01*
X131813966Y-98675894D01*
X131813966Y-98913989D01*
X131861585Y-99009227D01*
X131909204Y-99056846D01*
X132004442Y-99104465D01*
X132290156Y-99104465D01*
X132385394Y-99056846D01*
X132433013Y-99009227D01*
G04 #@! TO.C,R14*
X138718728Y-99104465D02*
X139052061Y-98628275D01*
X139290156Y-99104465D02*
X139290156Y-98104465D01*
X138909204Y-98104465D01*
X138813966Y-98152085D01*
X138766347Y-98199704D01*
X138718728Y-98294942D01*
X138718728Y-98437799D01*
X138766347Y-98533037D01*
X138813966Y-98580656D01*
X138909204Y-98628275D01*
X139290156Y-98628275D01*
X137766347Y-99104465D02*
X138337775Y-99104465D01*
X138052061Y-99104465D02*
X138052061Y-98104465D01*
X138147299Y-98247323D01*
X138242537Y-98342561D01*
X138337775Y-98390180D01*
X136909204Y-98437799D02*
X136909204Y-99104465D01*
X137147299Y-98056846D02*
X137385394Y-98771132D01*
X136766347Y-98771132D01*
G04 #@! TO.C,R23*
X155289454Y-103171891D02*
X155622787Y-102695701D01*
X155860882Y-103171891D02*
X155860882Y-102171891D01*
X155479930Y-102171891D01*
X155384692Y-102219511D01*
X155337073Y-102267130D01*
X155289454Y-102362368D01*
X155289454Y-102505225D01*
X155337073Y-102600463D01*
X155384692Y-102648082D01*
X155479930Y-102695701D01*
X155860882Y-102695701D01*
X154908501Y-102267130D02*
X154860882Y-102219511D01*
X154765644Y-102171891D01*
X154527549Y-102171891D01*
X154432311Y-102219511D01*
X154384692Y-102267130D01*
X154337073Y-102362368D01*
X154337073Y-102457606D01*
X154384692Y-102600463D01*
X154956120Y-103171891D01*
X154337073Y-103171891D01*
X154003739Y-102171891D02*
X153384692Y-102171891D01*
X153718025Y-102552844D01*
X153575168Y-102552844D01*
X153479930Y-102600463D01*
X153432311Y-102648082D01*
X153384692Y-102743320D01*
X153384692Y-102981415D01*
X153432311Y-103076653D01*
X153479930Y-103124272D01*
X153575168Y-103171891D01*
X153860882Y-103171891D01*
X153956120Y-103124272D01*
X154003739Y-103076653D01*
G04 #@! TO.C,R24*
X154453522Y-128142917D02*
X154786855Y-127666727D01*
X155024950Y-128142917D02*
X155024950Y-127142917D01*
X154643998Y-127142917D01*
X154548760Y-127190537D01*
X154501141Y-127238156D01*
X154453522Y-127333394D01*
X154453522Y-127476251D01*
X154501141Y-127571489D01*
X154548760Y-127619108D01*
X154643998Y-127666727D01*
X155024950Y-127666727D01*
X154072569Y-127238156D02*
X154024950Y-127190537D01*
X153929712Y-127142917D01*
X153691617Y-127142917D01*
X153596379Y-127190537D01*
X153548760Y-127238156D01*
X153501141Y-127333394D01*
X153501141Y-127428632D01*
X153548760Y-127571489D01*
X154120188Y-128142917D01*
X153501141Y-128142917D01*
X152643998Y-127476251D02*
X152643998Y-128142917D01*
X152882093Y-127095298D02*
X153120188Y-127809584D01*
X152501141Y-127809584D01*
G04 #@! TO.C,R25*
X161798977Y-112776653D02*
X161322787Y-112443320D01*
X161798977Y-112205225D02*
X160798977Y-112205225D01*
X160798977Y-112586177D01*
X160846597Y-112681415D01*
X160894216Y-112729034D01*
X160989454Y-112776653D01*
X161132311Y-112776653D01*
X161227549Y-112729034D01*
X161275168Y-112681415D01*
X161322787Y-112586177D01*
X161322787Y-112205225D01*
X160894216Y-113157606D02*
X160846597Y-113205225D01*
X160798977Y-113300463D01*
X160798977Y-113538558D01*
X160846597Y-113633796D01*
X160894216Y-113681415D01*
X160989454Y-113729034D01*
X161084692Y-113729034D01*
X161227549Y-113681415D01*
X161798977Y-113109987D01*
X161798977Y-113729034D01*
X160798977Y-114633796D02*
X160798977Y-114157606D01*
X161275168Y-114109987D01*
X161227549Y-114157606D01*
X161179930Y-114252844D01*
X161179930Y-114490939D01*
X161227549Y-114586177D01*
X161275168Y-114633796D01*
X161370406Y-114681415D01*
X161608501Y-114681415D01*
X161703739Y-114633796D01*
X161751358Y-114586177D01*
X161798977Y-114490939D01*
X161798977Y-114252844D01*
X161751358Y-114157606D01*
X161703739Y-114109987D01*
G04 #@! TO.C,R26*
X160963045Y-137747679D02*
X160486855Y-137414346D01*
X160963045Y-137176251D02*
X159963045Y-137176251D01*
X159963045Y-137557203D01*
X160010665Y-137652441D01*
X160058284Y-137700060D01*
X160153522Y-137747679D01*
X160296379Y-137747679D01*
X160391617Y-137700060D01*
X160439236Y-137652441D01*
X160486855Y-137557203D01*
X160486855Y-137176251D01*
X160058284Y-138128632D02*
X160010665Y-138176251D01*
X159963045Y-138271489D01*
X159963045Y-138509584D01*
X160010665Y-138604822D01*
X160058284Y-138652441D01*
X160153522Y-138700060D01*
X160248760Y-138700060D01*
X160391617Y-138652441D01*
X160963045Y-138081013D01*
X160963045Y-138700060D01*
X159963045Y-139557203D02*
X159963045Y-139366727D01*
X160010665Y-139271489D01*
X160058284Y-139223870D01*
X160201141Y-139128632D01*
X160391617Y-139081013D01*
X160772569Y-139081013D01*
X160867807Y-139128632D01*
X160915426Y-139176251D01*
X160963045Y-139271489D01*
X160963045Y-139461965D01*
X160915426Y-139557203D01*
X160867807Y-139604822D01*
X160772569Y-139652441D01*
X160534474Y-139652441D01*
X160439236Y-139604822D01*
X160391617Y-139557203D01*
X160343998Y-139461965D01*
X160343998Y-139271489D01*
X160391617Y-139176251D01*
X160439236Y-139128632D01*
X160534474Y-139081013D01*
G04 #@! TO.C,R31*
X154245794Y-141204503D02*
X154579127Y-140728313D01*
X154817222Y-141204503D02*
X154817222Y-140204503D01*
X154436270Y-140204503D01*
X154341032Y-140252123D01*
X154293413Y-140299742D01*
X154245794Y-140394980D01*
X154245794Y-140537837D01*
X154293413Y-140633075D01*
X154341032Y-140680694D01*
X154436270Y-140728313D01*
X154817222Y-140728313D01*
X153912460Y-140204503D02*
X153293413Y-140204503D01*
X153626746Y-140585456D01*
X153483889Y-140585456D01*
X153388651Y-140633075D01*
X153341032Y-140680694D01*
X153293413Y-140775932D01*
X153293413Y-141014027D01*
X153341032Y-141109265D01*
X153388651Y-141156884D01*
X153483889Y-141204503D01*
X153769603Y-141204503D01*
X153864841Y-141156884D01*
X153912460Y-141109265D01*
X152341032Y-141204503D02*
X152912460Y-141204503D01*
X152626746Y-141204503D02*
X152626746Y-140204503D01*
X152721984Y-140347361D01*
X152817222Y-140442599D01*
X152912460Y-140490218D01*
G04 #@! TO.C,R32*
X154853380Y-115527989D02*
X155186713Y-115051799D01*
X155424808Y-115527989D02*
X155424808Y-114527989D01*
X155043856Y-114527989D01*
X154948618Y-114575609D01*
X154900999Y-114623228D01*
X154853380Y-114718466D01*
X154853380Y-114861323D01*
X154900999Y-114956561D01*
X154948618Y-115004180D01*
X155043856Y-115051799D01*
X155424808Y-115051799D01*
X154520046Y-114527989D02*
X153900999Y-114527989D01*
X154234332Y-114908942D01*
X154091475Y-114908942D01*
X153996237Y-114956561D01*
X153948618Y-115004180D01*
X153900999Y-115099418D01*
X153900999Y-115337513D01*
X153948618Y-115432751D01*
X153996237Y-115480370D01*
X154091475Y-115527989D01*
X154377189Y-115527989D01*
X154472427Y-115480370D01*
X154520046Y-115432751D01*
X153520046Y-114623228D02*
X153472427Y-114575609D01*
X153377189Y-114527989D01*
X153139094Y-114527989D01*
X153043856Y-114575609D01*
X152996237Y-114623228D01*
X152948618Y-114718466D01*
X152948618Y-114813704D01*
X152996237Y-114956561D01*
X153567665Y-115527989D01*
X152948618Y-115527989D01*
G04 #@! TO.C,R33*
X160755317Y-150809265D02*
X160279127Y-150475932D01*
X160755317Y-150237837D02*
X159755317Y-150237837D01*
X159755317Y-150618789D01*
X159802937Y-150714027D01*
X159850556Y-150761646D01*
X159945794Y-150809265D01*
X160088651Y-150809265D01*
X160183889Y-150761646D01*
X160231508Y-150714027D01*
X160279127Y-150618789D01*
X160279127Y-150237837D01*
X159755317Y-151142599D02*
X159755317Y-151761646D01*
X160136270Y-151428313D01*
X160136270Y-151571170D01*
X160183889Y-151666408D01*
X160231508Y-151714027D01*
X160326746Y-151761646D01*
X160564841Y-151761646D01*
X160660079Y-151714027D01*
X160707698Y-151666408D01*
X160755317Y-151571170D01*
X160755317Y-151285456D01*
X160707698Y-151190218D01*
X160660079Y-151142599D01*
X159755317Y-152094980D02*
X159755317Y-152714027D01*
X160136270Y-152380694D01*
X160136270Y-152523551D01*
X160183889Y-152618789D01*
X160231508Y-152666408D01*
X160326746Y-152714027D01*
X160564841Y-152714027D01*
X160660079Y-152666408D01*
X160707698Y-152618789D01*
X160755317Y-152523551D01*
X160755317Y-152237837D01*
X160707698Y-152142599D01*
X160660079Y-152094980D01*
G04 #@! TO.C,R34*
X161362903Y-125132751D02*
X160886713Y-124799418D01*
X161362903Y-124561323D02*
X160362903Y-124561323D01*
X160362903Y-124942275D01*
X160410523Y-125037513D01*
X160458142Y-125085132D01*
X160553380Y-125132751D01*
X160696237Y-125132751D01*
X160791475Y-125085132D01*
X160839094Y-125037513D01*
X160886713Y-124942275D01*
X160886713Y-124561323D01*
X160362903Y-125466085D02*
X160362903Y-126085132D01*
X160743856Y-125751799D01*
X160743856Y-125894656D01*
X160791475Y-125989894D01*
X160839094Y-126037513D01*
X160934332Y-126085132D01*
X161172427Y-126085132D01*
X161267665Y-126037513D01*
X161315284Y-125989894D01*
X161362903Y-125894656D01*
X161362903Y-125608942D01*
X161315284Y-125513704D01*
X161267665Y-125466085D01*
X160696237Y-126942275D02*
X161362903Y-126942275D01*
X160315284Y-126704180D02*
X161029570Y-126466085D01*
X161029570Y-127085132D01*
G04 #@! TO.C,U3*
X124812759Y-83824496D02*
X124003235Y-83824496D01*
X123907997Y-83776877D01*
X123860378Y-83729258D01*
X123812759Y-83634020D01*
X123812759Y-83443544D01*
X123860378Y-83348306D01*
X123907997Y-83300687D01*
X124003235Y-83253068D01*
X124812759Y-83253068D01*
X124812759Y-82872115D02*
X124812759Y-82253068D01*
X124431806Y-82586401D01*
X124431806Y-82443544D01*
X124384187Y-82348306D01*
X124336568Y-82300687D01*
X124241330Y-82253068D01*
X124003235Y-82253068D01*
X123907997Y-82300687D01*
X123860378Y-82348306D01*
X123812759Y-82443544D01*
X123812759Y-82729258D01*
X123860378Y-82824496D01*
X123907997Y-82872115D01*
G04 #@! TO.C,U4*
X124623490Y-94713989D02*
X123813966Y-94713989D01*
X123718728Y-94666370D01*
X123671109Y-94618751D01*
X123623490Y-94523513D01*
X123623490Y-94333037D01*
X123671109Y-94237799D01*
X123718728Y-94190180D01*
X123813966Y-94142561D01*
X124623490Y-94142561D01*
X124290156Y-93237799D02*
X123623490Y-93237799D01*
X124671109Y-93475894D02*
X123956823Y-93713989D01*
X123956823Y-93094942D01*
G04 #@! TO.C,Q19*
D13*
X154924787Y-108129225D02*
X154900597Y-108080844D01*
X154852216Y-108032463D01*
X154779644Y-107959891D01*
X154755454Y-107911511D01*
X154755454Y-107863130D01*
X154876406Y-107887320D02*
X154852216Y-107838939D01*
X154803835Y-107790558D01*
X154707073Y-107766368D01*
X154537739Y-107766368D01*
X154440977Y-107790558D01*
X154392597Y-107838939D01*
X154368406Y-107887320D01*
X154368406Y-107984082D01*
X154392597Y-108032463D01*
X154440977Y-108080844D01*
X154537739Y-108105034D01*
X154707073Y-108105034D01*
X154803835Y-108080844D01*
X154852216Y-108032463D01*
X154876406Y-107984082D01*
X154876406Y-107887320D01*
X154876406Y-108588844D02*
X154876406Y-108298558D01*
X154876406Y-108443701D02*
X154368406Y-108443701D01*
X154440977Y-108395320D01*
X154489358Y-108346939D01*
X154513549Y-108298558D01*
X154876406Y-108830749D02*
X154876406Y-108927511D01*
X154852216Y-108975891D01*
X154828025Y-109000082D01*
X154755454Y-109048463D01*
X154658692Y-109072653D01*
X154465168Y-109072653D01*
X154416787Y-109048463D01*
X154392597Y-109024272D01*
X154368406Y-108975891D01*
X154368406Y-108879130D01*
X154392597Y-108830749D01*
X154416787Y-108806558D01*
X154465168Y-108782368D01*
X154586120Y-108782368D01*
X154634501Y-108806558D01*
X154658692Y-108830749D01*
X154682882Y-108879130D01*
X154682882Y-108975891D01*
X154658692Y-109024272D01*
X154634501Y-109048463D01*
X154586120Y-109072653D01*
G04 #@! TO.C,Q20*
X154088855Y-133100251D02*
X154064665Y-133051870D01*
X154016284Y-133003489D01*
X153943712Y-132930917D01*
X153919522Y-132882537D01*
X153919522Y-132834156D01*
X154040474Y-132858346D02*
X154016284Y-132809965D01*
X153967903Y-132761584D01*
X153871141Y-132737394D01*
X153701807Y-132737394D01*
X153605045Y-132761584D01*
X153556665Y-132809965D01*
X153532474Y-132858346D01*
X153532474Y-132955108D01*
X153556665Y-133003489D01*
X153605045Y-133051870D01*
X153701807Y-133076060D01*
X153871141Y-133076060D01*
X153967903Y-133051870D01*
X154016284Y-133003489D01*
X154040474Y-132955108D01*
X154040474Y-132858346D01*
X153580855Y-133269584D02*
X153556665Y-133293775D01*
X153532474Y-133342156D01*
X153532474Y-133463108D01*
X153556665Y-133511489D01*
X153580855Y-133535679D01*
X153629236Y-133559870D01*
X153677617Y-133559870D01*
X153750188Y-133535679D01*
X154040474Y-133245394D01*
X154040474Y-133559870D01*
X153532474Y-133874346D02*
X153532474Y-133922727D01*
X153556665Y-133971108D01*
X153580855Y-133995298D01*
X153629236Y-134019489D01*
X153725998Y-134043679D01*
X153846950Y-134043679D01*
X153943712Y-134019489D01*
X153992093Y-133995298D01*
X154016284Y-133971108D01*
X154040474Y-133922727D01*
X154040474Y-133874346D01*
X154016284Y-133825965D01*
X153992093Y-133801775D01*
X153943712Y-133777584D01*
X153846950Y-133753394D01*
X153725998Y-133753394D01*
X153629236Y-133777584D01*
X153580855Y-133801775D01*
X153556665Y-133825965D01*
X153532474Y-133874346D01*
G04 #@! TO.C,Q23*
X153881127Y-146161837D02*
X153856937Y-146113456D01*
X153808556Y-146065075D01*
X153735984Y-145992503D01*
X153711794Y-145944123D01*
X153711794Y-145895742D01*
X153832746Y-145919932D02*
X153808556Y-145871551D01*
X153760175Y-145823170D01*
X153663413Y-145798980D01*
X153494079Y-145798980D01*
X153397317Y-145823170D01*
X153348937Y-145871551D01*
X153324746Y-145919932D01*
X153324746Y-146016694D01*
X153348937Y-146065075D01*
X153397317Y-146113456D01*
X153494079Y-146137646D01*
X153663413Y-146137646D01*
X153760175Y-146113456D01*
X153808556Y-146065075D01*
X153832746Y-146016694D01*
X153832746Y-145919932D01*
X153373127Y-146331170D02*
X153348937Y-146355361D01*
X153324746Y-146403742D01*
X153324746Y-146524694D01*
X153348937Y-146573075D01*
X153373127Y-146597265D01*
X153421508Y-146621456D01*
X153469889Y-146621456D01*
X153542460Y-146597265D01*
X153832746Y-146306980D01*
X153832746Y-146621456D01*
X153324746Y-146790789D02*
X153324746Y-147105265D01*
X153518270Y-146935932D01*
X153518270Y-147008503D01*
X153542460Y-147056884D01*
X153566651Y-147081075D01*
X153615032Y-147105265D01*
X153735984Y-147105265D01*
X153784365Y-147081075D01*
X153808556Y-147056884D01*
X153832746Y-147008503D01*
X153832746Y-146863361D01*
X153808556Y-146814980D01*
X153784365Y-146790789D01*
G04 #@! TO.C,Q24*
X154488713Y-120485323D02*
X154464523Y-120436942D01*
X154416142Y-120388561D01*
X154343570Y-120315989D01*
X154319380Y-120267609D01*
X154319380Y-120219228D01*
X154440332Y-120243418D02*
X154416142Y-120195037D01*
X154367761Y-120146656D01*
X154270999Y-120122466D01*
X154101665Y-120122466D01*
X154004903Y-120146656D01*
X153956523Y-120195037D01*
X153932332Y-120243418D01*
X153932332Y-120340180D01*
X153956523Y-120388561D01*
X154004903Y-120436942D01*
X154101665Y-120461132D01*
X154270999Y-120461132D01*
X154367761Y-120436942D01*
X154416142Y-120388561D01*
X154440332Y-120340180D01*
X154440332Y-120243418D01*
X153980713Y-120654656D02*
X153956523Y-120678847D01*
X153932332Y-120727228D01*
X153932332Y-120848180D01*
X153956523Y-120896561D01*
X153980713Y-120920751D01*
X154029094Y-120944942D01*
X154077475Y-120944942D01*
X154150046Y-120920751D01*
X154440332Y-120630466D01*
X154440332Y-120944942D01*
X154101665Y-121380370D02*
X154440332Y-121380370D01*
X153908142Y-121259418D02*
X154270999Y-121138466D01*
X154270999Y-121452942D01*
G04 #@! TD*
M02*
