M48
;DRILL file {KiCad (5.0.2)-1} date 15-Feb-19 3:39:05 PM
;FORMAT={-:-/ absolute / metric / decimal}
FMAT,2
METRIC,TZ
T1C0.300
T2C0.400
T3C0.500
T4C0.900
T5C0.950
T6C1.300
T7C3.300
T8C0.900
%
G90
G05
T1
X90.95Y-78.75
X91.35Y-91.9
X91.7Y-113.75
X92.2Y-127.3
X92.2Y-135.2
X92.3Y-99.35
X92.9Y-60.9
X92.9Y-146.9
X93.25Y-130.4
X93.9Y-57.9
X93.9Y-63.9
X93.9Y-152.9
X94.05Y-109.8
X94.45Y-122.55
X94.65Y-81.2
X94.65Y-118.05
X95.6Y-83.8
X97.65Y-110.15
X99.4Y-102.9
X99.9Y-59.9
X99.9Y-149.9
X99.9Y-152.9
X100.892Y-103.464
X101.4Y-101.4
X101.9Y-142.9
X102.5Y-103.65
X103.35Y-103.65
X103.4Y-102.9
X103.5Y-98.75
X103.5Y-142.5
X103.9Y-106.4
X103.9Y-111.4
X103.9Y-116.4
X103.9Y-147.9
X104.Y-65.8
X104.2Y-79.6
X104.9Y-78.3
X105.15Y-139.9
X105.25Y-66.55
X105.4Y-145.15
X105.65Y-144.15
X105.9Y-124.9
X106.624Y-77.487
X106.7Y-98.55
X106.85Y-71.3
X106.9Y-99.4
X106.95Y-67.35
X107.Y-73.65
X107.15Y-142.9
X107.9Y-127.9
X107.9Y-134.9
X108.15Y-94.6
X108.65Y-145.9
X108.726Y-95.952
X108.826Y-97.952
X108.827Y-78.841
X108.9Y-92.9
X108.9Y-143.9
X108.9Y-152.9
X109.Y-72.6
X109.9Y-95.9
X109.9Y-97.9
X110.2Y-79.7
X110.4Y-145.4
X110.5Y-76.35
X110.9Y-93.9
X111.1Y-73.
X111.9Y-122.9
X112.15Y-79.75
X112.5Y-94.
X113.9Y-61.9
X113.9Y-78.9
X113.9Y-87.9
X113.9Y-89.9
X113.9Y-142.9
X114.4Y-102.4
X114.65Y-99.4
X114.9Y-78.9
X115.9Y-123.9
X115.9Y-135.9
X116.5Y-87.
X116.9Y-99.15
X117.5Y-87.
X117.9Y-58.9
X117.9Y-151.9
X118.05Y-66.85
X118.25Y-85.9
X118.9Y-61.9
X118.954Y-67.702
X119.9Y-122.9
X120.Y-89.5
X120.5Y-86.
X120.9Y-78.9
X120.9Y-86.9
X120.9Y-89.9
X120.9Y-97.952
X120.9Y-98.9
X121.5Y-90.5
X121.9Y-78.9
X121.9Y-88.4
X122.25Y-60.
X122.826Y-97.952
X122.9Y-79.9
X122.9Y-82.9
X122.9Y-84.4
X123.015Y-87.063
X123.15Y-94.65
X123.174Y-96.132
X123.45Y-92.05
X123.45Y-92.75
X123.9Y-128.9
X124.15Y-75.4
X124.65Y-88.15
X124.65Y-94.4
X124.65Y-96.15
X124.666Y-99.15
X124.75Y-60.
X125.9Y-124.9
X126.15Y-78.65
X126.65Y-79.15
X126.65Y-90.9
X126.9Y-128.9
X127.9Y-56.9
X127.9Y-62.9
X127.9Y-90.9
X127.9Y-124.9
X128.Y-98.7
X128.25Y-96.75
X128.4Y-87.9
X128.4Y-102.9
X128.9Y-61.9
X128.9Y-85.9
X129.15Y-87.4
X129.758Y-92.789
X129.9Y-58.9
X129.9Y-78.9
X129.9Y-122.9
X130.15Y-75.4
X130.75Y-93.4
X130.9Y-150.9
X130.97Y-99.146
X131.4Y-63.9
X131.9Y-89.15
X131.9Y-95.4
X132.05Y-98.513
X132.15Y-88.15
X132.4Y-94.4
X132.7Y-98.513
X133.4Y-59.4
X133.5Y-98.513
X133.7Y-70.9
X133.9Y-61.9
X133.9Y-78.9
X134.Y-102.
X134.15Y-87.65
X134.35Y-70.35
X134.4Y-94.4
X134.9Y-132.9
X135.4Y-87.9
X135.65Y-90.65
X135.9Y-123.9
X136.65Y-63.75
X136.9Y-71.9
X137.4Y-90.75
X137.55Y-60.75
X137.8Y-92.5
X137.9Y-56.9
X137.9Y-144.9
X138.15Y-93.2
X138.35Y-87.85
X138.6Y-64.75
X138.65Y-59.
X138.7Y-92.7
X139.15Y-60.4
X139.15Y-87.4
X139.4Y-82.65
X139.45Y-64.7
X139.493Y-75.102
X139.8Y-91.258
X139.9Y-81.9
X140.5Y-111.
X140.5Y-113.5
X140.6Y-77.85
X140.705Y-94.55
X140.9Y-60.4
X140.9Y-96.9
X140.9Y-123.9
X141.15Y-87.65
X141.15Y-88.65
X141.4Y-95.4
X141.5Y-77.85
X141.5Y-91.9
X141.583Y-99.933
X141.65Y-101.
X141.85Y-92.9
X141.9Y-69.9
X141.9Y-95.9
X141.9Y-103.9
X142.118Y-96.808
X142.15Y-101.9
X142.4Y-101.
X142.5Y-92.25
X142.595Y-98.485
X142.6Y-93.75
X142.602Y-97.341
X142.704Y-139.4
X142.9Y-75.9
X142.9Y-78.9
X143.05Y-101.
X143.9Y-79.9
X143.998Y-96.002
X144.25Y-139.4
X144.8Y-101.25
X144.9Y-57.9
X144.9Y-62.9
X146.9Y-87.15
X146.9Y-92.4
X146.9Y-111.4
X147.15Y-74.9
X147.15Y-77.15
X147.15Y-82.15
X147.9Y-66.9
X147.9Y-142.9
X148.9Y-152.9
X149.9Y-126.9
X149.9Y-136.9
X149.9Y-143.9
X150.9Y-57.9
X150.9Y-113.9
X150.9Y-116.9
X150.9Y-122.9
X150.9Y-127.9
X150.9Y-141.9
X151.1Y-108.65
X151.1Y-111.45
X151.645Y-105.7
X151.9Y-70.9
X151.9Y-96.9
X151.9Y-114.9
X152.9Y-63.9
X152.9Y-100.9
X152.9Y-101.9
X152.9Y-102.9
X153.9Y-98.9
X153.9Y-121.9
X153.9Y-148.4
X154.4Y-109.4
X154.4Y-122.4
X154.6Y-135.25
X154.7Y-153.9
X154.8Y-76.25
X154.9Y-94.9
X154.9Y-127.9
X154.972Y-147.402
X155.179Y-134.341
X155.3Y-86.65
X155.5Y-153.9
X155.55Y-106.2
X155.579Y-121.726
X155.9Y-100.9
X155.9Y-126.9
X155.9Y-139.9
X156.25Y-153.9
X156.4Y-147.9
X156.631Y-133.95
X156.631Y-146.95
X156.807Y-121.132
X156.9Y-134.9
X157.151Y-108.329
X157.151Y-113.312
X157.7Y-104.9
X157.9Y-96.9
X157.9Y-109.4
X157.9Y-138.83
X158.1Y-90.55
X158.142Y-101.209
X158.15Y-126.065
X158.286Y-135.094
X158.3Y-81.15
X158.4Y-69.9
X158.4Y-135.65
X158.65Y-143.15
X158.75Y-103.2
X158.9Y-57.9
X158.9Y-104.4
X159.342Y-101.911
X159.35Y-129.
X159.35Y-142.
X159.4Y-113.4
X159.526Y-116.182
X159.553Y-144.083
X159.761Y-131.022
X159.9Y-63.9
X159.9Y-94.9
X159.9Y-140.65
X160.166Y-103.379
X160.4Y-147.9
X160.4Y-151.4
X160.597Y-106.051
X160.65Y-127.9
X160.65Y-129.65
X160.8Y-110.3
X160.9Y-99.9
X160.924Y-109.151
T2
X90.75Y-117.35
X90.95Y-142.65
X91.1Y-119.4
X91.25Y-120.8
X91.75Y-140.7
X93.45Y-141.35
X95.2Y-121.7
X96.8Y-86.1
X106.5Y-86.
X108.75Y-121.977
X109.55Y-79.
X109.75Y-121.8
X110.1Y-99.073
X113.15Y-99.1
X118.5Y-92.35
X119.1Y-98.2
X119.85Y-91.1
X122.879Y-95.453
T3
X95.95Y-86.9
X96.6Y-87.55
X101.3Y-67.425
X105.45Y-76.95
X108.5Y-79.8
X114.5Y-80.5
X117.15Y-80.5
X120.4Y-80.1
X122.65Y-124.9
X123.05Y-65.95
X123.3Y-124.25
X124.35Y-65.95
X125.515Y-87.063
X125.7Y-65.95
X129.6Y-57.
X131.1Y-57.
X132.7Y-57.
X135.25Y-65.
X136.8Y-65.
X137.573Y-64.227
T4
X85.4Y-144.026
X85.4Y-97.103
X85.4Y-60.607
X137.94Y-117.16
X85.4Y-68.427
X85.4Y-78.855
X85.4Y-94.496
X85.4Y-104.923
X137.94Y-114.62
X85.4Y-71.034
X85.4Y-141.419
X85.4Y-91.889
X85.4Y-102.316
X85.4Y-81.462
X137.94Y-109.54
X85.4Y-65.821
X85.4Y-128.385
X85.4Y-146.633
X85.4Y-84.068
X85.4Y-89.282
X85.4Y-123.171
X137.94Y-104.46
X85.4Y-138.812
X85.4Y-115.351
X85.4Y-130.992
X85.4Y-76.248
X85.4Y-58.
X85.4Y-120.564
X85.4Y-112.744
X137.94Y-112.08
X85.4Y-149.239
X85.4Y-151.846
X85.4Y-107.53
X85.4Y-86.675
X85.4Y-110.137
X137.94Y-107.
X85.4Y-63.214
X85.4Y-133.598
X85.4Y-136.205
X85.4Y-99.709
X85.4Y-125.778
X85.4Y-117.957
X137.94Y-119.7
X85.4Y-73.641
T5
X100.Y-105.08
X100.Y-107.62
X100.Y-110.16
X100.Y-112.7
X100.Y-115.24
X100.Y-117.78
X100.Y-120.32
X100.Y-122.86
X100.Y-125.4
X100.Y-127.94
X100.Y-130.48
X100.Y-133.02
X100.Y-135.56
X100.Y-138.1
X100.Y-140.64
X102.54Y-105.08
X102.54Y-107.62
X102.54Y-110.16
X102.54Y-112.7
X102.54Y-115.24
X102.54Y-117.78
X102.54Y-120.32
X102.54Y-122.86
X102.54Y-125.4
X102.54Y-127.94
X102.54Y-130.48
X102.54Y-133.02
X102.54Y-135.56
X102.54Y-138.1
X102.54Y-140.64
X100.Y-82.22
X100.Y-84.76
X100.Y-87.3
X100.Y-89.84
X100.Y-92.38
X100.Y-94.92
X100.Y-97.46
X100.Y-100.
X102.54Y-82.22
X102.54Y-84.76
X102.54Y-87.3
X102.54Y-89.84
X102.54Y-92.38
X102.54Y-94.92
X102.54Y-97.46
X102.54Y-100.
X145.72Y-100.
X145.72Y-102.54
X145.72Y-105.08
X145.72Y-107.62
X145.72Y-110.16
X145.72Y-112.7
X145.72Y-115.24
X145.72Y-117.78
X145.72Y-120.32
X145.72Y-122.86
X145.72Y-125.4
X145.72Y-127.94
X145.72Y-130.48
X145.72Y-133.02
X145.72Y-135.56
X145.72Y-138.1
X145.72Y-140.64
X148.26Y-100.
X148.26Y-102.54
X148.26Y-105.08
X148.26Y-107.62
X148.26Y-110.16
X148.26Y-112.7
X148.26Y-115.24
X148.26Y-117.78
X148.26Y-120.32
X148.26Y-122.86
X148.26Y-125.4
X148.26Y-127.94
X148.26Y-130.48
X148.26Y-133.02
X148.26Y-135.56
X148.26Y-138.1
X148.26Y-140.64
X145.72Y-73.34
X145.72Y-75.88
X145.72Y-78.42
X145.72Y-80.96
X145.72Y-83.5
X145.72Y-86.04
X145.72Y-88.58
X145.72Y-91.12
X145.72Y-93.66
X145.72Y-96.2
X148.26Y-73.34
X148.26Y-75.88
X148.26Y-78.42
X148.26Y-80.96
X148.26Y-83.5
X148.26Y-86.04
X148.26Y-88.58
X148.26Y-91.12
X148.26Y-93.66
X148.26Y-96.2
T6
X109.Y-69.
X109.Y-77.
X110.5Y-71.5
X110.5Y-74.5
X112.Y-69.
X112.Y-77.
X113.5Y-71.5
X113.5Y-74.5
X115.Y-69.
X115.Y-77.
X116.5Y-71.5
X116.5Y-74.5
X118.Y-69.
X118.Y-77.
X119.5Y-71.5
X119.5Y-74.5
X121.Y-69.
X121.Y-77.
X122.5Y-71.5
X122.5Y-74.5
X124.Y-69.
X124.Y-77.
X125.5Y-71.5
X125.5Y-74.5
X127.Y-69.
X127.Y-77.
X128.5Y-71.5
X128.5Y-74.5
X130.Y-69.
X130.Y-77.
X131.5Y-71.5
X131.5Y-74.5
X133.Y-69.
X133.Y-77.
X114.Y-129.
X136.4Y-129.
T7
X101.75Y-62.5
X140.25Y-62.5
T8
X65.08Y-107.53
X67.62Y-107.53
X70.16Y-107.53
X72.7Y-107.53
X75.24Y-107.53
X77.78Y-107.53
X80.32Y-107.53
X82.86Y-107.53
X65.08Y-86.675
X67.62Y-86.675
X70.16Y-86.675
X72.7Y-86.675
X75.24Y-86.675
X77.78Y-86.675
X80.32Y-86.675
X82.86Y-86.675
X65.08Y-110.137
X67.62Y-110.137
X70.16Y-110.137
X72.7Y-110.137
X75.24Y-110.137
X77.78Y-110.137
X80.32Y-110.137
X82.86Y-110.137
X110.Y-107.
X112.54Y-107.
X115.08Y-107.
X117.62Y-107.
X120.16Y-107.
X122.7Y-107.
X125.24Y-107.
X127.78Y-107.
X130.32Y-107.
X132.86Y-107.
X135.4Y-107.
X65.08Y-63.214
X67.62Y-63.214
X70.16Y-63.214
X72.7Y-63.214
X75.24Y-63.214
X77.78Y-63.214
X80.32Y-63.214
X82.86Y-63.214
X65.08Y-133.598
X67.62Y-133.598
X70.16Y-133.598
X72.7Y-133.598
X75.24Y-133.598
X77.78Y-133.598
X80.32Y-133.598
X82.86Y-133.598
X65.08Y-136.205
X67.62Y-136.205
X70.16Y-136.205
X72.7Y-136.205
X75.24Y-136.205
X77.78Y-136.205
X80.32Y-136.205
X82.86Y-136.205
X65.08Y-99.709
X67.62Y-99.709
X70.16Y-99.709
X72.7Y-99.709
X75.24Y-99.709
X77.78Y-99.709
X80.32Y-99.709
X82.86Y-99.709
X65.08Y-125.778
X67.62Y-125.778
X70.16Y-125.778
X72.7Y-125.778
X75.24Y-125.778
X77.78Y-125.778
X80.32Y-125.778
X82.86Y-125.778
X65.08Y-117.957
X67.62Y-117.957
X70.16Y-117.957
X72.7Y-117.957
X75.24Y-117.957
X77.78Y-117.957
X80.32Y-117.957
X82.86Y-117.957
X110.Y-119.7
X112.54Y-119.7
X115.08Y-119.7
X117.62Y-119.7
X120.16Y-119.7
X122.7Y-119.7
X125.24Y-119.7
X127.78Y-119.7
X130.32Y-119.7
X132.86Y-119.7
X135.4Y-119.7
X65.08Y-73.641
X67.62Y-73.641
X70.16Y-73.641
X72.7Y-73.641
X75.24Y-73.641
X77.78Y-73.641
X80.32Y-73.641
X82.86Y-73.641
X65.08Y-144.026
X67.62Y-144.026
X70.16Y-144.026
X72.7Y-144.026
X75.24Y-144.026
X77.78Y-144.026
X80.32Y-144.026
X82.86Y-144.026
X65.08Y-97.103
X67.62Y-97.103
X70.16Y-97.103
X72.7Y-97.103
X75.24Y-97.103
X77.78Y-97.103
X80.32Y-97.103
X82.86Y-97.103
X65.08Y-60.607
X67.62Y-60.607
X70.16Y-60.607
X72.7Y-60.607
X75.24Y-60.607
X77.78Y-60.607
X80.32Y-60.607
X82.86Y-60.607
X110.Y-117.16
X112.54Y-117.16
X115.08Y-117.16
X117.62Y-117.16
X120.16Y-117.16
X122.7Y-117.16
X125.24Y-117.16
X127.78Y-117.16
X130.32Y-117.16
X132.86Y-117.16
X135.4Y-117.16
X65.08Y-68.427
X67.62Y-68.427
X70.16Y-68.427
X72.7Y-68.427
X75.24Y-68.427
X77.78Y-68.427
X80.32Y-68.427
X82.86Y-68.427
X65.08Y-78.855
X67.62Y-78.855
X70.16Y-78.855
X72.7Y-78.855
X75.24Y-78.855
X77.78Y-78.855
X80.32Y-78.855
X82.86Y-78.855
X65.08Y-94.496
X67.62Y-94.496
X70.16Y-94.496
X72.7Y-94.496
X75.24Y-94.496
X77.78Y-94.496
X80.32Y-94.496
X82.86Y-94.496
X65.08Y-104.923
X67.62Y-104.923
X70.16Y-104.923
X72.7Y-104.923
X75.24Y-104.923
X77.78Y-104.923
X80.32Y-104.923
X82.86Y-104.923
X110.Y-114.62
X112.54Y-114.62
X115.08Y-114.62
X117.62Y-114.62
X120.16Y-114.62
X122.7Y-114.62
X125.24Y-114.62
X127.78Y-114.62
X130.32Y-114.62
X132.86Y-114.62
X135.4Y-114.62
X65.08Y-71.034
X67.62Y-71.034
X70.16Y-71.034
X72.7Y-71.034
X75.24Y-71.034
X77.78Y-71.034
X80.32Y-71.034
X82.86Y-71.034
X65.08Y-141.419
X67.62Y-141.419
X70.16Y-141.419
X72.7Y-141.419
X75.24Y-141.419
X77.78Y-141.419
X80.32Y-141.419
X82.86Y-141.419
X65.08Y-91.889
X67.62Y-91.889
X70.16Y-91.889
X72.7Y-91.889
X75.24Y-91.889
X77.78Y-91.889
X80.32Y-91.889
X82.86Y-91.889
X65.08Y-102.316
X67.62Y-102.316
X70.16Y-102.316
X72.7Y-102.316
X75.24Y-102.316
X77.78Y-102.316
X80.32Y-102.316
X82.86Y-102.316
X65.08Y-81.462
X67.62Y-81.462
X70.16Y-81.462
X72.7Y-81.462
X75.24Y-81.462
X77.78Y-81.462
X80.32Y-81.462
X82.86Y-81.462
X110.Y-109.54
X112.54Y-109.54
X115.08Y-109.54
X117.62Y-109.54
X120.16Y-109.54
X122.7Y-109.54
X125.24Y-109.54
X127.78Y-109.54
X130.32Y-109.54
X132.86Y-109.54
X135.4Y-109.54
X65.08Y-65.821
X67.62Y-65.821
X70.16Y-65.821
X72.7Y-65.821
X75.24Y-65.821
X77.78Y-65.821
X80.32Y-65.821
X82.86Y-65.821
X65.08Y-128.385
X67.62Y-128.385
X70.16Y-128.385
X72.7Y-128.385
X75.24Y-128.385
X77.78Y-128.385
X80.32Y-128.385
X82.86Y-128.385
X65.08Y-146.633
X67.62Y-146.633
X70.16Y-146.633
X72.7Y-146.633
X75.24Y-146.633
X77.78Y-146.633
X80.32Y-146.633
X82.86Y-146.633
X65.08Y-84.068
X67.62Y-84.068
X70.16Y-84.068
X72.7Y-84.068
X75.24Y-84.068
X77.78Y-84.068
X80.32Y-84.068
X82.86Y-84.068
X65.08Y-89.282
X67.62Y-89.282
X70.16Y-89.282
X72.7Y-89.282
X75.24Y-89.282
X77.78Y-89.282
X80.32Y-89.282
X82.86Y-89.282
X65.08Y-123.171
X67.62Y-123.171
X70.16Y-123.171
X72.7Y-123.171
X75.24Y-123.171
X77.78Y-123.171
X80.32Y-123.171
X82.86Y-123.171
X110.Y-104.46
X112.54Y-104.46
X115.08Y-104.46
X117.62Y-104.46
X120.16Y-104.46
X122.7Y-104.46
X125.24Y-104.46
X127.78Y-104.46
X130.32Y-104.46
X132.86Y-104.46
X135.4Y-104.46
X65.08Y-138.812
X67.62Y-138.812
X70.16Y-138.812
X72.7Y-138.812
X75.24Y-138.812
X77.78Y-138.812
X80.32Y-138.812
X82.86Y-138.812
X65.08Y-115.351
X67.62Y-115.351
X70.16Y-115.351
X72.7Y-115.351
X75.24Y-115.351
X77.78Y-115.351
X80.32Y-115.351
X82.86Y-115.351
X65.08Y-130.992
X67.62Y-130.992
X70.16Y-130.992
X72.7Y-130.992
X75.24Y-130.992
X77.78Y-130.992
X80.32Y-130.992
X82.86Y-130.992
X65.08Y-76.248
X67.62Y-76.248
X70.16Y-76.248
X72.7Y-76.248
X75.24Y-76.248
X77.78Y-76.248
X80.32Y-76.248
X82.86Y-76.248
X65.08Y-58.
X67.62Y-58.
X70.16Y-58.
X72.7Y-58.
X75.24Y-58.
X77.78Y-58.
X80.32Y-58.
X82.86Y-58.
X65.08Y-120.564
X67.62Y-120.564
X70.16Y-120.564
X72.7Y-120.564
X75.24Y-120.564
X77.78Y-120.564
X80.32Y-120.564
X82.86Y-120.564
X65.08Y-112.744
X67.62Y-112.744
X70.16Y-112.744
X72.7Y-112.744
X75.24Y-112.744
X77.78Y-112.744
X80.32Y-112.744
X82.86Y-112.744
X110.Y-112.08
X112.54Y-112.08
X115.08Y-112.08
X117.62Y-112.08
X120.16Y-112.08
X122.7Y-112.08
X125.24Y-112.08
X127.78Y-112.08
X130.32Y-112.08
X132.86Y-112.08
X135.4Y-112.08
X65.08Y-149.239
X67.62Y-149.239
X70.16Y-149.239
X72.7Y-149.239
X75.24Y-149.239
X77.78Y-149.239
X80.32Y-149.239
X82.86Y-149.239
X65.08Y-151.846
X67.62Y-151.846
X70.16Y-151.846
X72.7Y-151.846
X75.24Y-151.846
X77.78Y-151.846
X80.32Y-151.846
X82.86Y-151.846
T0
M30
