G04 #@! TF.GenerationSoftware,KiCad,Pcbnew,(5.0.2)-1*
G04 #@! TF.CreationDate,2019-02-15T15:39:03+02:00*
G04 #@! TF.ProjectId,STM32_Shield,53544d33-325f-4536-9869-656c642e6b69,rev?*
G04 #@! TF.SameCoordinates,Original*
G04 #@! TF.FileFunction,Legend,Top*
G04 #@! TF.FilePolarity,Positive*
%FSLAX46Y46*%
G04 Gerber Fmt 4.6, Leading zero omitted, Abs format (unit mm)*
G04 Created by KiCad (PCBNEW (5.0.2)-1) date 15-Feb-19 3:39:03 PM*
%MOMM*%
%LPD*%
G01*
G04 APERTURE LIST*
%ADD10C,0.300000*%
%ADD11C,0.250000*%
%ADD12C,0.125000*%
%ADD13C,0.120000*%
%ADD14C,0.050000*%
%ADD15C,0.150000*%
%ADD16C,0.127000*%
%ADD17C,0.063500*%
G04 APERTURE END LIST*
D10*
X90642857Y-150178571D02*
X90642857Y-148678571D01*
X91214285Y-148678571D01*
X91357142Y-148750000D01*
X91428571Y-148821428D01*
X91500000Y-148964285D01*
X91500000Y-149178571D01*
X91428571Y-149321428D01*
X91357142Y-149392857D01*
X91214285Y-149464285D01*
X90642857Y-149464285D01*
X92928571Y-148750000D02*
X92785714Y-148678571D01*
X92571428Y-148678571D01*
X92357142Y-148750000D01*
X92214285Y-148892857D01*
X92142857Y-149035714D01*
X92071428Y-149321428D01*
X92071428Y-149535714D01*
X92142857Y-149821428D01*
X92214285Y-149964285D01*
X92357142Y-150107142D01*
X92571428Y-150178571D01*
X92714285Y-150178571D01*
X92928571Y-150107142D01*
X93000000Y-150035714D01*
X93000000Y-149535714D01*
X92714285Y-149535714D01*
X94428571Y-150178571D02*
X93571428Y-150178571D01*
X94000000Y-150178571D02*
X94000000Y-148678571D01*
X93857142Y-148892857D01*
X93714285Y-149035714D01*
X93571428Y-149107142D01*
X90642857Y-147678571D02*
X90642857Y-146178571D01*
X91214285Y-146178571D01*
X91357142Y-146250000D01*
X91428571Y-146321428D01*
X91500000Y-146464285D01*
X91500000Y-146678571D01*
X91428571Y-146821428D01*
X91357142Y-146892857D01*
X91214285Y-146964285D01*
X90642857Y-146964285D01*
X92928571Y-146250000D02*
X92785714Y-146178571D01*
X92571428Y-146178571D01*
X92357142Y-146250000D01*
X92214285Y-146392857D01*
X92142857Y-146535714D01*
X92071428Y-146821428D01*
X92071428Y-147035714D01*
X92142857Y-147321428D01*
X92214285Y-147464285D01*
X92357142Y-147607142D01*
X92571428Y-147678571D01*
X92714285Y-147678571D01*
X92928571Y-147607142D01*
X93000000Y-147535714D01*
X93000000Y-147035714D01*
X92714285Y-147035714D01*
X93928571Y-146178571D02*
X94071428Y-146178571D01*
X94214285Y-146250000D01*
X94285714Y-146321428D01*
X94357142Y-146464285D01*
X94428571Y-146750000D01*
X94428571Y-147107142D01*
X94357142Y-147392857D01*
X94285714Y-147535714D01*
X94214285Y-147607142D01*
X94071428Y-147678571D01*
X93928571Y-147678571D01*
X93785714Y-147607142D01*
X93714285Y-147535714D01*
X93642857Y-147392857D01*
X93571428Y-147107142D01*
X93571428Y-146750000D01*
X93642857Y-146464285D01*
X93714285Y-146321428D01*
X93785714Y-146250000D01*
X93928571Y-146178571D01*
X90750000Y-145178571D02*
X90750000Y-143678571D01*
X91321428Y-143678571D01*
X91464285Y-143750000D01*
X91535714Y-143821428D01*
X91607142Y-143964285D01*
X91607142Y-144178571D01*
X91535714Y-144321428D01*
X91464285Y-144392857D01*
X91321428Y-144464285D01*
X90750000Y-144464285D01*
X92750000Y-144392857D02*
X92250000Y-144392857D01*
X92250000Y-145178571D02*
X92250000Y-143678571D01*
X92964285Y-143678571D01*
X93607142Y-145178571D02*
X93892857Y-145178571D01*
X94035714Y-145107142D01*
X94107142Y-145035714D01*
X94250000Y-144821428D01*
X94321428Y-144535714D01*
X94321428Y-143964285D01*
X94250000Y-143821428D01*
X94178571Y-143750000D01*
X94035714Y-143678571D01*
X93750000Y-143678571D01*
X93607142Y-143750000D01*
X93535714Y-143821428D01*
X93464285Y-143964285D01*
X93464285Y-144321428D01*
X93535714Y-144464285D01*
X93607142Y-144535714D01*
X93750000Y-144607142D01*
X94035714Y-144607142D01*
X94178571Y-144535714D01*
X94250000Y-144464285D01*
X94321428Y-144321428D01*
X90750000Y-142178571D02*
X90750000Y-140678571D01*
X91321428Y-140678571D01*
X91464285Y-140750000D01*
X91535714Y-140821428D01*
X91607142Y-140964285D01*
X91607142Y-141178571D01*
X91535714Y-141321428D01*
X91464285Y-141392857D01*
X91321428Y-141464285D01*
X90750000Y-141464285D01*
X92750000Y-141392857D02*
X92250000Y-141392857D01*
X92250000Y-142178571D02*
X92250000Y-140678571D01*
X92964285Y-140678571D01*
X93392857Y-140678571D02*
X94392857Y-140678571D01*
X93750000Y-142178571D01*
X90750000Y-139678571D02*
X90750000Y-138178571D01*
X91321428Y-138178571D01*
X91464285Y-138250000D01*
X91535714Y-138321428D01*
X91607142Y-138464285D01*
X91607142Y-138678571D01*
X91535714Y-138821428D01*
X91464285Y-138892857D01*
X91321428Y-138964285D01*
X90750000Y-138964285D01*
X92750000Y-138892857D02*
X92250000Y-138892857D01*
X92250000Y-139678571D02*
X92250000Y-138178571D01*
X92964285Y-138178571D01*
X93750000Y-138821428D02*
X93607142Y-138750000D01*
X93535714Y-138678571D01*
X93464285Y-138535714D01*
X93464285Y-138464285D01*
X93535714Y-138321428D01*
X93607142Y-138250000D01*
X93750000Y-138178571D01*
X94035714Y-138178571D01*
X94178571Y-138250000D01*
X94250000Y-138321428D01*
X94321428Y-138464285D01*
X94321428Y-138535714D01*
X94250000Y-138678571D01*
X94178571Y-138750000D01*
X94035714Y-138821428D01*
X93750000Y-138821428D01*
X93607142Y-138892857D01*
X93535714Y-138964285D01*
X93464285Y-139107142D01*
X93464285Y-139392857D01*
X93535714Y-139535714D01*
X93607142Y-139607142D01*
X93750000Y-139678571D01*
X94035714Y-139678571D01*
X94178571Y-139607142D01*
X94250000Y-139535714D01*
X94321428Y-139392857D01*
X94321428Y-139107142D01*
X94250000Y-138964285D01*
X94178571Y-138892857D01*
X94035714Y-138821428D01*
X90714285Y-136678571D02*
X90714285Y-135178571D01*
X91285714Y-135178571D01*
X91428571Y-135250000D01*
X91500000Y-135321428D01*
X91571428Y-135464285D01*
X91571428Y-135678571D01*
X91500000Y-135821428D01*
X91428571Y-135892857D01*
X91285714Y-135964285D01*
X90714285Y-135964285D01*
X92214285Y-135892857D02*
X92714285Y-135892857D01*
X92928571Y-136678571D02*
X92214285Y-136678571D01*
X92214285Y-135178571D01*
X92928571Y-135178571D01*
X94214285Y-135178571D02*
X93928571Y-135178571D01*
X93785714Y-135250000D01*
X93714285Y-135321428D01*
X93571428Y-135535714D01*
X93500000Y-135821428D01*
X93500000Y-136392857D01*
X93571428Y-136535714D01*
X93642857Y-136607142D01*
X93785714Y-136678571D01*
X94071428Y-136678571D01*
X94214285Y-136607142D01*
X94285714Y-136535714D01*
X94357142Y-136392857D01*
X94357142Y-136035714D01*
X94285714Y-135892857D01*
X94214285Y-135821428D01*
X94071428Y-135750000D01*
X93785714Y-135750000D01*
X93642857Y-135821428D01*
X93571428Y-135892857D01*
X93500000Y-136035714D01*
X90750000Y-126678571D02*
X90750000Y-125178571D01*
X91321428Y-125178571D01*
X91464285Y-125250000D01*
X91535714Y-125321428D01*
X91607142Y-125464285D01*
X91607142Y-125678571D01*
X91535714Y-125821428D01*
X91464285Y-125892857D01*
X91321428Y-125964285D01*
X90750000Y-125964285D01*
X92750000Y-125892857D02*
X92250000Y-125892857D01*
X92250000Y-126678571D02*
X92250000Y-125178571D01*
X92964285Y-125178571D01*
X93464285Y-125321428D02*
X93535714Y-125250000D01*
X93678571Y-125178571D01*
X94035714Y-125178571D01*
X94178571Y-125250000D01*
X94250000Y-125321428D01*
X94321428Y-125464285D01*
X94321428Y-125607142D01*
X94250000Y-125821428D01*
X93392857Y-126678571D01*
X94321428Y-126678571D01*
D11*
X90857142Y-123452380D02*
X90857142Y-122452380D01*
X91238095Y-122452380D01*
X91333333Y-122500000D01*
X91380952Y-122547619D01*
X91428571Y-122642857D01*
X91428571Y-122785714D01*
X91380952Y-122880952D01*
X91333333Y-122928571D01*
X91238095Y-122976190D01*
X90857142Y-122976190D01*
X92190476Y-122928571D02*
X91857142Y-122928571D01*
X91857142Y-123452380D02*
X91857142Y-122452380D01*
X92333333Y-122452380D01*
X93238095Y-123452380D02*
X92666666Y-123452380D01*
X92952380Y-123452380D02*
X92952380Y-122452380D01*
X92857142Y-122595238D01*
X92761904Y-122690476D01*
X92666666Y-122738095D01*
X93857142Y-122452380D02*
X93952380Y-122452380D01*
X94047619Y-122500000D01*
X94095238Y-122547619D01*
X94142857Y-122642857D01*
X94190476Y-122833333D01*
X94190476Y-123071428D01*
X94142857Y-123261904D01*
X94095238Y-123357142D01*
X94047619Y-123404761D01*
X93952380Y-123452380D01*
X93857142Y-123452380D01*
X93761904Y-123404761D01*
X93714285Y-123357142D01*
X93666666Y-123261904D01*
X93619047Y-123071428D01*
X93619047Y-122833333D01*
X93666666Y-122642857D01*
X93714285Y-122547619D01*
X93761904Y-122500000D01*
X93857142Y-122452380D01*
D10*
X90750000Y-118678571D02*
X90750000Y-117178571D01*
X91321428Y-117178571D01*
X91464285Y-117250000D01*
X91535714Y-117321428D01*
X91607142Y-117464285D01*
X91607142Y-117678571D01*
X91535714Y-117821428D01*
X91464285Y-117892857D01*
X91321428Y-117964285D01*
X90750000Y-117964285D01*
X92750000Y-117892857D02*
X92250000Y-117892857D01*
X92250000Y-118678571D02*
X92250000Y-117178571D01*
X92964285Y-117178571D01*
X94250000Y-117178571D02*
X93535714Y-117178571D01*
X93464285Y-117892857D01*
X93535714Y-117821428D01*
X93678571Y-117750000D01*
X94035714Y-117750000D01*
X94178571Y-117821428D01*
X94250000Y-117892857D01*
X94321428Y-118035714D01*
X94321428Y-118392857D01*
X94250000Y-118535714D01*
X94178571Y-118607142D01*
X94035714Y-118678571D01*
X93678571Y-118678571D01*
X93535714Y-118607142D01*
X93464285Y-118535714D01*
X90642857Y-121178571D02*
X90642857Y-119678571D01*
X91214285Y-119678571D01*
X91357142Y-119750000D01*
X91428571Y-119821428D01*
X91500000Y-119964285D01*
X91500000Y-120178571D01*
X91428571Y-120321428D01*
X91357142Y-120392857D01*
X91214285Y-120464285D01*
X90642857Y-120464285D01*
X92142857Y-121178571D02*
X92142857Y-119678571D01*
X92500000Y-119678571D01*
X92714285Y-119750000D01*
X92857142Y-119892857D01*
X92928571Y-120035714D01*
X93000000Y-120321428D01*
X93000000Y-120535714D01*
X92928571Y-120821428D01*
X92857142Y-120964285D01*
X92714285Y-121107142D01*
X92500000Y-121178571D01*
X92142857Y-121178571D01*
X93500000Y-119678571D02*
X94428571Y-119678571D01*
X93928571Y-120250000D01*
X94142857Y-120250000D01*
X94285714Y-120321428D01*
X94357142Y-120392857D01*
X94428571Y-120535714D01*
X94428571Y-120892857D01*
X94357142Y-121035714D01*
X94285714Y-121107142D01*
X94142857Y-121178571D01*
X93714285Y-121178571D01*
X93571428Y-121107142D01*
X93500000Y-121035714D01*
X90642857Y-116178571D02*
X90642857Y-114678571D01*
X91214285Y-114678571D01*
X91357142Y-114750000D01*
X91428571Y-114821428D01*
X91500000Y-114964285D01*
X91500000Y-115178571D01*
X91428571Y-115321428D01*
X91357142Y-115392857D01*
X91214285Y-115464285D01*
X90642857Y-115464285D01*
X92142857Y-116178571D02*
X92142857Y-114678571D01*
X92500000Y-114678571D01*
X92714285Y-114750000D01*
X92857142Y-114892857D01*
X92928571Y-115035714D01*
X93000000Y-115321428D01*
X93000000Y-115535714D01*
X92928571Y-115821428D01*
X92857142Y-115964285D01*
X92714285Y-116107142D01*
X92500000Y-116178571D01*
X92142857Y-116178571D01*
X94285714Y-115178571D02*
X94285714Y-116178571D01*
X93928571Y-114607142D02*
X93571428Y-115678571D01*
X94500000Y-115678571D01*
X90750000Y-113178571D02*
X90750000Y-111678571D01*
X91321428Y-111678571D01*
X91464285Y-111750000D01*
X91535714Y-111821428D01*
X91607142Y-111964285D01*
X91607142Y-112178571D01*
X91535714Y-112321428D01*
X91464285Y-112392857D01*
X91321428Y-112464285D01*
X90750000Y-112464285D01*
X92750000Y-112392857D02*
X92250000Y-112392857D01*
X92250000Y-113178571D02*
X92250000Y-111678571D01*
X92964285Y-111678571D01*
X93392857Y-111678571D02*
X94321428Y-111678571D01*
X93821428Y-112250000D01*
X94035714Y-112250000D01*
X94178571Y-112321428D01*
X94250000Y-112392857D01*
X94321428Y-112535714D01*
X94321428Y-112892857D01*
X94250000Y-113035714D01*
X94178571Y-113107142D01*
X94035714Y-113178571D01*
X93607142Y-113178571D01*
X93464285Y-113107142D01*
X93392857Y-113035714D01*
X90642857Y-90178571D02*
X90642857Y-88678571D01*
X91214285Y-88678571D01*
X91357142Y-88750000D01*
X91428571Y-88821428D01*
X91500000Y-88964285D01*
X91500000Y-89178571D01*
X91428571Y-89321428D01*
X91357142Y-89392857D01*
X91214285Y-89464285D01*
X90642857Y-89464285D01*
X92142857Y-90178571D02*
X92142857Y-88678571D01*
X92500000Y-88678571D01*
X92714285Y-88750000D01*
X92857142Y-88892857D01*
X92928571Y-89035714D01*
X93000000Y-89321428D01*
X93000000Y-89535714D01*
X92928571Y-89821428D01*
X92857142Y-89964285D01*
X92714285Y-90107142D01*
X92500000Y-90178571D01*
X92142857Y-90178571D01*
X94357142Y-88678571D02*
X93642857Y-88678571D01*
X93571428Y-89392857D01*
X93642857Y-89321428D01*
X93785714Y-89250000D01*
X94142857Y-89250000D01*
X94285714Y-89321428D01*
X94357142Y-89392857D01*
X94428571Y-89535714D01*
X94428571Y-89892857D01*
X94357142Y-90035714D01*
X94285714Y-90107142D01*
X94142857Y-90178571D01*
X93785714Y-90178571D01*
X93642857Y-90107142D01*
X93571428Y-90035714D01*
X90642857Y-87178571D02*
X90642857Y-85678571D01*
X91214285Y-85678571D01*
X91357142Y-85750000D01*
X91428571Y-85821428D01*
X91500000Y-85964285D01*
X91500000Y-86178571D01*
X91428571Y-86321428D01*
X91357142Y-86392857D01*
X91214285Y-86464285D01*
X90642857Y-86464285D01*
X92142857Y-87178571D02*
X92142857Y-85678571D01*
X92500000Y-85678571D01*
X92714285Y-85750000D01*
X92857142Y-85892857D01*
X92928571Y-86035714D01*
X93000000Y-86321428D01*
X93000000Y-86535714D01*
X92928571Y-86821428D01*
X92857142Y-86964285D01*
X92714285Y-87107142D01*
X92500000Y-87178571D01*
X92142857Y-87178571D01*
X94285714Y-85678571D02*
X94000000Y-85678571D01*
X93857142Y-85750000D01*
X93785714Y-85821428D01*
X93642857Y-86035714D01*
X93571428Y-86321428D01*
X93571428Y-86892857D01*
X93642857Y-87035714D01*
X93714285Y-87107142D01*
X93857142Y-87178571D01*
X94142857Y-87178571D01*
X94285714Y-87107142D01*
X94357142Y-87035714D01*
X94428571Y-86892857D01*
X94428571Y-86535714D01*
X94357142Y-86392857D01*
X94285714Y-86321428D01*
X94142857Y-86250000D01*
X93857142Y-86250000D01*
X93714285Y-86321428D01*
X93642857Y-86392857D01*
X93571428Y-86535714D01*
D11*
X90988095Y-68000000D02*
X90892857Y-67952380D01*
X90750000Y-67952380D01*
X90607142Y-68000000D01*
X90511904Y-68095238D01*
X90464285Y-68190476D01*
X90416666Y-68380952D01*
X90416666Y-68523809D01*
X90464285Y-68714285D01*
X90511904Y-68809523D01*
X90607142Y-68904761D01*
X90750000Y-68952380D01*
X90845238Y-68952380D01*
X90988095Y-68904761D01*
X91035714Y-68857142D01*
X91035714Y-68523809D01*
X90845238Y-68523809D01*
X91464285Y-68952380D02*
X91464285Y-67952380D01*
X92035714Y-68952380D01*
X92035714Y-67952380D01*
X92511904Y-68952380D02*
X92511904Y-67952380D01*
X92750000Y-67952380D01*
X92892857Y-68000000D01*
X92988095Y-68095238D01*
X93035714Y-68190476D01*
X93083333Y-68380952D01*
X93083333Y-68523809D01*
X93035714Y-68714285D01*
X92988095Y-68809523D01*
X92892857Y-68904761D01*
X92750000Y-68952380D01*
X92511904Y-68952380D01*
D12*
X89928571Y-65553571D02*
X90500000Y-65553571D01*
X90214285Y-65839285D02*
X90214285Y-65267857D01*
X91214285Y-65089285D02*
X90857142Y-65089285D01*
X90821428Y-65446428D01*
X90857142Y-65410714D01*
X90928571Y-65375000D01*
X91107142Y-65375000D01*
X91178571Y-65410714D01*
X91214285Y-65446428D01*
X91250000Y-65517857D01*
X91250000Y-65696428D01*
X91214285Y-65767857D01*
X91178571Y-65803571D01*
X91107142Y-65839285D01*
X90928571Y-65839285D01*
X90857142Y-65803571D01*
X90821428Y-65767857D01*
X91464285Y-65089285D02*
X91714285Y-65839285D01*
X91964285Y-65089285D01*
X93000000Y-66125000D02*
X92964285Y-66089285D01*
X92892857Y-65982142D01*
X92857142Y-65910714D01*
X92821428Y-65803571D01*
X92785714Y-65625000D01*
X92785714Y-65482142D01*
X92821428Y-65303571D01*
X92857142Y-65196428D01*
X92892857Y-65125000D01*
X92964285Y-65017857D01*
X93000000Y-64982142D01*
X93428571Y-65089285D02*
X93571428Y-65089285D01*
X93642857Y-65125000D01*
X93714285Y-65196428D01*
X93750000Y-65339285D01*
X93750000Y-65589285D01*
X93714285Y-65732142D01*
X93642857Y-65803571D01*
X93571428Y-65839285D01*
X93428571Y-65839285D01*
X93357142Y-65803571D01*
X93285714Y-65732142D01*
X93250000Y-65589285D01*
X93250000Y-65339285D01*
X93285714Y-65196428D01*
X93357142Y-65125000D01*
X93428571Y-65089285D01*
X94071428Y-65089285D02*
X94071428Y-65696428D01*
X94107142Y-65767857D01*
X94142857Y-65803571D01*
X94214285Y-65839285D01*
X94357142Y-65839285D01*
X94428571Y-65803571D01*
X94464285Y-65767857D01*
X94500000Y-65696428D01*
X94500000Y-65089285D01*
X94750000Y-65089285D02*
X95178571Y-65089285D01*
X94964285Y-65839285D02*
X94964285Y-65089285D01*
X95357142Y-66125000D02*
X95392857Y-66089285D01*
X95464285Y-65982142D01*
X95500000Y-65910714D01*
X95535714Y-65803571D01*
X95571428Y-65625000D01*
X95571428Y-65482142D01*
X95535714Y-65303571D01*
X95500000Y-65196428D01*
X95464285Y-65125000D01*
X95392857Y-65017857D01*
X95357142Y-64982142D01*
D11*
X90928571Y-63071428D02*
X91690476Y-63071428D01*
X91309523Y-63452380D02*
X91309523Y-62690476D01*
X92690476Y-63452380D02*
X92119047Y-63452380D01*
X92404761Y-63452380D02*
X92404761Y-62452380D01*
X92309523Y-62595238D01*
X92214285Y-62690476D01*
X92119047Y-62738095D01*
X93071428Y-62547619D02*
X93119047Y-62500000D01*
X93214285Y-62452380D01*
X93452380Y-62452380D01*
X93547619Y-62500000D01*
X93595238Y-62547619D01*
X93642857Y-62642857D01*
X93642857Y-62738095D01*
X93595238Y-62880952D01*
X93023809Y-63452380D01*
X93642857Y-63452380D01*
X93928571Y-62452380D02*
X94261904Y-63452380D01*
X94595238Y-62452380D01*
X95976190Y-63833333D02*
X95928571Y-63785714D01*
X95833333Y-63642857D01*
X95785714Y-63547619D01*
X95738095Y-63404761D01*
X95690476Y-63166666D01*
X95690476Y-62976190D01*
X95738095Y-62738095D01*
X95785714Y-62595238D01*
X95833333Y-62500000D01*
X95928571Y-62357142D01*
X95976190Y-62309523D01*
X96357142Y-63452380D02*
X96357142Y-62452380D01*
X96833333Y-63452380D02*
X96833333Y-62452380D01*
X97404761Y-63452380D01*
X97404761Y-62452380D01*
X97785714Y-63833333D02*
X97833333Y-63785714D01*
X97928571Y-63642857D01*
X97976190Y-63547619D01*
X98023809Y-63404761D01*
X98071428Y-63166666D01*
X98071428Y-62976190D01*
X98023809Y-62738095D01*
X97976190Y-62595238D01*
X97928571Y-62500000D01*
X97833333Y-62357142D01*
X97785714Y-62309523D01*
D10*
X90821428Y-152678571D02*
X90821428Y-151178571D01*
X91678571Y-152678571D01*
X91678571Y-151178571D01*
X93250000Y-152535714D02*
X93178571Y-152607142D01*
X92964285Y-152678571D01*
X92821428Y-152678571D01*
X92607142Y-152607142D01*
X92464285Y-152464285D01*
X92392857Y-152321428D01*
X92321428Y-152035714D01*
X92321428Y-151821428D01*
X92392857Y-151535714D01*
X92464285Y-151392857D01*
X92607142Y-151250000D01*
X92821428Y-151178571D01*
X92964285Y-151178571D01*
X93178571Y-151250000D01*
X93250000Y-151321428D01*
X90821428Y-134178571D02*
X90821428Y-132678571D01*
X91678571Y-134178571D01*
X91678571Y-132678571D01*
X93250000Y-134035714D02*
X93178571Y-134107142D01*
X92964285Y-134178571D01*
X92821428Y-134178571D01*
X92607142Y-134107142D01*
X92464285Y-133964285D01*
X92392857Y-133821428D01*
X92321428Y-133535714D01*
X92321428Y-133321428D01*
X92392857Y-133035714D01*
X92464285Y-132892857D01*
X92607142Y-132750000D01*
X92821428Y-132678571D01*
X92964285Y-132678571D01*
X93178571Y-132750000D01*
X93250000Y-132821428D01*
X90821428Y-131678571D02*
X90821428Y-130178571D01*
X91678571Y-131678571D01*
X91678571Y-130178571D01*
X93250000Y-131535714D02*
X93178571Y-131607142D01*
X92964285Y-131678571D01*
X92821428Y-131678571D01*
X92607142Y-131607142D01*
X92464285Y-131464285D01*
X92392857Y-131321428D01*
X92321428Y-131035714D01*
X92321428Y-130821428D01*
X92392857Y-130535714D01*
X92464285Y-130392857D01*
X92607142Y-130250000D01*
X92821428Y-130178571D01*
X92964285Y-130178571D01*
X93178571Y-130250000D01*
X93250000Y-130321428D01*
X90821428Y-129178571D02*
X90821428Y-127678571D01*
X91678571Y-129178571D01*
X91678571Y-127678571D01*
X93250000Y-129035714D02*
X93178571Y-129107142D01*
X92964285Y-129178571D01*
X92821428Y-129178571D01*
X92607142Y-129107142D01*
X92464285Y-128964285D01*
X92392857Y-128821428D01*
X92321428Y-128535714D01*
X92321428Y-128321428D01*
X92392857Y-128035714D01*
X92464285Y-127892857D01*
X92607142Y-127750000D01*
X92821428Y-127678571D01*
X92964285Y-127678571D01*
X93178571Y-127750000D01*
X93250000Y-127821428D01*
X90821428Y-110678571D02*
X90821428Y-109178571D01*
X91678571Y-110678571D01*
X91678571Y-109178571D01*
X93250000Y-110535714D02*
X93178571Y-110607142D01*
X92964285Y-110678571D01*
X92821428Y-110678571D01*
X92607142Y-110607142D01*
X92464285Y-110464285D01*
X92392857Y-110321428D01*
X92321428Y-110035714D01*
X92321428Y-109821428D01*
X92392857Y-109535714D01*
X92464285Y-109392857D01*
X92607142Y-109250000D01*
X92821428Y-109178571D01*
X92964285Y-109178571D01*
X93178571Y-109250000D01*
X93250000Y-109321428D01*
X90821428Y-108178571D02*
X90821428Y-106678571D01*
X91678571Y-108178571D01*
X91678571Y-106678571D01*
X93250000Y-108035714D02*
X93178571Y-108107142D01*
X92964285Y-108178571D01*
X92821428Y-108178571D01*
X92607142Y-108107142D01*
X92464285Y-107964285D01*
X92392857Y-107821428D01*
X92321428Y-107535714D01*
X92321428Y-107321428D01*
X92392857Y-107035714D01*
X92464285Y-106892857D01*
X92607142Y-106750000D01*
X92821428Y-106678571D01*
X92964285Y-106678571D01*
X93178571Y-106750000D01*
X93250000Y-106821428D01*
X90821428Y-105678571D02*
X90821428Y-104178571D01*
X91678571Y-105678571D01*
X91678571Y-104178571D01*
X93250000Y-105535714D02*
X93178571Y-105607142D01*
X92964285Y-105678571D01*
X92821428Y-105678571D01*
X92607142Y-105607142D01*
X92464285Y-105464285D01*
X92392857Y-105321428D01*
X92321428Y-105035714D01*
X92321428Y-104821428D01*
X92392857Y-104535714D01*
X92464285Y-104392857D01*
X92607142Y-104250000D01*
X92821428Y-104178571D01*
X92964285Y-104178571D01*
X93178571Y-104250000D01*
X93250000Y-104321428D01*
X90821428Y-103178571D02*
X90821428Y-101678571D01*
X91678571Y-103178571D01*
X91678571Y-101678571D01*
X93250000Y-103035714D02*
X93178571Y-103107142D01*
X92964285Y-103178571D01*
X92821428Y-103178571D01*
X92607142Y-103107142D01*
X92464285Y-102964285D01*
X92392857Y-102821428D01*
X92321428Y-102535714D01*
X92321428Y-102321428D01*
X92392857Y-102035714D01*
X92464285Y-101892857D01*
X92607142Y-101750000D01*
X92821428Y-101678571D01*
X92964285Y-101678571D01*
X93178571Y-101750000D01*
X93250000Y-101821428D01*
X90821428Y-100178571D02*
X90821428Y-98678571D01*
X91678571Y-100178571D01*
X91678571Y-98678571D01*
X93250000Y-100035714D02*
X93178571Y-100107142D01*
X92964285Y-100178571D01*
X92821428Y-100178571D01*
X92607142Y-100107142D01*
X92464285Y-99964285D01*
X92392857Y-99821428D01*
X92321428Y-99535714D01*
X92321428Y-99321428D01*
X92392857Y-99035714D01*
X92464285Y-98892857D01*
X92607142Y-98750000D01*
X92821428Y-98678571D01*
X92964285Y-98678571D01*
X93178571Y-98750000D01*
X93250000Y-98821428D01*
X90821428Y-97678571D02*
X90821428Y-96178571D01*
X91678571Y-97678571D01*
X91678571Y-96178571D01*
X93250000Y-97535714D02*
X93178571Y-97607142D01*
X92964285Y-97678571D01*
X92821428Y-97678571D01*
X92607142Y-97607142D01*
X92464285Y-97464285D01*
X92392857Y-97321428D01*
X92321428Y-97035714D01*
X92321428Y-96821428D01*
X92392857Y-96535714D01*
X92464285Y-96392857D01*
X92607142Y-96250000D01*
X92821428Y-96178571D01*
X92964285Y-96178571D01*
X93178571Y-96250000D01*
X93250000Y-96321428D01*
X90821428Y-95178571D02*
X90821428Y-93678571D01*
X91678571Y-95178571D01*
X91678571Y-93678571D01*
X93250000Y-95035714D02*
X93178571Y-95107142D01*
X92964285Y-95178571D01*
X92821428Y-95178571D01*
X92607142Y-95107142D01*
X92464285Y-94964285D01*
X92392857Y-94821428D01*
X92321428Y-94535714D01*
X92321428Y-94321428D01*
X92392857Y-94035714D01*
X92464285Y-93892857D01*
X92607142Y-93750000D01*
X92821428Y-93678571D01*
X92964285Y-93678571D01*
X93178571Y-93750000D01*
X93250000Y-93821428D01*
X90821428Y-92678571D02*
X90821428Y-91178571D01*
X91678571Y-92678571D01*
X91678571Y-91178571D01*
X93250000Y-92535714D02*
X93178571Y-92607142D01*
X92964285Y-92678571D01*
X92821428Y-92678571D01*
X92607142Y-92607142D01*
X92464285Y-92464285D01*
X92392857Y-92321428D01*
X92321428Y-92035714D01*
X92321428Y-91821428D01*
X92392857Y-91535714D01*
X92464285Y-91392857D01*
X92607142Y-91250000D01*
X92821428Y-91178571D01*
X92964285Y-91178571D01*
X93178571Y-91250000D01*
X93250000Y-91321428D01*
X90821428Y-84678571D02*
X90821428Y-83178571D01*
X91678571Y-84678571D01*
X91678571Y-83178571D01*
X93250000Y-84535714D02*
X93178571Y-84607142D01*
X92964285Y-84678571D01*
X92821428Y-84678571D01*
X92607142Y-84607142D01*
X92464285Y-84464285D01*
X92392857Y-84321428D01*
X92321428Y-84035714D01*
X92321428Y-83821428D01*
X92392857Y-83535714D01*
X92464285Y-83392857D01*
X92607142Y-83250000D01*
X92821428Y-83178571D01*
X92964285Y-83178571D01*
X93178571Y-83250000D01*
X93250000Y-83321428D01*
X90821428Y-82178571D02*
X90821428Y-80678571D01*
X91678571Y-82178571D01*
X91678571Y-80678571D01*
X93250000Y-82035714D02*
X93178571Y-82107142D01*
X92964285Y-82178571D01*
X92821428Y-82178571D01*
X92607142Y-82107142D01*
X92464285Y-81964285D01*
X92392857Y-81821428D01*
X92321428Y-81535714D01*
X92321428Y-81321428D01*
X92392857Y-81035714D01*
X92464285Y-80892857D01*
X92607142Y-80750000D01*
X92821428Y-80678571D01*
X92964285Y-80678571D01*
X93178571Y-80750000D01*
X93250000Y-80821428D01*
X90821428Y-79678571D02*
X90821428Y-78178571D01*
X91678571Y-79678571D01*
X91678571Y-78178571D01*
X93250000Y-79535714D02*
X93178571Y-79607142D01*
X92964285Y-79678571D01*
X92821428Y-79678571D01*
X92607142Y-79607142D01*
X92464285Y-79464285D01*
X92392857Y-79321428D01*
X92321428Y-79035714D01*
X92321428Y-78821428D01*
X92392857Y-78535714D01*
X92464285Y-78392857D01*
X92607142Y-78250000D01*
X92821428Y-78178571D01*
X92964285Y-78178571D01*
X93178571Y-78250000D01*
X93250000Y-78321428D01*
X90821428Y-77178571D02*
X90821428Y-75678571D01*
X91678571Y-77178571D01*
X91678571Y-75678571D01*
X93250000Y-77035714D02*
X93178571Y-77107142D01*
X92964285Y-77178571D01*
X92821428Y-77178571D01*
X92607142Y-77107142D01*
X92464285Y-76964285D01*
X92392857Y-76821428D01*
X92321428Y-76535714D01*
X92321428Y-76321428D01*
X92392857Y-76035714D01*
X92464285Y-75892857D01*
X92607142Y-75750000D01*
X92821428Y-75678571D01*
X92964285Y-75678571D01*
X93178571Y-75750000D01*
X93250000Y-75821428D01*
X90821428Y-74678571D02*
X90821428Y-73178571D01*
X91678571Y-74678571D01*
X91678571Y-73178571D01*
X93250000Y-74535714D02*
X93178571Y-74607142D01*
X92964285Y-74678571D01*
X92821428Y-74678571D01*
X92607142Y-74607142D01*
X92464285Y-74464285D01*
X92392857Y-74321428D01*
X92321428Y-74035714D01*
X92321428Y-73821428D01*
X92392857Y-73535714D01*
X92464285Y-73392857D01*
X92607142Y-73250000D01*
X92821428Y-73178571D01*
X92964285Y-73178571D01*
X93178571Y-73250000D01*
X93250000Y-73321428D01*
X90821428Y-71678571D02*
X90821428Y-70178571D01*
X91678571Y-71678571D01*
X91678571Y-70178571D01*
X93250000Y-71535714D02*
X93178571Y-71607142D01*
X92964285Y-71678571D01*
X92821428Y-71678571D01*
X92607142Y-71607142D01*
X92464285Y-71464285D01*
X92392857Y-71321428D01*
X92321428Y-71035714D01*
X92321428Y-70821428D01*
X92392857Y-70535714D01*
X92464285Y-70392857D01*
X92607142Y-70250000D01*
X92821428Y-70178571D01*
X92964285Y-70178571D01*
X93178571Y-70250000D01*
X93250000Y-70321428D01*
X90821428Y-61178571D02*
X90821428Y-59678571D01*
X91678571Y-61178571D01*
X91678571Y-59678571D01*
X93250000Y-61035714D02*
X93178571Y-61107142D01*
X92964285Y-61178571D01*
X92821428Y-61178571D01*
X92607142Y-61107142D01*
X92464285Y-60964285D01*
X92392857Y-60821428D01*
X92321428Y-60535714D01*
X92321428Y-60321428D01*
X92392857Y-60035714D01*
X92464285Y-59892857D01*
X92607142Y-59750000D01*
X92821428Y-59678571D01*
X92964285Y-59678571D01*
X93178571Y-59750000D01*
X93250000Y-59821428D01*
X90821428Y-58678571D02*
X90821428Y-57178571D01*
X91678571Y-58678571D01*
X91678571Y-57178571D01*
X93250000Y-58535714D02*
X93178571Y-58607142D01*
X92964285Y-58678571D01*
X92821428Y-58678571D01*
X92607142Y-58607142D01*
X92464285Y-58464285D01*
X92392857Y-58321428D01*
X92321428Y-58035714D01*
X92321428Y-57821428D01*
X92392857Y-57535714D01*
X92464285Y-57392857D01*
X92607142Y-57250000D01*
X92821428Y-57178571D01*
X92964285Y-57178571D01*
X93178571Y-57250000D01*
X93250000Y-57321428D01*
X140757142Y-119150000D02*
X140614285Y-119078571D01*
X140400000Y-119078571D01*
X140185714Y-119150000D01*
X140042857Y-119292857D01*
X139971428Y-119435714D01*
X139900000Y-119721428D01*
X139900000Y-119935714D01*
X139971428Y-120221428D01*
X140042857Y-120364285D01*
X140185714Y-120507142D01*
X140400000Y-120578571D01*
X140542857Y-120578571D01*
X140757142Y-120507142D01*
X140828571Y-120435714D01*
X140828571Y-119935714D01*
X140542857Y-119935714D01*
X141471428Y-120578571D02*
X141471428Y-119078571D01*
X142328571Y-120578571D01*
X142328571Y-119078571D01*
X143042857Y-120578571D02*
X143042857Y-119078571D01*
X143400000Y-119078571D01*
X143614285Y-119150000D01*
X143757142Y-119292857D01*
X143828571Y-119435714D01*
X143900000Y-119721428D01*
X143900000Y-119935714D01*
X143828571Y-120221428D01*
X143757142Y-120364285D01*
X143614285Y-120507142D01*
X143400000Y-120578571D01*
X143042857Y-120578571D01*
D11*
X140185714Y-117852380D02*
X140185714Y-116852380D01*
X140566666Y-116852380D01*
X140661904Y-116900000D01*
X140709523Y-116947619D01*
X140757142Y-117042857D01*
X140757142Y-117185714D01*
X140709523Y-117280952D01*
X140661904Y-117328571D01*
X140566666Y-117376190D01*
X140185714Y-117376190D01*
X141185714Y-117852380D02*
X141185714Y-116852380D01*
X141423809Y-116852380D01*
X141566666Y-116900000D01*
X141661904Y-116995238D01*
X141709523Y-117090476D01*
X141757142Y-117280952D01*
X141757142Y-117423809D01*
X141709523Y-117614285D01*
X141661904Y-117709523D01*
X141566666Y-117804761D01*
X141423809Y-117852380D01*
X141185714Y-117852380D01*
X142709523Y-117852380D02*
X142138095Y-117852380D01*
X142423809Y-117852380D02*
X142423809Y-116852380D01*
X142328571Y-116995238D01*
X142233333Y-117090476D01*
X142138095Y-117138095D01*
X143042857Y-116852380D02*
X143661904Y-116852380D01*
X143328571Y-117233333D01*
X143471428Y-117233333D01*
X143566666Y-117280952D01*
X143614285Y-117328571D01*
X143661904Y-117423809D01*
X143661904Y-117661904D01*
X143614285Y-117757142D01*
X143566666Y-117804761D01*
X143471428Y-117852380D01*
X143185714Y-117852380D01*
X143090476Y-117804761D01*
X143042857Y-117757142D01*
D10*
X140042857Y-115078571D02*
X140042857Y-113578571D01*
X140614285Y-113578571D01*
X140757142Y-113650000D01*
X140828571Y-113721428D01*
X140900000Y-113864285D01*
X140900000Y-114078571D01*
X140828571Y-114221428D01*
X140757142Y-114292857D01*
X140614285Y-114364285D01*
X140042857Y-114364285D01*
X142042857Y-114292857D02*
X142257142Y-114364285D01*
X142328571Y-114435714D01*
X142400000Y-114578571D01*
X142400000Y-114792857D01*
X142328571Y-114935714D01*
X142257142Y-115007142D01*
X142114285Y-115078571D01*
X141542857Y-115078571D01*
X141542857Y-113578571D01*
X142042857Y-113578571D01*
X142185714Y-113650000D01*
X142257142Y-113721428D01*
X142328571Y-113864285D01*
X142328571Y-114007142D01*
X142257142Y-114150000D01*
X142185714Y-114221428D01*
X142042857Y-114292857D01*
X141542857Y-114292857D01*
X142971428Y-113721428D02*
X143042857Y-113650000D01*
X143185714Y-113578571D01*
X143542857Y-113578571D01*
X143685714Y-113650000D01*
X143757142Y-113721428D01*
X143828571Y-113864285D01*
X143828571Y-114007142D01*
X143757142Y-114221428D01*
X142900000Y-115078571D01*
X143828571Y-115078571D01*
D11*
X140185714Y-112352380D02*
X140185714Y-111352380D01*
X140566666Y-111352380D01*
X140661904Y-111400000D01*
X140709523Y-111447619D01*
X140757142Y-111542857D01*
X140757142Y-111685714D01*
X140709523Y-111780952D01*
X140661904Y-111828571D01*
X140566666Y-111876190D01*
X140185714Y-111876190D01*
X141709523Y-111400000D02*
X141614285Y-111352380D01*
X141471428Y-111352380D01*
X141328571Y-111400000D01*
X141233333Y-111495238D01*
X141185714Y-111590476D01*
X141138095Y-111780952D01*
X141138095Y-111923809D01*
X141185714Y-112114285D01*
X141233333Y-112209523D01*
X141328571Y-112304761D01*
X141471428Y-112352380D01*
X141566666Y-112352380D01*
X141709523Y-112304761D01*
X141757142Y-112257142D01*
X141757142Y-111923809D01*
X141566666Y-111923809D01*
X142709523Y-112352380D02*
X142138095Y-112352380D01*
X142423809Y-112352380D02*
X142423809Y-111352380D01*
X142328571Y-111495238D01*
X142233333Y-111590476D01*
X142138095Y-111638095D01*
X143566666Y-111685714D02*
X143566666Y-112352380D01*
X143328571Y-111304761D02*
X143090476Y-112019047D01*
X143709523Y-112019047D01*
D10*
X140042857Y-110078571D02*
X140042857Y-108578571D01*
X140614285Y-108578571D01*
X140757142Y-108650000D01*
X140828571Y-108721428D01*
X140900000Y-108864285D01*
X140900000Y-109078571D01*
X140828571Y-109221428D01*
X140757142Y-109292857D01*
X140614285Y-109364285D01*
X140042857Y-109364285D01*
X142042857Y-109292857D02*
X142257142Y-109364285D01*
X142328571Y-109435714D01*
X142400000Y-109578571D01*
X142400000Y-109792857D01*
X142328571Y-109935714D01*
X142257142Y-110007142D01*
X142114285Y-110078571D01*
X141542857Y-110078571D01*
X141542857Y-108578571D01*
X142042857Y-108578571D01*
X142185714Y-108650000D01*
X142257142Y-108721428D01*
X142328571Y-108864285D01*
X142328571Y-109007142D01*
X142257142Y-109150000D01*
X142185714Y-109221428D01*
X142042857Y-109292857D01*
X141542857Y-109292857D01*
X143685714Y-108578571D02*
X143400000Y-108578571D01*
X143257142Y-108650000D01*
X143185714Y-108721428D01*
X143042857Y-108935714D01*
X142971428Y-109221428D01*
X142971428Y-109792857D01*
X143042857Y-109935714D01*
X143114285Y-110007142D01*
X143257142Y-110078571D01*
X143542857Y-110078571D01*
X143685714Y-110007142D01*
X143757142Y-109935714D01*
X143828571Y-109792857D01*
X143828571Y-109435714D01*
X143757142Y-109292857D01*
X143685714Y-109221428D01*
X143542857Y-109150000D01*
X143257142Y-109150000D01*
X143114285Y-109221428D01*
X143042857Y-109292857D01*
X142971428Y-109435714D01*
X140150000Y-107578571D02*
X140150000Y-106078571D01*
X140721428Y-106078571D01*
X140864285Y-106150000D01*
X140935714Y-106221428D01*
X141007142Y-106364285D01*
X141007142Y-106578571D01*
X140935714Y-106721428D01*
X140864285Y-106792857D01*
X140721428Y-106864285D01*
X140150000Y-106864285D01*
X142150000Y-106792857D02*
X141650000Y-106792857D01*
X141650000Y-107578571D02*
X141650000Y-106078571D01*
X142364285Y-106078571D01*
X143578571Y-106578571D02*
X143578571Y-107578571D01*
X143221428Y-106007142D02*
X142864285Y-107078571D01*
X143792857Y-107078571D01*
X139971428Y-104507142D02*
X141114285Y-104507142D01*
X140542857Y-105078571D02*
X140542857Y-103935714D01*
X142542857Y-103578571D02*
X141828571Y-103578571D01*
X141757142Y-104292857D01*
X141828571Y-104221428D01*
X141971428Y-104150000D01*
X142328571Y-104150000D01*
X142471428Y-104221428D01*
X142542857Y-104292857D01*
X142614285Y-104435714D01*
X142614285Y-104792857D01*
X142542857Y-104935714D01*
X142471428Y-105007142D01*
X142328571Y-105078571D01*
X141971428Y-105078571D01*
X141828571Y-105007142D01*
X141757142Y-104935714D01*
X143042857Y-103578571D02*
X143542857Y-105078571D01*
X144042857Y-103578571D01*
D13*
G04 #@! TO.C,R37*
X128380000Y-64400000D02*
X128380000Y-65600000D01*
X126620000Y-65600000D02*
X126620000Y-64400000D01*
G04 #@! TO.C,C1*
X128500000Y-97150000D02*
X127500000Y-97150000D01*
X127500000Y-98850000D02*
X128500000Y-98850000D01*
G04 #@! TO.C,C2*
X129500000Y-85150000D02*
X128500000Y-85150000D01*
X128500000Y-86850000D02*
X129500000Y-86850000D01*
G04 #@! TO.C,C3*
X138500000Y-97150000D02*
X137500000Y-97150000D01*
X137500000Y-98850000D02*
X138500000Y-98850000D01*
G04 #@! TO.C,C4*
X139500000Y-85150000D02*
X138500000Y-85150000D01*
X138500000Y-86850000D02*
X139500000Y-86850000D01*
D14*
G04 #@! TO.C,Q1*
X151959689Y-107128929D02*
X152919689Y-107128929D01*
X151959689Y-107128929D02*
X151959689Y-105878929D01*
X155079689Y-105878929D02*
X155079689Y-107128929D01*
X155079689Y-107128929D02*
X154119689Y-107128929D01*
X153919689Y-105628929D02*
X153119689Y-105628929D01*
G04 #@! TO.C,Q2*
X151440000Y-132750000D02*
X152400000Y-132750000D01*
X151440000Y-132750000D02*
X151440000Y-131500000D01*
X154560000Y-131500000D02*
X154560000Y-132750000D01*
X154560000Y-132750000D02*
X153600000Y-132750000D01*
X153400000Y-131250000D02*
X152600000Y-131250000D01*
G04 #@! TO.C,Q3*
X159269689Y-112938929D02*
X159269689Y-111978929D01*
X159269689Y-112938929D02*
X158019689Y-112938929D01*
X158019689Y-109818929D02*
X159269689Y-109818929D01*
X159269689Y-109818929D02*
X159269689Y-110778929D01*
X157769689Y-110978929D02*
X157769689Y-111778929D01*
G04 #@! TO.C,Q4*
X158750000Y-138560000D02*
X158750000Y-137600000D01*
X158750000Y-138560000D02*
X157500000Y-138560000D01*
X157500000Y-135440000D02*
X158750000Y-135440000D01*
X158750000Y-135440000D02*
X158750000Y-136400000D01*
X157250000Y-136600000D02*
X157250000Y-137400000D01*
G04 #@! TO.C,Q9*
X151616234Y-119932060D02*
X152576234Y-119932060D01*
X151616234Y-119932060D02*
X151616234Y-118682060D01*
X154736234Y-118682060D02*
X154736234Y-119932060D01*
X154736234Y-119932060D02*
X153776234Y-119932060D01*
X153576234Y-118432060D02*
X152776234Y-118432060D01*
G04 #@! TO.C,Q10*
X151440000Y-145750000D02*
X152400000Y-145750000D01*
X151440000Y-145750000D02*
X151440000Y-144500000D01*
X154560000Y-144500000D02*
X154560000Y-145750000D01*
X154560000Y-145750000D02*
X153600000Y-145750000D01*
X153400000Y-144250000D02*
X152600000Y-144250000D01*
G04 #@! TO.C,Q11*
X158926234Y-125742060D02*
X158926234Y-124782060D01*
X158926234Y-125742060D02*
X157676234Y-125742060D01*
X157676234Y-122622060D02*
X158926234Y-122622060D01*
X158926234Y-122622060D02*
X158926234Y-123582060D01*
X157426234Y-123782060D02*
X157426234Y-124582060D01*
G04 #@! TO.C,Q12*
X158750000Y-151560000D02*
X158750000Y-150600000D01*
X158750000Y-151560000D02*
X157500000Y-151560000D01*
X157500000Y-148440000D02*
X158750000Y-148440000D01*
X158750000Y-148440000D02*
X158750000Y-149400000D01*
X157250000Y-149600000D02*
X157250000Y-150400000D01*
D13*
G04 #@! TO.C,R1*
X123120000Y-90600000D02*
X123120000Y-89400000D01*
X124880000Y-89400000D02*
X124880000Y-90600000D01*
G04 #@! TO.C,R2*
X125880000Y-81400000D02*
X125880000Y-82600000D01*
X124120000Y-82600000D02*
X124120000Y-81400000D01*
G04 #@! TO.C,R3*
X131880000Y-81400000D02*
X131880000Y-82600000D01*
X130120000Y-82600000D02*
X130120000Y-81400000D01*
G04 #@! TO.C,R4*
X133120000Y-90600000D02*
X133120000Y-89400000D01*
X134880000Y-89400000D02*
X134880000Y-90600000D01*
G04 #@! TO.C,R5*
X135880000Y-81400000D02*
X135880000Y-82600000D01*
X134120000Y-82600000D02*
X134120000Y-81400000D01*
G04 #@! TO.C,R6*
X141880000Y-81400000D02*
X141880000Y-82600000D01*
X140120000Y-82600000D02*
X140120000Y-81400000D01*
G04 #@! TO.C,R15*
X117600000Y-89880000D02*
X116400000Y-89880000D01*
X116400000Y-88120000D02*
X117600000Y-88120000D01*
G04 #@! TO.C,R16*
X117600000Y-82880000D02*
X116400000Y-82880000D01*
X116400000Y-81120000D02*
X117600000Y-81120000D01*
G04 #@! TO.C,R17*
X109100000Y-89880000D02*
X107900000Y-89880000D01*
X107900000Y-88120000D02*
X109100000Y-88120000D01*
G04 #@! TO.C,R18*
X109100000Y-82880000D02*
X107900000Y-82880000D01*
X107900000Y-81120000D02*
X109100000Y-81120000D01*
G04 #@! TO.C,R19*
X157919689Y-102498929D02*
X159119689Y-102498929D01*
X159119689Y-104258929D02*
X157919689Y-104258929D01*
G04 #@! TO.C,R20*
X157400000Y-128120000D02*
X158600000Y-128120000D01*
X158600000Y-129880000D02*
X157400000Y-129880000D01*
G04 #@! TO.C,R21*
X152639689Y-112978929D02*
X152639689Y-111778929D01*
X154399689Y-111778929D02*
X154399689Y-112978929D01*
G04 #@! TO.C,R22*
X152120000Y-138600000D02*
X152120000Y-137400000D01*
X153880000Y-137400000D02*
X153880000Y-138600000D01*
G04 #@! TO.C,R27*
X157576234Y-115302060D02*
X158776234Y-115302060D01*
X158776234Y-117062060D02*
X157576234Y-117062060D01*
G04 #@! TO.C,R28*
X157400000Y-141120000D02*
X158600000Y-141120000D01*
X158600000Y-142880000D02*
X157400000Y-142880000D01*
G04 #@! TO.C,R29*
X152296234Y-125782060D02*
X152296234Y-124582060D01*
X154056234Y-124582060D02*
X154056234Y-125782060D01*
G04 #@! TO.C,R30*
X152120000Y-151600000D02*
X152120000Y-150400000D01*
X153880000Y-150400000D02*
X153880000Y-151600000D01*
D14*
G04 #@! TO.C,U1*
X127300000Y-93000000D02*
G75*
G03X127300000Y-93000000I-500000J0D01*
G01*
X125500000Y-94000000D02*
X125500000Y-90000000D01*
X130500000Y-94000000D02*
X130500000Y-90000000D01*
D13*
G04 #@! TO.C,C15*
X117500000Y-90150000D02*
X116500000Y-90150000D01*
X116500000Y-91850000D02*
X117500000Y-91850000D01*
G04 #@! TO.C,C16*
X117500000Y-83150000D02*
X116500000Y-83150000D01*
X116500000Y-84850000D02*
X117500000Y-84850000D01*
G04 #@! TO.C,C17*
X109000000Y-90150000D02*
X108000000Y-90150000D01*
X108000000Y-91850000D02*
X109000000Y-91850000D01*
G04 #@! TO.C,C18*
X109000000Y-83150000D02*
X108000000Y-83150000D01*
X108000000Y-84850000D02*
X109000000Y-84850000D01*
D14*
G04 #@! TO.C,D1*
X128400000Y-81125000D02*
X127600000Y-81125000D01*
X129520000Y-82875000D02*
X128600000Y-82875000D01*
X126480000Y-82875000D02*
X127400000Y-82875000D01*
X129520000Y-81125000D02*
X129520000Y-82875000D01*
X126480000Y-82875000D02*
X126480000Y-81125000D01*
G04 #@! TO.C,D2*
X138400000Y-81125000D02*
X137600000Y-81125000D01*
X139520000Y-82875000D02*
X138600000Y-82875000D01*
X136480000Y-82875000D02*
X137400000Y-82875000D01*
X139520000Y-81125000D02*
X139520000Y-82875000D01*
X136480000Y-82875000D02*
X136480000Y-81125000D01*
G04 #@! TO.C,U2*
X137300000Y-93000000D02*
G75*
G03X137300000Y-93000000I-500000J0D01*
G01*
X135500000Y-94000000D02*
X135500000Y-90000000D01*
X140500000Y-94000000D02*
X140500000Y-90000000D01*
D13*
G04 #@! TO.C,C19*
X103150000Y-69500000D02*
X103150000Y-70500000D01*
X104850000Y-70500000D02*
X104850000Y-69500000D01*
G04 #@! TO.C,C20*
X106150000Y-139500000D02*
X106150000Y-140500000D01*
X107850000Y-140500000D02*
X107850000Y-139500000D01*
G04 #@! TO.C,C21*
X107850000Y-146500000D02*
X107850000Y-145500000D01*
X106150000Y-145500000D02*
X106150000Y-146500000D01*
G04 #@! TO.C,C22*
X106150000Y-150500000D02*
X106150000Y-151500000D01*
X107850000Y-151500000D02*
X107850000Y-150500000D01*
G04 #@! TO.C,C23*
X126500000Y-122150000D02*
X125500000Y-122150000D01*
X125500000Y-123850000D02*
X126500000Y-123850000D01*
G04 #@! TO.C,C24*
X133500000Y-65850000D02*
X134500000Y-65850000D01*
X134500000Y-64150000D02*
X133500000Y-64150000D01*
G04 #@! TO.C,C25*
X134500000Y-56150000D02*
X133500000Y-56150000D01*
X133500000Y-57850000D02*
X134500000Y-57850000D01*
G04 #@! TO.C,C26*
X126500000Y-59150000D02*
X125500000Y-59150000D01*
X125500000Y-60850000D02*
X126500000Y-60850000D01*
G04 #@! TO.C,C27*
X120500000Y-60850000D02*
X121500000Y-60850000D01*
X121500000Y-59150000D02*
X120500000Y-59150000D01*
G04 #@! TO.C,C28*
X93150000Y-69500000D02*
X93150000Y-70500000D01*
X94850000Y-70500000D02*
X94850000Y-69500000D01*
D14*
G04 #@! TO.C,J7*
X111400000Y-154000000D02*
X111400000Y-157000000D01*
X140400000Y-154000000D02*
X140400000Y-157000000D01*
X140400000Y-157000000D02*
X111400000Y-157000000D01*
X140400000Y-126500000D02*
X140400000Y-132000000D01*
X140400000Y-126500000D02*
X135600000Y-126500000D01*
X111400000Y-126500000D02*
X114200000Y-126500000D01*
X111400000Y-132000000D02*
X111400000Y-126500000D01*
X111400000Y-137000000D02*
X111400000Y-135000000D01*
X111400000Y-146000000D02*
X111400000Y-139000000D01*
X140400000Y-151000000D02*
X140400000Y-135000000D01*
G04 #@! TO.C,Q17*
X159269689Y-108938929D02*
X159269689Y-107978929D01*
X159269689Y-108938929D02*
X158019689Y-108938929D01*
X158019689Y-105818929D02*
X159269689Y-105818929D01*
X159269689Y-105818929D02*
X159269689Y-106778929D01*
X157769689Y-106978929D02*
X157769689Y-107778929D01*
G04 #@! TO.C,Q18*
X158750000Y-134560000D02*
X158750000Y-133600000D01*
X158750000Y-134560000D02*
X157500000Y-134560000D01*
X157500000Y-131440000D02*
X158750000Y-131440000D01*
X158750000Y-131440000D02*
X158750000Y-132400000D01*
X157250000Y-132600000D02*
X157250000Y-133400000D01*
G04 #@! TO.C,Q21*
X158926234Y-121742060D02*
X158926234Y-120782060D01*
X158926234Y-121742060D02*
X157676234Y-121742060D01*
X157676234Y-118622060D02*
X158926234Y-118622060D01*
X158926234Y-118622060D02*
X158926234Y-119582060D01*
X157426234Y-119782060D02*
X157426234Y-120582060D01*
G04 #@! TO.C,Q22*
X158750000Y-147560000D02*
X158750000Y-146600000D01*
X158750000Y-147560000D02*
X157500000Y-147560000D01*
X157500000Y-144440000D02*
X158750000Y-144440000D01*
X158750000Y-144440000D02*
X158750000Y-145400000D01*
X157250000Y-145600000D02*
X157250000Y-146400000D01*
D13*
G04 #@! TO.C,R38*
X130380000Y-64400000D02*
X130380000Y-65600000D01*
X128620000Y-65600000D02*
X128620000Y-64400000D01*
G04 #@! TO.C,R39*
X139400000Y-65120000D02*
X140600000Y-65120000D01*
X140600000Y-66880000D02*
X139400000Y-66880000D01*
G04 #@! TO.C,R40*
X139400000Y-58120000D02*
X140600000Y-58120000D01*
X140600000Y-59880000D02*
X139400000Y-59880000D01*
G04 #@! TO.C,R41*
X121400000Y-56120000D02*
X122600000Y-56120000D01*
X122600000Y-57880000D02*
X121400000Y-57880000D01*
G04 #@! TO.C,R42*
X122600000Y-63880000D02*
X121400000Y-63880000D01*
X121400000Y-62120000D02*
X122600000Y-62120000D01*
D14*
G04 #@! TO.C,T1*
X104650000Y-57445000D02*
X106000000Y-57445000D01*
X117350000Y-57445000D02*
X116000000Y-57445000D01*
X117350000Y-64555000D02*
X116000000Y-64555000D01*
X104650000Y-64555000D02*
X106000000Y-64555000D01*
X116080000Y-59095000D02*
G75*
G03X116080000Y-59095000I-635000J0D01*
G01*
X117350000Y-57445000D02*
X117350000Y-64555000D01*
X104650000Y-57445000D02*
X104650000Y-64555000D01*
G04 #@! TO.C,U5*
X135100000Y-62200000D02*
G75*
G03X135100000Y-62200000I-300000J0D01*
G01*
X135551000Y-63070500D02*
X132449000Y-63070500D01*
X135551000Y-58929500D02*
X132449000Y-58929500D01*
D13*
G04 #@! TO.C,U6*
X102050000Y-69725000D02*
X102400000Y-69725000D01*
X102400000Y-69725000D02*
X102400000Y-71225000D01*
X97400000Y-69725000D02*
X100600000Y-69725000D01*
X95600000Y-71225000D02*
X95600000Y-69725000D01*
X95600000Y-69725000D02*
X96000000Y-69725000D01*
G04 #@! TO.C,R35*
X111620000Y-91100000D02*
X111620000Y-89900000D01*
X113380000Y-89900000D02*
X113380000Y-91100000D01*
G04 #@! TO.C,R36*
X113380000Y-82900000D02*
X113380000Y-84100000D01*
X111620000Y-84100000D02*
X111620000Y-82900000D01*
G04 #@! TO.C,C1*
D15*
X127833333Y-100107142D02*
X127785714Y-100154761D01*
X127642857Y-100202380D01*
X127547619Y-100202380D01*
X127404761Y-100154761D01*
X127309523Y-100059523D01*
X127261904Y-99964285D01*
X127214285Y-99773809D01*
X127214285Y-99630952D01*
X127261904Y-99440476D01*
X127309523Y-99345238D01*
X127404761Y-99250000D01*
X127547619Y-99202380D01*
X127642857Y-99202380D01*
X127785714Y-99250000D01*
X127833333Y-99297619D01*
X128785714Y-100202380D02*
X128214285Y-100202380D01*
X128500000Y-100202380D02*
X128500000Y-99202380D01*
X128404761Y-99345238D01*
X128309523Y-99440476D01*
X128214285Y-99488095D01*
G04 #@! TO.C,C2*
X128833333Y-88107142D02*
X128785714Y-88154761D01*
X128642857Y-88202380D01*
X128547619Y-88202380D01*
X128404761Y-88154761D01*
X128309523Y-88059523D01*
X128261904Y-87964285D01*
X128214285Y-87773809D01*
X128214285Y-87630952D01*
X128261904Y-87440476D01*
X128309523Y-87345238D01*
X128404761Y-87250000D01*
X128547619Y-87202380D01*
X128642857Y-87202380D01*
X128785714Y-87250000D01*
X128833333Y-87297619D01*
X129214285Y-87297619D02*
X129261904Y-87250000D01*
X129357142Y-87202380D01*
X129595238Y-87202380D01*
X129690476Y-87250000D01*
X129738095Y-87297619D01*
X129785714Y-87392857D01*
X129785714Y-87488095D01*
X129738095Y-87630952D01*
X129166666Y-88202380D01*
X129785714Y-88202380D01*
G04 #@! TO.C,C3*
X137833333Y-100107142D02*
X137785714Y-100154761D01*
X137642857Y-100202380D01*
X137547619Y-100202380D01*
X137404761Y-100154761D01*
X137309523Y-100059523D01*
X137261904Y-99964285D01*
X137214285Y-99773809D01*
X137214285Y-99630952D01*
X137261904Y-99440476D01*
X137309523Y-99345238D01*
X137404761Y-99250000D01*
X137547619Y-99202380D01*
X137642857Y-99202380D01*
X137785714Y-99250000D01*
X137833333Y-99297619D01*
X138166666Y-99202380D02*
X138785714Y-99202380D01*
X138452380Y-99583333D01*
X138595238Y-99583333D01*
X138690476Y-99630952D01*
X138738095Y-99678571D01*
X138785714Y-99773809D01*
X138785714Y-100011904D01*
X138738095Y-100107142D01*
X138690476Y-100154761D01*
X138595238Y-100202380D01*
X138309523Y-100202380D01*
X138214285Y-100154761D01*
X138166666Y-100107142D01*
G04 #@! TO.C,C4*
X138833333Y-88107142D02*
X138785714Y-88154761D01*
X138642857Y-88202380D01*
X138547619Y-88202380D01*
X138404761Y-88154761D01*
X138309523Y-88059523D01*
X138261904Y-87964285D01*
X138214285Y-87773809D01*
X138214285Y-87630952D01*
X138261904Y-87440476D01*
X138309523Y-87345238D01*
X138404761Y-87250000D01*
X138547619Y-87202380D01*
X138642857Y-87202380D01*
X138785714Y-87250000D01*
X138833333Y-87297619D01*
X139690476Y-87535714D02*
X139690476Y-88202380D01*
X139452380Y-87154761D02*
X139214285Y-87869047D01*
X139833333Y-87869047D01*
G04 #@! TO.C,J1*
X97182380Y-91443333D02*
X97896666Y-91443333D01*
X98039523Y-91490952D01*
X98134761Y-91586190D01*
X98182380Y-91729047D01*
X98182380Y-91824285D01*
X98182380Y-90443333D02*
X98182380Y-91014761D01*
X98182380Y-90729047D02*
X97182380Y-90729047D01*
X97325238Y-90824285D01*
X97420476Y-90919523D01*
X97468095Y-91014761D01*
G04 #@! TO.C,J2*
X97182380Y-123193333D02*
X97896666Y-123193333D01*
X98039523Y-123240952D01*
X98134761Y-123336190D01*
X98182380Y-123479047D01*
X98182380Y-123574285D01*
X97277619Y-122764761D02*
X97230000Y-122717142D01*
X97182380Y-122621904D01*
X97182380Y-122383809D01*
X97230000Y-122288571D01*
X97277619Y-122240952D01*
X97372857Y-122193333D01*
X97468095Y-122193333D01*
X97610952Y-122240952D01*
X98182380Y-122812380D01*
X98182380Y-122193333D01*
G04 #@! TO.C,J4*
X142902380Y-85103333D02*
X143616666Y-85103333D01*
X143759523Y-85150952D01*
X143854761Y-85246190D01*
X143902380Y-85389047D01*
X143902380Y-85484285D01*
X143235714Y-84198571D02*
X143902380Y-84198571D01*
X142854761Y-84436666D02*
X143569047Y-84674761D01*
X143569047Y-84055714D01*
G04 #@! TO.C,J5*
X144066666Y-97852380D02*
X144066666Y-98566666D01*
X144019047Y-98709523D01*
X143923809Y-98804761D01*
X143780952Y-98852380D01*
X143685714Y-98852380D01*
X145019047Y-97852380D02*
X144542857Y-97852380D01*
X144495238Y-98328571D01*
X144542857Y-98280952D01*
X144638095Y-98233333D01*
X144876190Y-98233333D01*
X144971428Y-98280952D01*
X145019047Y-98328571D01*
X145066666Y-98423809D01*
X145066666Y-98661904D01*
X145019047Y-98757142D01*
X144971428Y-98804761D01*
X144876190Y-98852380D01*
X144638095Y-98852380D01*
X144542857Y-98804761D01*
X144495238Y-98757142D01*
G04 #@! TO.C,Q1*
D16*
X153471308Y-106657119D02*
X153422927Y-106632929D01*
X153374546Y-106584548D01*
X153301974Y-106511976D01*
X153253593Y-106487786D01*
X153205212Y-106487786D01*
X153229403Y-106608738D02*
X153181022Y-106584548D01*
X153132641Y-106536167D01*
X153108450Y-106439405D01*
X153108450Y-106270071D01*
X153132641Y-106173309D01*
X153181022Y-106124929D01*
X153229403Y-106100738D01*
X153326165Y-106100738D01*
X153374546Y-106124929D01*
X153422927Y-106173309D01*
X153447117Y-106270071D01*
X153447117Y-106439405D01*
X153422927Y-106536167D01*
X153374546Y-106584548D01*
X153326165Y-106608738D01*
X153229403Y-106608738D01*
X153930927Y-106608738D02*
X153640641Y-106608738D01*
X153785784Y-106608738D02*
X153785784Y-106100738D01*
X153737403Y-106173309D01*
X153689022Y-106221690D01*
X153640641Y-106245881D01*
G04 #@! TO.C,Q2*
X152951619Y-132278190D02*
X152903238Y-132254000D01*
X152854857Y-132205619D01*
X152782285Y-132133047D01*
X152733904Y-132108857D01*
X152685523Y-132108857D01*
X152709714Y-132229809D02*
X152661333Y-132205619D01*
X152612952Y-132157238D01*
X152588761Y-132060476D01*
X152588761Y-131891142D01*
X152612952Y-131794380D01*
X152661333Y-131746000D01*
X152709714Y-131721809D01*
X152806476Y-131721809D01*
X152854857Y-131746000D01*
X152903238Y-131794380D01*
X152927428Y-131891142D01*
X152927428Y-132060476D01*
X152903238Y-132157238D01*
X152854857Y-132205619D01*
X152806476Y-132229809D01*
X152709714Y-132229809D01*
X153120952Y-131770190D02*
X153145142Y-131746000D01*
X153193523Y-131721809D01*
X153314476Y-131721809D01*
X153362857Y-131746000D01*
X153387047Y-131770190D01*
X153411238Y-131818571D01*
X153411238Y-131866952D01*
X153387047Y-131939523D01*
X153096761Y-132229809D01*
X153411238Y-132229809D01*
G04 #@! TO.C,Q3*
X158797879Y-111427309D02*
X158773689Y-111475690D01*
X158725308Y-111524071D01*
X158652736Y-111596643D01*
X158628546Y-111645024D01*
X158628546Y-111693405D01*
X158749498Y-111669214D02*
X158725308Y-111717595D01*
X158676927Y-111765976D01*
X158580165Y-111790167D01*
X158410831Y-111790167D01*
X158314069Y-111765976D01*
X158265689Y-111717595D01*
X158241498Y-111669214D01*
X158241498Y-111572452D01*
X158265689Y-111524071D01*
X158314069Y-111475690D01*
X158410831Y-111451500D01*
X158580165Y-111451500D01*
X158676927Y-111475690D01*
X158725308Y-111524071D01*
X158749498Y-111572452D01*
X158749498Y-111669214D01*
X158241498Y-111282167D02*
X158241498Y-110967690D01*
X158435022Y-111137024D01*
X158435022Y-111064452D01*
X158459212Y-111016071D01*
X158483403Y-110991881D01*
X158531784Y-110967690D01*
X158652736Y-110967690D01*
X158701117Y-110991881D01*
X158725308Y-111016071D01*
X158749498Y-111064452D01*
X158749498Y-111209595D01*
X158725308Y-111257976D01*
X158701117Y-111282167D01*
G04 #@! TO.C,Q4*
X158278190Y-137048380D02*
X158254000Y-137096761D01*
X158205619Y-137145142D01*
X158133047Y-137217714D01*
X158108857Y-137266095D01*
X158108857Y-137314476D01*
X158229809Y-137290285D02*
X158205619Y-137338666D01*
X158157238Y-137387047D01*
X158060476Y-137411238D01*
X157891142Y-137411238D01*
X157794380Y-137387047D01*
X157746000Y-137338666D01*
X157721809Y-137290285D01*
X157721809Y-137193523D01*
X157746000Y-137145142D01*
X157794380Y-137096761D01*
X157891142Y-137072571D01*
X158060476Y-137072571D01*
X158157238Y-137096761D01*
X158205619Y-137145142D01*
X158229809Y-137193523D01*
X158229809Y-137290285D01*
X157891142Y-136637142D02*
X158229809Y-136637142D01*
X157697619Y-136758095D02*
X158060476Y-136879047D01*
X158060476Y-136564571D01*
G04 #@! TO.C,Q9*
X153127853Y-119460250D02*
X153079472Y-119436060D01*
X153031091Y-119387679D01*
X152958519Y-119315107D01*
X152910138Y-119290917D01*
X152861757Y-119290917D01*
X152885948Y-119411869D02*
X152837567Y-119387679D01*
X152789186Y-119339298D01*
X152764995Y-119242536D01*
X152764995Y-119073202D01*
X152789186Y-118976440D01*
X152837567Y-118928060D01*
X152885948Y-118903869D01*
X152982710Y-118903869D01*
X153031091Y-118928060D01*
X153079472Y-118976440D01*
X153103662Y-119073202D01*
X153103662Y-119242536D01*
X153079472Y-119339298D01*
X153031091Y-119387679D01*
X152982710Y-119411869D01*
X152885948Y-119411869D01*
X153345567Y-119411869D02*
X153442329Y-119411869D01*
X153490710Y-119387679D01*
X153514900Y-119363488D01*
X153563281Y-119290917D01*
X153587472Y-119194155D01*
X153587472Y-119000631D01*
X153563281Y-118952250D01*
X153539091Y-118928060D01*
X153490710Y-118903869D01*
X153393948Y-118903869D01*
X153345567Y-118928060D01*
X153321376Y-118952250D01*
X153297186Y-119000631D01*
X153297186Y-119121583D01*
X153321376Y-119169964D01*
X153345567Y-119194155D01*
X153393948Y-119218345D01*
X153490710Y-119218345D01*
X153539091Y-119194155D01*
X153563281Y-119169964D01*
X153587472Y-119121583D01*
G04 #@! TO.C,Q10*
X152709714Y-145278190D02*
X152661333Y-145254000D01*
X152612952Y-145205619D01*
X152540380Y-145133047D01*
X152492000Y-145108857D01*
X152443619Y-145108857D01*
X152467809Y-145229809D02*
X152419428Y-145205619D01*
X152371047Y-145157238D01*
X152346857Y-145060476D01*
X152346857Y-144891142D01*
X152371047Y-144794380D01*
X152419428Y-144746000D01*
X152467809Y-144721809D01*
X152564571Y-144721809D01*
X152612952Y-144746000D01*
X152661333Y-144794380D01*
X152685523Y-144891142D01*
X152685523Y-145060476D01*
X152661333Y-145157238D01*
X152612952Y-145205619D01*
X152564571Y-145229809D01*
X152467809Y-145229809D01*
X153169333Y-145229809D02*
X152879047Y-145229809D01*
X153024190Y-145229809D02*
X153024190Y-144721809D01*
X152975809Y-144794380D01*
X152927428Y-144842761D01*
X152879047Y-144866952D01*
X153483809Y-144721809D02*
X153532190Y-144721809D01*
X153580571Y-144746000D01*
X153604761Y-144770190D01*
X153628952Y-144818571D01*
X153653142Y-144915333D01*
X153653142Y-145036285D01*
X153628952Y-145133047D01*
X153604761Y-145181428D01*
X153580571Y-145205619D01*
X153532190Y-145229809D01*
X153483809Y-145229809D01*
X153435428Y-145205619D01*
X153411238Y-145181428D01*
X153387047Y-145133047D01*
X153362857Y-145036285D01*
X153362857Y-144915333D01*
X153387047Y-144818571D01*
X153411238Y-144770190D01*
X153435428Y-144746000D01*
X153483809Y-144721809D01*
G04 #@! TO.C,Q11*
X158454424Y-124472345D02*
X158430234Y-124520726D01*
X158381853Y-124569107D01*
X158309281Y-124641679D01*
X158285091Y-124690060D01*
X158285091Y-124738440D01*
X158406043Y-124714250D02*
X158381853Y-124762631D01*
X158333472Y-124811012D01*
X158236710Y-124835202D01*
X158067376Y-124835202D01*
X157970614Y-124811012D01*
X157922234Y-124762631D01*
X157898043Y-124714250D01*
X157898043Y-124617488D01*
X157922234Y-124569107D01*
X157970614Y-124520726D01*
X158067376Y-124496536D01*
X158236710Y-124496536D01*
X158333472Y-124520726D01*
X158381853Y-124569107D01*
X158406043Y-124617488D01*
X158406043Y-124714250D01*
X158406043Y-124012726D02*
X158406043Y-124303012D01*
X158406043Y-124157869D02*
X157898043Y-124157869D01*
X157970614Y-124206250D01*
X158018995Y-124254631D01*
X158043186Y-124303012D01*
X158406043Y-123528917D02*
X158406043Y-123819202D01*
X158406043Y-123674060D02*
X157898043Y-123674060D01*
X157970614Y-123722440D01*
X158018995Y-123770821D01*
X158043186Y-123819202D01*
G04 #@! TO.C,Q12*
X158278190Y-150290285D02*
X158254000Y-150338666D01*
X158205619Y-150387047D01*
X158133047Y-150459619D01*
X158108857Y-150508000D01*
X158108857Y-150556380D01*
X158229809Y-150532190D02*
X158205619Y-150580571D01*
X158157238Y-150628952D01*
X158060476Y-150653142D01*
X157891142Y-150653142D01*
X157794380Y-150628952D01*
X157746000Y-150580571D01*
X157721809Y-150532190D01*
X157721809Y-150435428D01*
X157746000Y-150387047D01*
X157794380Y-150338666D01*
X157891142Y-150314476D01*
X158060476Y-150314476D01*
X158157238Y-150338666D01*
X158205619Y-150387047D01*
X158229809Y-150435428D01*
X158229809Y-150532190D01*
X158229809Y-149830666D02*
X158229809Y-150120952D01*
X158229809Y-149975809D02*
X157721809Y-149975809D01*
X157794380Y-150024190D01*
X157842761Y-150072571D01*
X157866952Y-150120952D01*
X157770190Y-149637142D02*
X157746000Y-149612952D01*
X157721809Y-149564571D01*
X157721809Y-149443619D01*
X157746000Y-149395238D01*
X157770190Y-149371047D01*
X157818571Y-149346857D01*
X157866952Y-149346857D01*
X157939523Y-149371047D01*
X158229809Y-149661333D01*
X158229809Y-149346857D01*
G04 #@! TO.C,R2*
D15*
X123452380Y-82166666D02*
X122976190Y-82500000D01*
X123452380Y-82738095D02*
X122452380Y-82738095D01*
X122452380Y-82357142D01*
X122500000Y-82261904D01*
X122547619Y-82214285D01*
X122642857Y-82166666D01*
X122785714Y-82166666D01*
X122880952Y-82214285D01*
X122928571Y-82261904D01*
X122976190Y-82357142D01*
X122976190Y-82738095D01*
X122547619Y-81785714D02*
X122500000Y-81738095D01*
X122452380Y-81642857D01*
X122452380Y-81404761D01*
X122500000Y-81309523D01*
X122547619Y-81261904D01*
X122642857Y-81214285D01*
X122738095Y-81214285D01*
X122880952Y-81261904D01*
X123452380Y-81833333D01*
X123452380Y-81214285D01*
G04 #@! TO.C,R3*
X133452380Y-82166666D02*
X132976190Y-82500000D01*
X133452380Y-82738095D02*
X132452380Y-82738095D01*
X132452380Y-82357142D01*
X132500000Y-82261904D01*
X132547619Y-82214285D01*
X132642857Y-82166666D01*
X132785714Y-82166666D01*
X132880952Y-82214285D01*
X132928571Y-82261904D01*
X132976190Y-82357142D01*
X132976190Y-82738095D01*
X132452380Y-81833333D02*
X132452380Y-81214285D01*
X132833333Y-81547619D01*
X132833333Y-81404761D01*
X132880952Y-81309523D01*
X132928571Y-81261904D01*
X133023809Y-81214285D01*
X133261904Y-81214285D01*
X133357142Y-81261904D01*
X133404761Y-81309523D01*
X133452380Y-81404761D01*
X133452380Y-81690476D01*
X133404761Y-81785714D01*
X133357142Y-81833333D01*
G04 #@! TO.C,R5*
X133452380Y-82166666D02*
X132976190Y-82500000D01*
X133452380Y-82738095D02*
X132452380Y-82738095D01*
X132452380Y-82357142D01*
X132500000Y-82261904D01*
X132547619Y-82214285D01*
X132642857Y-82166666D01*
X132785714Y-82166666D01*
X132880952Y-82214285D01*
X132928571Y-82261904D01*
X132976190Y-82357142D01*
X132976190Y-82738095D01*
X132452380Y-81261904D02*
X132452380Y-81738095D01*
X132928571Y-81785714D01*
X132880952Y-81738095D01*
X132833333Y-81642857D01*
X132833333Y-81404761D01*
X132880952Y-81309523D01*
X132928571Y-81261904D01*
X133023809Y-81214285D01*
X133261904Y-81214285D01*
X133357142Y-81261904D01*
X133404761Y-81309523D01*
X133452380Y-81404761D01*
X133452380Y-81642857D01*
X133404761Y-81738095D01*
X133357142Y-81785714D01*
G04 #@! TO.C,R6*
X143452380Y-82166666D02*
X142976190Y-82500000D01*
X143452380Y-82738095D02*
X142452380Y-82738095D01*
X142452380Y-82357142D01*
X142500000Y-82261904D01*
X142547619Y-82214285D01*
X142642857Y-82166666D01*
X142785714Y-82166666D01*
X142880952Y-82214285D01*
X142928571Y-82261904D01*
X142976190Y-82357142D01*
X142976190Y-82738095D01*
X142452380Y-81309523D02*
X142452380Y-81500000D01*
X142500000Y-81595238D01*
X142547619Y-81642857D01*
X142690476Y-81738095D01*
X142880952Y-81785714D01*
X143261904Y-81785714D01*
X143357142Y-81738095D01*
X143404761Y-81690476D01*
X143452380Y-81595238D01*
X143452380Y-81404761D01*
X143404761Y-81309523D01*
X143357142Y-81261904D01*
X143261904Y-81214285D01*
X143023809Y-81214285D01*
X142928571Y-81261904D01*
X142880952Y-81309523D01*
X142833333Y-81404761D01*
X142833333Y-81595238D01*
X142880952Y-81690476D01*
X142928571Y-81738095D01*
X143023809Y-81785714D01*
G04 #@! TO.C,R15*
X116357142Y-87452380D02*
X116023809Y-86976190D01*
X115785714Y-87452380D02*
X115785714Y-86452380D01*
X116166666Y-86452380D01*
X116261904Y-86500000D01*
X116309523Y-86547619D01*
X116357142Y-86642857D01*
X116357142Y-86785714D01*
X116309523Y-86880952D01*
X116261904Y-86928571D01*
X116166666Y-86976190D01*
X115785714Y-86976190D01*
X117309523Y-87452380D02*
X116738095Y-87452380D01*
X117023809Y-87452380D02*
X117023809Y-86452380D01*
X116928571Y-86595238D01*
X116833333Y-86690476D01*
X116738095Y-86738095D01*
X118214285Y-86452380D02*
X117738095Y-86452380D01*
X117690476Y-86928571D01*
X117738095Y-86880952D01*
X117833333Y-86833333D01*
X118071428Y-86833333D01*
X118166666Y-86880952D01*
X118214285Y-86928571D01*
X118261904Y-87023809D01*
X118261904Y-87261904D01*
X118214285Y-87357142D01*
X118166666Y-87404761D01*
X118071428Y-87452380D01*
X117833333Y-87452380D01*
X117738095Y-87404761D01*
X117690476Y-87357142D01*
G04 #@! TO.C,R16*
X116357142Y-80452380D02*
X116023809Y-79976190D01*
X115785714Y-80452380D02*
X115785714Y-79452380D01*
X116166666Y-79452380D01*
X116261904Y-79500000D01*
X116309523Y-79547619D01*
X116357142Y-79642857D01*
X116357142Y-79785714D01*
X116309523Y-79880952D01*
X116261904Y-79928571D01*
X116166666Y-79976190D01*
X115785714Y-79976190D01*
X117309523Y-80452380D02*
X116738095Y-80452380D01*
X117023809Y-80452380D02*
X117023809Y-79452380D01*
X116928571Y-79595238D01*
X116833333Y-79690476D01*
X116738095Y-79738095D01*
X118166666Y-79452380D02*
X117976190Y-79452380D01*
X117880952Y-79500000D01*
X117833333Y-79547619D01*
X117738095Y-79690476D01*
X117690476Y-79880952D01*
X117690476Y-80261904D01*
X117738095Y-80357142D01*
X117785714Y-80404761D01*
X117880952Y-80452380D01*
X118071428Y-80452380D01*
X118166666Y-80404761D01*
X118214285Y-80357142D01*
X118261904Y-80261904D01*
X118261904Y-80023809D01*
X118214285Y-79928571D01*
X118166666Y-79880952D01*
X118071428Y-79833333D01*
X117880952Y-79833333D01*
X117785714Y-79880952D01*
X117738095Y-79928571D01*
X117690476Y-80023809D01*
G04 #@! TO.C,R17*
X107857142Y-87452380D02*
X107523809Y-86976190D01*
X107285714Y-87452380D02*
X107285714Y-86452380D01*
X107666666Y-86452380D01*
X107761904Y-86500000D01*
X107809523Y-86547619D01*
X107857142Y-86642857D01*
X107857142Y-86785714D01*
X107809523Y-86880952D01*
X107761904Y-86928571D01*
X107666666Y-86976190D01*
X107285714Y-86976190D01*
X108809523Y-87452380D02*
X108238095Y-87452380D01*
X108523809Y-87452380D02*
X108523809Y-86452380D01*
X108428571Y-86595238D01*
X108333333Y-86690476D01*
X108238095Y-86738095D01*
X109142857Y-86452380D02*
X109809523Y-86452380D01*
X109380952Y-87452380D01*
G04 #@! TO.C,R18*
X107857142Y-80452380D02*
X107523809Y-79976190D01*
X107285714Y-80452380D02*
X107285714Y-79452380D01*
X107666666Y-79452380D01*
X107761904Y-79500000D01*
X107809523Y-79547619D01*
X107857142Y-79642857D01*
X107857142Y-79785714D01*
X107809523Y-79880952D01*
X107761904Y-79928571D01*
X107666666Y-79976190D01*
X107285714Y-79976190D01*
X108809523Y-80452380D02*
X108238095Y-80452380D01*
X108523809Y-80452380D02*
X108523809Y-79452380D01*
X108428571Y-79595238D01*
X108333333Y-79690476D01*
X108238095Y-79738095D01*
X109380952Y-79880952D02*
X109285714Y-79833333D01*
X109238095Y-79785714D01*
X109190476Y-79690476D01*
X109190476Y-79642857D01*
X109238095Y-79547619D01*
X109285714Y-79500000D01*
X109380952Y-79452380D01*
X109571428Y-79452380D01*
X109666666Y-79500000D01*
X109714285Y-79547619D01*
X109761904Y-79642857D01*
X109761904Y-79690476D01*
X109714285Y-79785714D01*
X109666666Y-79833333D01*
X109571428Y-79880952D01*
X109380952Y-79880952D01*
X109285714Y-79928571D01*
X109238095Y-79976190D01*
X109190476Y-80071428D01*
X109190476Y-80261904D01*
X109238095Y-80357142D01*
X109285714Y-80404761D01*
X109380952Y-80452380D01*
X109571428Y-80452380D01*
X109666666Y-80404761D01*
X109714285Y-80357142D01*
X109761904Y-80261904D01*
X109761904Y-80071428D01*
X109714285Y-79976190D01*
X109666666Y-79928571D01*
X109571428Y-79880952D01*
G04 #@! TO.C,R19*
X157876831Y-102131309D02*
X157543498Y-101655119D01*
X157305403Y-102131309D02*
X157305403Y-101131309D01*
X157686355Y-101131309D01*
X157781593Y-101178929D01*
X157829212Y-101226548D01*
X157876831Y-101321786D01*
X157876831Y-101464643D01*
X157829212Y-101559881D01*
X157781593Y-101607500D01*
X157686355Y-101655119D01*
X157305403Y-101655119D01*
X158829212Y-102131309D02*
X158257784Y-102131309D01*
X158543498Y-102131309D02*
X158543498Y-101131309D01*
X158448260Y-101274167D01*
X158353022Y-101369405D01*
X158257784Y-101417024D01*
X159305403Y-102131309D02*
X159495879Y-102131309D01*
X159591117Y-102083690D01*
X159638736Y-102036071D01*
X159733974Y-101893214D01*
X159781593Y-101702738D01*
X159781593Y-101321786D01*
X159733974Y-101226548D01*
X159686355Y-101178929D01*
X159591117Y-101131309D01*
X159400641Y-101131309D01*
X159305403Y-101178929D01*
X159257784Y-101226548D01*
X159210165Y-101321786D01*
X159210165Y-101559881D01*
X159257784Y-101655119D01*
X159305403Y-101702738D01*
X159400641Y-101750357D01*
X159591117Y-101750357D01*
X159686355Y-101702738D01*
X159733974Y-101655119D01*
X159781593Y-101559881D01*
G04 #@! TO.C,R20*
X157357142Y-127752380D02*
X157023809Y-127276190D01*
X156785714Y-127752380D02*
X156785714Y-126752380D01*
X157166666Y-126752380D01*
X157261904Y-126800000D01*
X157309523Y-126847619D01*
X157357142Y-126942857D01*
X157357142Y-127085714D01*
X157309523Y-127180952D01*
X157261904Y-127228571D01*
X157166666Y-127276190D01*
X156785714Y-127276190D01*
X157738095Y-126847619D02*
X157785714Y-126800000D01*
X157880952Y-126752380D01*
X158119047Y-126752380D01*
X158214285Y-126800000D01*
X158261904Y-126847619D01*
X158309523Y-126942857D01*
X158309523Y-127038095D01*
X158261904Y-127180952D01*
X157690476Y-127752380D01*
X158309523Y-127752380D01*
X158928571Y-126752380D02*
X159023809Y-126752380D01*
X159119047Y-126800000D01*
X159166666Y-126847619D01*
X159214285Y-126942857D01*
X159261904Y-127133333D01*
X159261904Y-127371428D01*
X159214285Y-127561904D01*
X159166666Y-127657142D01*
X159119047Y-127704761D01*
X159023809Y-127752380D01*
X158928571Y-127752380D01*
X158833333Y-127704761D01*
X158785714Y-127657142D01*
X158738095Y-127561904D01*
X158690476Y-127371428D01*
X158690476Y-127133333D01*
X158738095Y-126942857D01*
X158785714Y-126847619D01*
X158833333Y-126800000D01*
X158928571Y-126752380D01*
G04 #@! TO.C,R21*
X152272069Y-113021786D02*
X151795879Y-113355119D01*
X152272069Y-113593214D02*
X151272069Y-113593214D01*
X151272069Y-113212262D01*
X151319689Y-113117024D01*
X151367308Y-113069405D01*
X151462546Y-113021786D01*
X151605403Y-113021786D01*
X151700641Y-113069405D01*
X151748260Y-113117024D01*
X151795879Y-113212262D01*
X151795879Y-113593214D01*
X151367308Y-112640833D02*
X151319689Y-112593214D01*
X151272069Y-112497976D01*
X151272069Y-112259881D01*
X151319689Y-112164643D01*
X151367308Y-112117024D01*
X151462546Y-112069405D01*
X151557784Y-112069405D01*
X151700641Y-112117024D01*
X152272069Y-112688452D01*
X152272069Y-112069405D01*
X152272069Y-111117024D02*
X152272069Y-111688452D01*
X152272069Y-111402738D02*
X151272069Y-111402738D01*
X151414927Y-111497976D01*
X151510165Y-111593214D01*
X151557784Y-111688452D01*
G04 #@! TO.C,R22*
X151752380Y-138642857D02*
X151276190Y-138976190D01*
X151752380Y-139214285D02*
X150752380Y-139214285D01*
X150752380Y-138833333D01*
X150800000Y-138738095D01*
X150847619Y-138690476D01*
X150942857Y-138642857D01*
X151085714Y-138642857D01*
X151180952Y-138690476D01*
X151228571Y-138738095D01*
X151276190Y-138833333D01*
X151276190Y-139214285D01*
X150847619Y-138261904D02*
X150800000Y-138214285D01*
X150752380Y-138119047D01*
X150752380Y-137880952D01*
X150800000Y-137785714D01*
X150847619Y-137738095D01*
X150942857Y-137690476D01*
X151038095Y-137690476D01*
X151180952Y-137738095D01*
X151752380Y-138309523D01*
X151752380Y-137690476D01*
X150847619Y-137309523D02*
X150800000Y-137261904D01*
X150752380Y-137166666D01*
X150752380Y-136928571D01*
X150800000Y-136833333D01*
X150847619Y-136785714D01*
X150942857Y-136738095D01*
X151038095Y-136738095D01*
X151180952Y-136785714D01*
X151752380Y-137357142D01*
X151752380Y-136738095D01*
G04 #@! TO.C,R27*
X157533376Y-114634440D02*
X157200043Y-114158250D01*
X156961948Y-114634440D02*
X156961948Y-113634440D01*
X157342900Y-113634440D01*
X157438138Y-113682060D01*
X157485757Y-113729679D01*
X157533376Y-113824917D01*
X157533376Y-113967774D01*
X157485757Y-114063012D01*
X157438138Y-114110631D01*
X157342900Y-114158250D01*
X156961948Y-114158250D01*
X157914329Y-113729679D02*
X157961948Y-113682060D01*
X158057186Y-113634440D01*
X158295281Y-113634440D01*
X158390519Y-113682060D01*
X158438138Y-113729679D01*
X158485757Y-113824917D01*
X158485757Y-113920155D01*
X158438138Y-114063012D01*
X157866710Y-114634440D01*
X158485757Y-114634440D01*
X158819091Y-113634440D02*
X159485757Y-113634440D01*
X159057186Y-114634440D01*
G04 #@! TO.C,R28*
X157357142Y-140752380D02*
X157023809Y-140276190D01*
X156785714Y-140752380D02*
X156785714Y-139752380D01*
X157166666Y-139752380D01*
X157261904Y-139800000D01*
X157309523Y-139847619D01*
X157357142Y-139942857D01*
X157357142Y-140085714D01*
X157309523Y-140180952D01*
X157261904Y-140228571D01*
X157166666Y-140276190D01*
X156785714Y-140276190D01*
X157738095Y-139847619D02*
X157785714Y-139800000D01*
X157880952Y-139752380D01*
X158119047Y-139752380D01*
X158214285Y-139800000D01*
X158261904Y-139847619D01*
X158309523Y-139942857D01*
X158309523Y-140038095D01*
X158261904Y-140180952D01*
X157690476Y-140752380D01*
X158309523Y-140752380D01*
X158880952Y-140180952D02*
X158785714Y-140133333D01*
X158738095Y-140085714D01*
X158690476Y-139990476D01*
X158690476Y-139942857D01*
X158738095Y-139847619D01*
X158785714Y-139800000D01*
X158880952Y-139752380D01*
X159071428Y-139752380D01*
X159166666Y-139800000D01*
X159214285Y-139847619D01*
X159261904Y-139942857D01*
X159261904Y-139990476D01*
X159214285Y-140085714D01*
X159166666Y-140133333D01*
X159071428Y-140180952D01*
X158880952Y-140180952D01*
X158785714Y-140228571D01*
X158738095Y-140276190D01*
X158690476Y-140371428D01*
X158690476Y-140561904D01*
X158738095Y-140657142D01*
X158785714Y-140704761D01*
X158880952Y-140752380D01*
X159071428Y-140752380D01*
X159166666Y-140704761D01*
X159214285Y-140657142D01*
X159261904Y-140561904D01*
X159261904Y-140371428D01*
X159214285Y-140276190D01*
X159166666Y-140228571D01*
X159071428Y-140180952D01*
G04 #@! TO.C,R29*
X151928614Y-125824917D02*
X151452424Y-126158250D01*
X151928614Y-126396345D02*
X150928614Y-126396345D01*
X150928614Y-126015393D01*
X150976234Y-125920155D01*
X151023853Y-125872536D01*
X151119091Y-125824917D01*
X151261948Y-125824917D01*
X151357186Y-125872536D01*
X151404805Y-125920155D01*
X151452424Y-126015393D01*
X151452424Y-126396345D01*
X151023853Y-125443964D02*
X150976234Y-125396345D01*
X150928614Y-125301107D01*
X150928614Y-125063012D01*
X150976234Y-124967774D01*
X151023853Y-124920155D01*
X151119091Y-124872536D01*
X151214329Y-124872536D01*
X151357186Y-124920155D01*
X151928614Y-125491583D01*
X151928614Y-124872536D01*
X151928614Y-124396345D02*
X151928614Y-124205869D01*
X151880995Y-124110631D01*
X151833376Y-124063012D01*
X151690519Y-123967774D01*
X151500043Y-123920155D01*
X151119091Y-123920155D01*
X151023853Y-123967774D01*
X150976234Y-124015393D01*
X150928614Y-124110631D01*
X150928614Y-124301107D01*
X150976234Y-124396345D01*
X151023853Y-124443964D01*
X151119091Y-124491583D01*
X151357186Y-124491583D01*
X151452424Y-124443964D01*
X151500043Y-124396345D01*
X151547662Y-124301107D01*
X151547662Y-124110631D01*
X151500043Y-124015393D01*
X151452424Y-123967774D01*
X151357186Y-123920155D01*
G04 #@! TO.C,R30*
X151752380Y-151642857D02*
X151276190Y-151976190D01*
X151752380Y-152214285D02*
X150752380Y-152214285D01*
X150752380Y-151833333D01*
X150800000Y-151738095D01*
X150847619Y-151690476D01*
X150942857Y-151642857D01*
X151085714Y-151642857D01*
X151180952Y-151690476D01*
X151228571Y-151738095D01*
X151276190Y-151833333D01*
X151276190Y-152214285D01*
X150752380Y-151309523D02*
X150752380Y-150690476D01*
X151133333Y-151023809D01*
X151133333Y-150880952D01*
X151180952Y-150785714D01*
X151228571Y-150738095D01*
X151323809Y-150690476D01*
X151561904Y-150690476D01*
X151657142Y-150738095D01*
X151704761Y-150785714D01*
X151752380Y-150880952D01*
X151752380Y-151166666D01*
X151704761Y-151261904D01*
X151657142Y-151309523D01*
X150752380Y-150071428D02*
X150752380Y-149976190D01*
X150800000Y-149880952D01*
X150847619Y-149833333D01*
X150942857Y-149785714D01*
X151133333Y-149738095D01*
X151371428Y-149738095D01*
X151561904Y-149785714D01*
X151657142Y-149833333D01*
X151704761Y-149880952D01*
X151752380Y-149976190D01*
X151752380Y-150071428D01*
X151704761Y-150166666D01*
X151657142Y-150214285D01*
X151561904Y-150261904D01*
X151371428Y-150309523D01*
X151133333Y-150309523D01*
X150942857Y-150261904D01*
X150847619Y-150214285D01*
X150800000Y-150166666D01*
X150752380Y-150071428D01*
G04 #@! TO.C,U1*
X127238095Y-90817380D02*
X127238095Y-91626904D01*
X127285714Y-91722142D01*
X127333333Y-91769761D01*
X127428571Y-91817380D01*
X127619047Y-91817380D01*
X127714285Y-91769761D01*
X127761904Y-91722142D01*
X127809523Y-91626904D01*
X127809523Y-90817380D01*
X128809523Y-91817380D02*
X128238095Y-91817380D01*
X128523809Y-91817380D02*
X128523809Y-90817380D01*
X128428571Y-90960238D01*
X128333333Y-91055476D01*
X128238095Y-91103095D01*
G04 #@! TO.C,C15*
X116357142Y-93107142D02*
X116309523Y-93154761D01*
X116166666Y-93202380D01*
X116071428Y-93202380D01*
X115928571Y-93154761D01*
X115833333Y-93059523D01*
X115785714Y-92964285D01*
X115738095Y-92773809D01*
X115738095Y-92630952D01*
X115785714Y-92440476D01*
X115833333Y-92345238D01*
X115928571Y-92250000D01*
X116071428Y-92202380D01*
X116166666Y-92202380D01*
X116309523Y-92250000D01*
X116357142Y-92297619D01*
X117309523Y-93202380D02*
X116738095Y-93202380D01*
X117023809Y-93202380D02*
X117023809Y-92202380D01*
X116928571Y-92345238D01*
X116833333Y-92440476D01*
X116738095Y-92488095D01*
X118214285Y-92202380D02*
X117738095Y-92202380D01*
X117690476Y-92678571D01*
X117738095Y-92630952D01*
X117833333Y-92583333D01*
X118071428Y-92583333D01*
X118166666Y-92630952D01*
X118214285Y-92678571D01*
X118261904Y-92773809D01*
X118261904Y-93011904D01*
X118214285Y-93107142D01*
X118166666Y-93154761D01*
X118071428Y-93202380D01*
X117833333Y-93202380D01*
X117738095Y-93154761D01*
X117690476Y-93107142D01*
G04 #@! TO.C,C16*
X116357142Y-86107142D02*
X116309523Y-86154761D01*
X116166666Y-86202380D01*
X116071428Y-86202380D01*
X115928571Y-86154761D01*
X115833333Y-86059523D01*
X115785714Y-85964285D01*
X115738095Y-85773809D01*
X115738095Y-85630952D01*
X115785714Y-85440476D01*
X115833333Y-85345238D01*
X115928571Y-85250000D01*
X116071428Y-85202380D01*
X116166666Y-85202380D01*
X116309523Y-85250000D01*
X116357142Y-85297619D01*
X117309523Y-86202380D02*
X116738095Y-86202380D01*
X117023809Y-86202380D02*
X117023809Y-85202380D01*
X116928571Y-85345238D01*
X116833333Y-85440476D01*
X116738095Y-85488095D01*
X118166666Y-85202380D02*
X117976190Y-85202380D01*
X117880952Y-85250000D01*
X117833333Y-85297619D01*
X117738095Y-85440476D01*
X117690476Y-85630952D01*
X117690476Y-86011904D01*
X117738095Y-86107142D01*
X117785714Y-86154761D01*
X117880952Y-86202380D01*
X118071428Y-86202380D01*
X118166666Y-86154761D01*
X118214285Y-86107142D01*
X118261904Y-86011904D01*
X118261904Y-85773809D01*
X118214285Y-85678571D01*
X118166666Y-85630952D01*
X118071428Y-85583333D01*
X117880952Y-85583333D01*
X117785714Y-85630952D01*
X117738095Y-85678571D01*
X117690476Y-85773809D01*
G04 #@! TO.C,C17*
X107857142Y-93107142D02*
X107809523Y-93154761D01*
X107666666Y-93202380D01*
X107571428Y-93202380D01*
X107428571Y-93154761D01*
X107333333Y-93059523D01*
X107285714Y-92964285D01*
X107238095Y-92773809D01*
X107238095Y-92630952D01*
X107285714Y-92440476D01*
X107333333Y-92345238D01*
X107428571Y-92250000D01*
X107571428Y-92202380D01*
X107666666Y-92202380D01*
X107809523Y-92250000D01*
X107857142Y-92297619D01*
X108809523Y-93202380D02*
X108238095Y-93202380D01*
X108523809Y-93202380D02*
X108523809Y-92202380D01*
X108428571Y-92345238D01*
X108333333Y-92440476D01*
X108238095Y-92488095D01*
X109142857Y-92202380D02*
X109809523Y-92202380D01*
X109380952Y-93202380D01*
G04 #@! TO.C,C18*
X107857142Y-86107142D02*
X107809523Y-86154761D01*
X107666666Y-86202380D01*
X107571428Y-86202380D01*
X107428571Y-86154761D01*
X107333333Y-86059523D01*
X107285714Y-85964285D01*
X107238095Y-85773809D01*
X107238095Y-85630952D01*
X107285714Y-85440476D01*
X107333333Y-85345238D01*
X107428571Y-85250000D01*
X107571428Y-85202380D01*
X107666666Y-85202380D01*
X107809523Y-85250000D01*
X107857142Y-85297619D01*
X108809523Y-86202380D02*
X108238095Y-86202380D01*
X108523809Y-86202380D02*
X108523809Y-85202380D01*
X108428571Y-85345238D01*
X108333333Y-85440476D01*
X108238095Y-85488095D01*
X109380952Y-85630952D02*
X109285714Y-85583333D01*
X109238095Y-85535714D01*
X109190476Y-85440476D01*
X109190476Y-85392857D01*
X109238095Y-85297619D01*
X109285714Y-85250000D01*
X109380952Y-85202380D01*
X109571428Y-85202380D01*
X109666666Y-85250000D01*
X109714285Y-85297619D01*
X109761904Y-85392857D01*
X109761904Y-85440476D01*
X109714285Y-85535714D01*
X109666666Y-85583333D01*
X109571428Y-85630952D01*
X109380952Y-85630952D01*
X109285714Y-85678571D01*
X109238095Y-85726190D01*
X109190476Y-85821428D01*
X109190476Y-86011904D01*
X109238095Y-86107142D01*
X109285714Y-86154761D01*
X109380952Y-86202380D01*
X109571428Y-86202380D01*
X109666666Y-86154761D01*
X109714285Y-86107142D01*
X109761904Y-86011904D01*
X109761904Y-85821428D01*
X109714285Y-85726190D01*
X109666666Y-85678571D01*
X109571428Y-85630952D01*
G04 #@! TO.C,D1*
D17*
X127625047Y-82229809D02*
X127625047Y-81721809D01*
X127746000Y-81721809D01*
X127818571Y-81746000D01*
X127866952Y-81794380D01*
X127891142Y-81842761D01*
X127915333Y-81939523D01*
X127915333Y-82012095D01*
X127891142Y-82108857D01*
X127866952Y-82157238D01*
X127818571Y-82205619D01*
X127746000Y-82229809D01*
X127625047Y-82229809D01*
X128399142Y-82229809D02*
X128108857Y-82229809D01*
X128254000Y-82229809D02*
X128254000Y-81721809D01*
X128205619Y-81794380D01*
X128157238Y-81842761D01*
X128108857Y-81866952D01*
G04 #@! TO.C,D2*
X137625047Y-82229809D02*
X137625047Y-81721809D01*
X137746000Y-81721809D01*
X137818571Y-81746000D01*
X137866952Y-81794380D01*
X137891142Y-81842761D01*
X137915333Y-81939523D01*
X137915333Y-82012095D01*
X137891142Y-82108857D01*
X137866952Y-82157238D01*
X137818571Y-82205619D01*
X137746000Y-82229809D01*
X137625047Y-82229809D01*
X138108857Y-81770190D02*
X138133047Y-81746000D01*
X138181428Y-81721809D01*
X138302380Y-81721809D01*
X138350761Y-81746000D01*
X138374952Y-81770190D01*
X138399142Y-81818571D01*
X138399142Y-81866952D01*
X138374952Y-81939523D01*
X138084666Y-82229809D01*
X138399142Y-82229809D01*
G04 #@! TO.C,U2*
D15*
X137238095Y-90817380D02*
X137238095Y-91626904D01*
X137285714Y-91722142D01*
X137333333Y-91769761D01*
X137428571Y-91817380D01*
X137619047Y-91817380D01*
X137714285Y-91769761D01*
X137761904Y-91722142D01*
X137809523Y-91626904D01*
X137809523Y-90817380D01*
X138238095Y-90912619D02*
X138285714Y-90865000D01*
X138380952Y-90817380D01*
X138619047Y-90817380D01*
X138714285Y-90865000D01*
X138761904Y-90912619D01*
X138809523Y-91007857D01*
X138809523Y-91103095D01*
X138761904Y-91245952D01*
X138190476Y-91817380D01*
X138809523Y-91817380D01*
G04 #@! TO.C,C19*
X104357142Y-74642857D02*
X104404761Y-74690476D01*
X104452380Y-74833333D01*
X104452380Y-74928571D01*
X104404761Y-75071428D01*
X104309523Y-75166666D01*
X104214285Y-75214285D01*
X104023809Y-75261904D01*
X103880952Y-75261904D01*
X103690476Y-75214285D01*
X103595238Y-75166666D01*
X103500000Y-75071428D01*
X103452380Y-74928571D01*
X103452380Y-74833333D01*
X103500000Y-74690476D01*
X103547619Y-74642857D01*
X104452380Y-73690476D02*
X104452380Y-74261904D01*
X104452380Y-73976190D02*
X103452380Y-73976190D01*
X103595238Y-74071428D01*
X103690476Y-74166666D01*
X103738095Y-74261904D01*
X104452380Y-73214285D02*
X104452380Y-73023809D01*
X104404761Y-72928571D01*
X104357142Y-72880952D01*
X104214285Y-72785714D01*
X104023809Y-72738095D01*
X103642857Y-72738095D01*
X103547619Y-72785714D01*
X103500000Y-72833333D01*
X103452380Y-72928571D01*
X103452380Y-73119047D01*
X103500000Y-73214285D01*
X103547619Y-73261904D01*
X103642857Y-73309523D01*
X103880952Y-73309523D01*
X103976190Y-73261904D01*
X104023809Y-73214285D01*
X104071428Y-73119047D01*
X104071428Y-72928571D01*
X104023809Y-72833333D01*
X103976190Y-72785714D01*
X103880952Y-72738095D01*
G04 #@! TO.C,C20*
X109107142Y-140642857D02*
X109154761Y-140690476D01*
X109202380Y-140833333D01*
X109202380Y-140928571D01*
X109154761Y-141071428D01*
X109059523Y-141166666D01*
X108964285Y-141214285D01*
X108773809Y-141261904D01*
X108630952Y-141261904D01*
X108440476Y-141214285D01*
X108345238Y-141166666D01*
X108250000Y-141071428D01*
X108202380Y-140928571D01*
X108202380Y-140833333D01*
X108250000Y-140690476D01*
X108297619Y-140642857D01*
X108297619Y-140261904D02*
X108250000Y-140214285D01*
X108202380Y-140119047D01*
X108202380Y-139880952D01*
X108250000Y-139785714D01*
X108297619Y-139738095D01*
X108392857Y-139690476D01*
X108488095Y-139690476D01*
X108630952Y-139738095D01*
X109202380Y-140309523D01*
X109202380Y-139690476D01*
X108202380Y-139071428D02*
X108202380Y-138976190D01*
X108250000Y-138880952D01*
X108297619Y-138833333D01*
X108392857Y-138785714D01*
X108583333Y-138738095D01*
X108821428Y-138738095D01*
X109011904Y-138785714D01*
X109107142Y-138833333D01*
X109154761Y-138880952D01*
X109202380Y-138976190D01*
X109202380Y-139071428D01*
X109154761Y-139166666D01*
X109107142Y-139214285D01*
X109011904Y-139261904D01*
X108821428Y-139309523D01*
X108583333Y-139309523D01*
X108392857Y-139261904D01*
X108297619Y-139214285D01*
X108250000Y-139166666D01*
X108202380Y-139071428D01*
G04 #@! TO.C,C21*
X109357142Y-146642857D02*
X109404761Y-146690476D01*
X109452380Y-146833333D01*
X109452380Y-146928571D01*
X109404761Y-147071428D01*
X109309523Y-147166666D01*
X109214285Y-147214285D01*
X109023809Y-147261904D01*
X108880952Y-147261904D01*
X108690476Y-147214285D01*
X108595238Y-147166666D01*
X108500000Y-147071428D01*
X108452380Y-146928571D01*
X108452380Y-146833333D01*
X108500000Y-146690476D01*
X108547619Y-146642857D01*
X108547619Y-146261904D02*
X108500000Y-146214285D01*
X108452380Y-146119047D01*
X108452380Y-145880952D01*
X108500000Y-145785714D01*
X108547619Y-145738095D01*
X108642857Y-145690476D01*
X108738095Y-145690476D01*
X108880952Y-145738095D01*
X109452380Y-146309523D01*
X109452380Y-145690476D01*
X109452380Y-144738095D02*
X109452380Y-145309523D01*
X109452380Y-145023809D02*
X108452380Y-145023809D01*
X108595238Y-145119047D01*
X108690476Y-145214285D01*
X108738095Y-145309523D01*
G04 #@! TO.C,C22*
X109357142Y-151642857D02*
X109404761Y-151690476D01*
X109452380Y-151833333D01*
X109452380Y-151928571D01*
X109404761Y-152071428D01*
X109309523Y-152166666D01*
X109214285Y-152214285D01*
X109023809Y-152261904D01*
X108880952Y-152261904D01*
X108690476Y-152214285D01*
X108595238Y-152166666D01*
X108500000Y-152071428D01*
X108452380Y-151928571D01*
X108452380Y-151833333D01*
X108500000Y-151690476D01*
X108547619Y-151642857D01*
X108547619Y-151261904D02*
X108500000Y-151214285D01*
X108452380Y-151119047D01*
X108452380Y-150880952D01*
X108500000Y-150785714D01*
X108547619Y-150738095D01*
X108642857Y-150690476D01*
X108738095Y-150690476D01*
X108880952Y-150738095D01*
X109452380Y-151309523D01*
X109452380Y-150690476D01*
X108547619Y-150309523D02*
X108500000Y-150261904D01*
X108452380Y-150166666D01*
X108452380Y-149928571D01*
X108500000Y-149833333D01*
X108547619Y-149785714D01*
X108642857Y-149738095D01*
X108738095Y-149738095D01*
X108880952Y-149785714D01*
X109452380Y-150357142D01*
X109452380Y-149738095D01*
G04 #@! TO.C,C23*
X125757142Y-125257142D02*
X125709523Y-125304761D01*
X125566666Y-125352380D01*
X125471428Y-125352380D01*
X125328571Y-125304761D01*
X125233333Y-125209523D01*
X125185714Y-125114285D01*
X125138095Y-124923809D01*
X125138095Y-124780952D01*
X125185714Y-124590476D01*
X125233333Y-124495238D01*
X125328571Y-124400000D01*
X125471428Y-124352380D01*
X125566666Y-124352380D01*
X125709523Y-124400000D01*
X125757142Y-124447619D01*
X126138095Y-124447619D02*
X126185714Y-124400000D01*
X126280952Y-124352380D01*
X126519047Y-124352380D01*
X126614285Y-124400000D01*
X126661904Y-124447619D01*
X126709523Y-124542857D01*
X126709523Y-124638095D01*
X126661904Y-124780952D01*
X126090476Y-125352380D01*
X126709523Y-125352380D01*
X127042857Y-124352380D02*
X127661904Y-124352380D01*
X127328571Y-124733333D01*
X127471428Y-124733333D01*
X127566666Y-124780952D01*
X127614285Y-124828571D01*
X127661904Y-124923809D01*
X127661904Y-125161904D01*
X127614285Y-125257142D01*
X127566666Y-125304761D01*
X127471428Y-125352380D01*
X127185714Y-125352380D01*
X127090476Y-125304761D01*
X127042857Y-125257142D01*
G04 #@! TO.C,C24*
X133357142Y-66857142D02*
X133309523Y-66904761D01*
X133166666Y-66952380D01*
X133071428Y-66952380D01*
X132928571Y-66904761D01*
X132833333Y-66809523D01*
X132785714Y-66714285D01*
X132738095Y-66523809D01*
X132738095Y-66380952D01*
X132785714Y-66190476D01*
X132833333Y-66095238D01*
X132928571Y-66000000D01*
X133071428Y-65952380D01*
X133166666Y-65952380D01*
X133309523Y-66000000D01*
X133357142Y-66047619D01*
X133738095Y-66047619D02*
X133785714Y-66000000D01*
X133880952Y-65952380D01*
X134119047Y-65952380D01*
X134214285Y-66000000D01*
X134261904Y-66047619D01*
X134309523Y-66142857D01*
X134309523Y-66238095D01*
X134261904Y-66380952D01*
X133690476Y-66952380D01*
X134309523Y-66952380D01*
X135166666Y-66285714D02*
X135166666Y-66952380D01*
X134928571Y-65904761D02*
X134690476Y-66619047D01*
X135309523Y-66619047D01*
G04 #@! TO.C,C25*
X133357142Y-55857142D02*
X133309523Y-55904761D01*
X133166666Y-55952380D01*
X133071428Y-55952380D01*
X132928571Y-55904761D01*
X132833333Y-55809523D01*
X132785714Y-55714285D01*
X132738095Y-55523809D01*
X132738095Y-55380952D01*
X132785714Y-55190476D01*
X132833333Y-55095238D01*
X132928571Y-55000000D01*
X133071428Y-54952380D01*
X133166666Y-54952380D01*
X133309523Y-55000000D01*
X133357142Y-55047619D01*
X133738095Y-55047619D02*
X133785714Y-55000000D01*
X133880952Y-54952380D01*
X134119047Y-54952380D01*
X134214285Y-55000000D01*
X134261904Y-55047619D01*
X134309523Y-55142857D01*
X134309523Y-55238095D01*
X134261904Y-55380952D01*
X133690476Y-55952380D01*
X134309523Y-55952380D01*
X135214285Y-54952380D02*
X134738095Y-54952380D01*
X134690476Y-55428571D01*
X134738095Y-55380952D01*
X134833333Y-55333333D01*
X135071428Y-55333333D01*
X135166666Y-55380952D01*
X135214285Y-55428571D01*
X135261904Y-55523809D01*
X135261904Y-55761904D01*
X135214285Y-55857142D01*
X135166666Y-55904761D01*
X135071428Y-55952380D01*
X134833333Y-55952380D01*
X134738095Y-55904761D01*
X134690476Y-55857142D01*
G04 #@! TO.C,C26*
X125357142Y-62107142D02*
X125309523Y-62154761D01*
X125166666Y-62202380D01*
X125071428Y-62202380D01*
X124928571Y-62154761D01*
X124833333Y-62059523D01*
X124785714Y-61964285D01*
X124738095Y-61773809D01*
X124738095Y-61630952D01*
X124785714Y-61440476D01*
X124833333Y-61345238D01*
X124928571Y-61250000D01*
X125071428Y-61202380D01*
X125166666Y-61202380D01*
X125309523Y-61250000D01*
X125357142Y-61297619D01*
X125738095Y-61297619D02*
X125785714Y-61250000D01*
X125880952Y-61202380D01*
X126119047Y-61202380D01*
X126214285Y-61250000D01*
X126261904Y-61297619D01*
X126309523Y-61392857D01*
X126309523Y-61488095D01*
X126261904Y-61630952D01*
X125690476Y-62202380D01*
X126309523Y-62202380D01*
X127166666Y-61202380D02*
X126976190Y-61202380D01*
X126880952Y-61250000D01*
X126833333Y-61297619D01*
X126738095Y-61440476D01*
X126690476Y-61630952D01*
X126690476Y-62011904D01*
X126738095Y-62107142D01*
X126785714Y-62154761D01*
X126880952Y-62202380D01*
X127071428Y-62202380D01*
X127166666Y-62154761D01*
X127214285Y-62107142D01*
X127261904Y-62011904D01*
X127261904Y-61773809D01*
X127214285Y-61678571D01*
X127166666Y-61630952D01*
X127071428Y-61583333D01*
X126880952Y-61583333D01*
X126785714Y-61630952D01*
X126738095Y-61678571D01*
X126690476Y-61773809D01*
G04 #@! TO.C,C27*
X118357142Y-62357142D02*
X118309523Y-62404761D01*
X118166666Y-62452380D01*
X118071428Y-62452380D01*
X117928571Y-62404761D01*
X117833333Y-62309523D01*
X117785714Y-62214285D01*
X117738095Y-62023809D01*
X117738095Y-61880952D01*
X117785714Y-61690476D01*
X117833333Y-61595238D01*
X117928571Y-61500000D01*
X118071428Y-61452380D01*
X118166666Y-61452380D01*
X118309523Y-61500000D01*
X118357142Y-61547619D01*
X118738095Y-61547619D02*
X118785714Y-61500000D01*
X118880952Y-61452380D01*
X119119047Y-61452380D01*
X119214285Y-61500000D01*
X119261904Y-61547619D01*
X119309523Y-61642857D01*
X119309523Y-61738095D01*
X119261904Y-61880952D01*
X118690476Y-62452380D01*
X119309523Y-62452380D01*
X119642857Y-61452380D02*
X120309523Y-61452380D01*
X119880952Y-62452380D01*
G04 #@! TO.C,C28*
X94857142Y-74642857D02*
X94904761Y-74690476D01*
X94952380Y-74833333D01*
X94952380Y-74928571D01*
X94904761Y-75071428D01*
X94809523Y-75166666D01*
X94714285Y-75214285D01*
X94523809Y-75261904D01*
X94380952Y-75261904D01*
X94190476Y-75214285D01*
X94095238Y-75166666D01*
X94000000Y-75071428D01*
X93952380Y-74928571D01*
X93952380Y-74833333D01*
X94000000Y-74690476D01*
X94047619Y-74642857D01*
X94047619Y-74261904D02*
X94000000Y-74214285D01*
X93952380Y-74119047D01*
X93952380Y-73880952D01*
X94000000Y-73785714D01*
X94047619Y-73738095D01*
X94142857Y-73690476D01*
X94238095Y-73690476D01*
X94380952Y-73738095D01*
X94952380Y-74309523D01*
X94952380Y-73690476D01*
X94380952Y-73119047D02*
X94333333Y-73214285D01*
X94285714Y-73261904D01*
X94190476Y-73309523D01*
X94142857Y-73309523D01*
X94047619Y-73261904D01*
X94000000Y-73214285D01*
X93952380Y-73119047D01*
X93952380Y-72928571D01*
X94000000Y-72833333D01*
X94047619Y-72785714D01*
X94142857Y-72738095D01*
X94190476Y-72738095D01*
X94285714Y-72785714D01*
X94333333Y-72833333D01*
X94380952Y-72928571D01*
X94380952Y-73119047D01*
X94428571Y-73214285D01*
X94476190Y-73261904D01*
X94571428Y-73309523D01*
X94761904Y-73309523D01*
X94857142Y-73261904D01*
X94904761Y-73214285D01*
X94952380Y-73119047D01*
X94952380Y-72928571D01*
X94904761Y-72833333D01*
X94857142Y-72785714D01*
X94761904Y-72738095D01*
X94571428Y-72738095D01*
X94476190Y-72785714D01*
X94428571Y-72833333D01*
X94380952Y-72928571D01*
G04 #@! TO.C,J7*
X124247380Y-142668333D02*
X124961666Y-142668333D01*
X125104523Y-142715952D01*
X125199761Y-142811190D01*
X125247380Y-142954047D01*
X125247380Y-143049285D01*
X124247380Y-142287380D02*
X124247380Y-141620714D01*
X125247380Y-142049285D01*
G04 #@! TO.C,Q17*
D16*
X158797879Y-107669214D02*
X158773689Y-107717595D01*
X158725308Y-107765976D01*
X158652736Y-107838548D01*
X158628546Y-107886929D01*
X158628546Y-107935309D01*
X158749498Y-107911119D02*
X158725308Y-107959500D01*
X158676927Y-108007881D01*
X158580165Y-108032071D01*
X158410831Y-108032071D01*
X158314069Y-108007881D01*
X158265689Y-107959500D01*
X158241498Y-107911119D01*
X158241498Y-107814357D01*
X158265689Y-107765976D01*
X158314069Y-107717595D01*
X158410831Y-107693405D01*
X158580165Y-107693405D01*
X158676927Y-107717595D01*
X158725308Y-107765976D01*
X158749498Y-107814357D01*
X158749498Y-107911119D01*
X158749498Y-107209595D02*
X158749498Y-107499881D01*
X158749498Y-107354738D02*
X158241498Y-107354738D01*
X158314069Y-107403119D01*
X158362450Y-107451500D01*
X158386641Y-107499881D01*
X158241498Y-107040262D02*
X158241498Y-106701595D01*
X158749498Y-106919309D01*
G04 #@! TO.C,Q18*
X158278190Y-133290285D02*
X158254000Y-133338666D01*
X158205619Y-133387047D01*
X158133047Y-133459619D01*
X158108857Y-133508000D01*
X158108857Y-133556380D01*
X158229809Y-133532190D02*
X158205619Y-133580571D01*
X158157238Y-133628952D01*
X158060476Y-133653142D01*
X157891142Y-133653142D01*
X157794380Y-133628952D01*
X157746000Y-133580571D01*
X157721809Y-133532190D01*
X157721809Y-133435428D01*
X157746000Y-133387047D01*
X157794380Y-133338666D01*
X157891142Y-133314476D01*
X158060476Y-133314476D01*
X158157238Y-133338666D01*
X158205619Y-133387047D01*
X158229809Y-133435428D01*
X158229809Y-133532190D01*
X158229809Y-132830666D02*
X158229809Y-133120952D01*
X158229809Y-132975809D02*
X157721809Y-132975809D01*
X157794380Y-133024190D01*
X157842761Y-133072571D01*
X157866952Y-133120952D01*
X157939523Y-132540380D02*
X157915333Y-132588761D01*
X157891142Y-132612952D01*
X157842761Y-132637142D01*
X157818571Y-132637142D01*
X157770190Y-132612952D01*
X157746000Y-132588761D01*
X157721809Y-132540380D01*
X157721809Y-132443619D01*
X157746000Y-132395238D01*
X157770190Y-132371047D01*
X157818571Y-132346857D01*
X157842761Y-132346857D01*
X157891142Y-132371047D01*
X157915333Y-132395238D01*
X157939523Y-132443619D01*
X157939523Y-132540380D01*
X157963714Y-132588761D01*
X157987904Y-132612952D01*
X158036285Y-132637142D01*
X158133047Y-132637142D01*
X158181428Y-132612952D01*
X158205619Y-132588761D01*
X158229809Y-132540380D01*
X158229809Y-132443619D01*
X158205619Y-132395238D01*
X158181428Y-132371047D01*
X158133047Y-132346857D01*
X158036285Y-132346857D01*
X157987904Y-132371047D01*
X157963714Y-132395238D01*
X157939523Y-132443619D01*
G04 #@! TO.C,Q21*
X158454424Y-120472345D02*
X158430234Y-120520726D01*
X158381853Y-120569107D01*
X158309281Y-120641679D01*
X158285091Y-120690060D01*
X158285091Y-120738440D01*
X158406043Y-120714250D02*
X158381853Y-120762631D01*
X158333472Y-120811012D01*
X158236710Y-120835202D01*
X158067376Y-120835202D01*
X157970614Y-120811012D01*
X157922234Y-120762631D01*
X157898043Y-120714250D01*
X157898043Y-120617488D01*
X157922234Y-120569107D01*
X157970614Y-120520726D01*
X158067376Y-120496536D01*
X158236710Y-120496536D01*
X158333472Y-120520726D01*
X158381853Y-120569107D01*
X158406043Y-120617488D01*
X158406043Y-120714250D01*
X157946424Y-120303012D02*
X157922234Y-120278821D01*
X157898043Y-120230440D01*
X157898043Y-120109488D01*
X157922234Y-120061107D01*
X157946424Y-120036917D01*
X157994805Y-120012726D01*
X158043186Y-120012726D01*
X158115757Y-120036917D01*
X158406043Y-120327202D01*
X158406043Y-120012726D01*
X158406043Y-119528917D02*
X158406043Y-119819202D01*
X158406043Y-119674060D02*
X157898043Y-119674060D01*
X157970614Y-119722440D01*
X158018995Y-119770821D01*
X158043186Y-119819202D01*
G04 #@! TO.C,Q22*
X158278190Y-146290285D02*
X158254000Y-146338666D01*
X158205619Y-146387047D01*
X158133047Y-146459619D01*
X158108857Y-146508000D01*
X158108857Y-146556380D01*
X158229809Y-146532190D02*
X158205619Y-146580571D01*
X158157238Y-146628952D01*
X158060476Y-146653142D01*
X157891142Y-146653142D01*
X157794380Y-146628952D01*
X157746000Y-146580571D01*
X157721809Y-146532190D01*
X157721809Y-146435428D01*
X157746000Y-146387047D01*
X157794380Y-146338666D01*
X157891142Y-146314476D01*
X158060476Y-146314476D01*
X158157238Y-146338666D01*
X158205619Y-146387047D01*
X158229809Y-146435428D01*
X158229809Y-146532190D01*
X157770190Y-146120952D02*
X157746000Y-146096761D01*
X157721809Y-146048380D01*
X157721809Y-145927428D01*
X157746000Y-145879047D01*
X157770190Y-145854857D01*
X157818571Y-145830666D01*
X157866952Y-145830666D01*
X157939523Y-145854857D01*
X158229809Y-146145142D01*
X158229809Y-145830666D01*
X157770190Y-145637142D02*
X157746000Y-145612952D01*
X157721809Y-145564571D01*
X157721809Y-145443619D01*
X157746000Y-145395238D01*
X157770190Y-145371047D01*
X157818571Y-145346857D01*
X157866952Y-145346857D01*
X157939523Y-145371047D01*
X158229809Y-145661333D01*
X158229809Y-145346857D01*
G04 #@! TO.C,R39*
D15*
X139357142Y-64752380D02*
X139023809Y-64276190D01*
X138785714Y-64752380D02*
X138785714Y-63752380D01*
X139166666Y-63752380D01*
X139261904Y-63800000D01*
X139309523Y-63847619D01*
X139357142Y-63942857D01*
X139357142Y-64085714D01*
X139309523Y-64180952D01*
X139261904Y-64228571D01*
X139166666Y-64276190D01*
X138785714Y-64276190D01*
X139690476Y-63752380D02*
X140309523Y-63752380D01*
X139976190Y-64133333D01*
X140119047Y-64133333D01*
X140214285Y-64180952D01*
X140261904Y-64228571D01*
X140309523Y-64323809D01*
X140309523Y-64561904D01*
X140261904Y-64657142D01*
X140214285Y-64704761D01*
X140119047Y-64752380D01*
X139833333Y-64752380D01*
X139738095Y-64704761D01*
X139690476Y-64657142D01*
X140785714Y-64752380D02*
X140976190Y-64752380D01*
X141071428Y-64704761D01*
X141119047Y-64657142D01*
X141214285Y-64514285D01*
X141261904Y-64323809D01*
X141261904Y-63942857D01*
X141214285Y-63847619D01*
X141166666Y-63800000D01*
X141071428Y-63752380D01*
X140880952Y-63752380D01*
X140785714Y-63800000D01*
X140738095Y-63847619D01*
X140690476Y-63942857D01*
X140690476Y-64180952D01*
X140738095Y-64276190D01*
X140785714Y-64323809D01*
X140880952Y-64371428D01*
X141071428Y-64371428D01*
X141166666Y-64323809D01*
X141214285Y-64276190D01*
X141261904Y-64180952D01*
G04 #@! TO.C,R40*
X139357142Y-57752380D02*
X139023809Y-57276190D01*
X138785714Y-57752380D02*
X138785714Y-56752380D01*
X139166666Y-56752380D01*
X139261904Y-56800000D01*
X139309523Y-56847619D01*
X139357142Y-56942857D01*
X139357142Y-57085714D01*
X139309523Y-57180952D01*
X139261904Y-57228571D01*
X139166666Y-57276190D01*
X138785714Y-57276190D01*
X140214285Y-57085714D02*
X140214285Y-57752380D01*
X139976190Y-56704761D02*
X139738095Y-57419047D01*
X140357142Y-57419047D01*
X140928571Y-56752380D02*
X141023809Y-56752380D01*
X141119047Y-56800000D01*
X141166666Y-56847619D01*
X141214285Y-56942857D01*
X141261904Y-57133333D01*
X141261904Y-57371428D01*
X141214285Y-57561904D01*
X141166666Y-57657142D01*
X141119047Y-57704761D01*
X141023809Y-57752380D01*
X140928571Y-57752380D01*
X140833333Y-57704761D01*
X140785714Y-57657142D01*
X140738095Y-57561904D01*
X140690476Y-57371428D01*
X140690476Y-57133333D01*
X140738095Y-56942857D01*
X140785714Y-56847619D01*
X140833333Y-56800000D01*
X140928571Y-56752380D01*
G04 #@! TO.C,R41*
X125357142Y-57452380D02*
X125023809Y-56976190D01*
X124785714Y-57452380D02*
X124785714Y-56452380D01*
X125166666Y-56452380D01*
X125261904Y-56500000D01*
X125309523Y-56547619D01*
X125357142Y-56642857D01*
X125357142Y-56785714D01*
X125309523Y-56880952D01*
X125261904Y-56928571D01*
X125166666Y-56976190D01*
X124785714Y-56976190D01*
X126214285Y-56785714D02*
X126214285Y-57452380D01*
X125976190Y-56404761D02*
X125738095Y-57119047D01*
X126357142Y-57119047D01*
X127261904Y-57452380D02*
X126690476Y-57452380D01*
X126976190Y-57452380D02*
X126976190Y-56452380D01*
X126880952Y-56595238D01*
X126785714Y-56690476D01*
X126690476Y-56738095D01*
G04 #@! TO.C,R42*
X120357142Y-65152380D02*
X120023809Y-64676190D01*
X119785714Y-65152380D02*
X119785714Y-64152380D01*
X120166666Y-64152380D01*
X120261904Y-64200000D01*
X120309523Y-64247619D01*
X120357142Y-64342857D01*
X120357142Y-64485714D01*
X120309523Y-64580952D01*
X120261904Y-64628571D01*
X120166666Y-64676190D01*
X119785714Y-64676190D01*
X121214285Y-64485714D02*
X121214285Y-65152380D01*
X120976190Y-64104761D02*
X120738095Y-64819047D01*
X121357142Y-64819047D01*
X121690476Y-64247619D02*
X121738095Y-64200000D01*
X121833333Y-64152380D01*
X122071428Y-64152380D01*
X122166666Y-64200000D01*
X122214285Y-64247619D01*
X122261904Y-64342857D01*
X122261904Y-64438095D01*
X122214285Y-64580952D01*
X121642857Y-65152380D01*
X122261904Y-65152380D01*
G04 #@! TO.C,T1*
X110238095Y-59952380D02*
X110809523Y-59952380D01*
X110523809Y-60952380D02*
X110523809Y-59952380D01*
X111666666Y-60952380D02*
X111095238Y-60952380D01*
X111380952Y-60952380D02*
X111380952Y-59952380D01*
X111285714Y-60095238D01*
X111190476Y-60190476D01*
X111095238Y-60238095D01*
G04 #@! TO.C,U5*
D17*
X133086809Y-61387047D02*
X133498047Y-61387047D01*
X133546428Y-61362857D01*
X133570619Y-61338666D01*
X133594809Y-61290285D01*
X133594809Y-61193523D01*
X133570619Y-61145142D01*
X133546428Y-61120952D01*
X133498047Y-61096761D01*
X133086809Y-61096761D01*
X133086809Y-60612952D02*
X133086809Y-60854857D01*
X133328714Y-60879047D01*
X133304523Y-60854857D01*
X133280333Y-60806476D01*
X133280333Y-60685523D01*
X133304523Y-60637142D01*
X133328714Y-60612952D01*
X133377095Y-60588761D01*
X133498047Y-60588761D01*
X133546428Y-60612952D01*
X133570619Y-60637142D01*
X133594809Y-60685523D01*
X133594809Y-60806476D01*
X133570619Y-60854857D01*
X133546428Y-60879047D01*
G04 #@! TO.C,U6*
D15*
X98238095Y-67452380D02*
X98238095Y-68261904D01*
X98285714Y-68357142D01*
X98333333Y-68404761D01*
X98428571Y-68452380D01*
X98619047Y-68452380D01*
X98714285Y-68404761D01*
X98761904Y-68357142D01*
X98809523Y-68261904D01*
X98809523Y-67452380D01*
X99714285Y-67452380D02*
X99523809Y-67452380D01*
X99428571Y-67500000D01*
X99380952Y-67547619D01*
X99285714Y-67690476D01*
X99238095Y-67880952D01*
X99238095Y-68261904D01*
X99285714Y-68357142D01*
X99333333Y-68404761D01*
X99428571Y-68452380D01*
X99619047Y-68452380D01*
X99714285Y-68404761D01*
X99761904Y-68357142D01*
X99809523Y-68261904D01*
X99809523Y-68023809D01*
X99761904Y-67928571D01*
X99714285Y-67880952D01*
X99619047Y-67833333D01*
X99428571Y-67833333D01*
X99333333Y-67880952D01*
X99285714Y-67928571D01*
X99238095Y-68023809D01*
G04 #@! TO.C,R35*
X114652380Y-91142857D02*
X114176190Y-91476190D01*
X114652380Y-91714285D02*
X113652380Y-91714285D01*
X113652380Y-91333333D01*
X113700000Y-91238095D01*
X113747619Y-91190476D01*
X113842857Y-91142857D01*
X113985714Y-91142857D01*
X114080952Y-91190476D01*
X114128571Y-91238095D01*
X114176190Y-91333333D01*
X114176190Y-91714285D01*
X113652380Y-90809523D02*
X113652380Y-90190476D01*
X114033333Y-90523809D01*
X114033333Y-90380952D01*
X114080952Y-90285714D01*
X114128571Y-90238095D01*
X114223809Y-90190476D01*
X114461904Y-90190476D01*
X114557142Y-90238095D01*
X114604761Y-90285714D01*
X114652380Y-90380952D01*
X114652380Y-90666666D01*
X114604761Y-90761904D01*
X114557142Y-90809523D01*
X113652380Y-89285714D02*
X113652380Y-89761904D01*
X114128571Y-89809523D01*
X114080952Y-89761904D01*
X114033333Y-89666666D01*
X114033333Y-89428571D01*
X114080952Y-89333333D01*
X114128571Y-89285714D01*
X114223809Y-89238095D01*
X114461904Y-89238095D01*
X114557142Y-89285714D01*
X114604761Y-89333333D01*
X114652380Y-89428571D01*
X114652380Y-89666666D01*
X114604761Y-89761904D01*
X114557142Y-89809523D01*
G04 #@! TO.C,R36*
X114652380Y-84142857D02*
X114176190Y-84476190D01*
X114652380Y-84714285D02*
X113652380Y-84714285D01*
X113652380Y-84333333D01*
X113700000Y-84238095D01*
X113747619Y-84190476D01*
X113842857Y-84142857D01*
X113985714Y-84142857D01*
X114080952Y-84190476D01*
X114128571Y-84238095D01*
X114176190Y-84333333D01*
X114176190Y-84714285D01*
X113652380Y-83809523D02*
X113652380Y-83190476D01*
X114033333Y-83523809D01*
X114033333Y-83380952D01*
X114080952Y-83285714D01*
X114128571Y-83238095D01*
X114223809Y-83190476D01*
X114461904Y-83190476D01*
X114557142Y-83238095D01*
X114604761Y-83285714D01*
X114652380Y-83380952D01*
X114652380Y-83666666D01*
X114604761Y-83761904D01*
X114557142Y-83809523D01*
X113652380Y-82333333D02*
X113652380Y-82523809D01*
X113700000Y-82619047D01*
X113747619Y-82666666D01*
X113890476Y-82761904D01*
X114080952Y-82809523D01*
X114461904Y-82809523D01*
X114557142Y-82761904D01*
X114604761Y-82714285D01*
X114652380Y-82619047D01*
X114652380Y-82428571D01*
X114604761Y-82333333D01*
X114557142Y-82285714D01*
X114461904Y-82238095D01*
X114223809Y-82238095D01*
X114128571Y-82285714D01*
X114080952Y-82333333D01*
X114033333Y-82428571D01*
X114033333Y-82619047D01*
X114080952Y-82714285D01*
X114128571Y-82761904D01*
X114223809Y-82809523D01*
G04 #@! TD*
M02*
